%TF.GenerationSoftware,Altium Limited,Altium Designer,22.3.1 (43)*%
G04 Layer_Color=0*
%FSLAX26Y26*%
%MOIN*%
%TF.SameCoordinates,F0E5A86D-29B0-4C41-8DB9-0BED1FB65684*%
%TF.FilePolarity,Positive*%
%TF.FileFunction,NonPlated,1,4,NPTH,Drill*%
%TF.Part,Single*%
G01*
G75*
%TA.AperFunction,ComponentDrill*%
%ADD230C,0.120079*%
%ADD231C,0.118110*%
%ADD232C,0.120079*%
%ADD233C,0.126575*%
D230*
X3081102Y6186417D02*
D03*
X3581102D02*
D03*
X4081102D02*
D03*
X4581102D02*
D03*
X5081102D02*
D03*
X5581102D02*
D03*
X6481102D02*
D03*
X6981102D02*
D03*
X7481102D02*
D03*
X7981102D02*
D03*
X8481102D02*
D03*
X8981102D02*
D03*
X1681102D02*
D03*
X2181102D02*
D03*
D231*
X2159055Y1211811D02*
D03*
X1659055D02*
D03*
X2659055D02*
D03*
X3159055D02*
D03*
X3659055D02*
D03*
X4159050Y1211809D02*
D03*
X4659055Y1211811D02*
D03*
X5159050Y1211809D02*
D03*
X5659055Y1211811D02*
D03*
X6159050Y1211809D02*
D03*
D232*
X1313583Y5556102D02*
D03*
Y5056102D02*
D03*
D233*
X1205000Y3365000D02*
D03*
Y3815000D02*
D03*
%TF.MD5,c9306f5282a83d1ce73bf9deb267ec89*%
M02*
