%TF.GenerationSoftware,Altium Limited,Altium Designer,22.3.1 (43)*%
G04 Layer_Color=8421504*
%FSLAX26Y26*%
%MOIN*%
%TF.SameCoordinates,8280E445-5C4D-48E8-A53F-9B01841AA427*%
%TF.FilePolarity,Positive*%
%TF.FileFunction,Paste,Top*%
%TF.Part,Single*%
G01*
G75*
%TA.AperFunction,SMDPad,CuDef*%
%ADD11R,0.031496X0.035433*%
%ADD12R,0.083000X0.055000*%
G04:AMPARAMS|DCode=13|XSize=33.465mil|YSize=31.496mil|CornerRadius=0mil|HoleSize=0mil|Usage=FLASHONLY|Rotation=45.000|XOffset=0mil|YOffset=0mil|HoleType=Round|Shape=Rectangle|*
%AMROTATEDRECTD13*
4,1,4,-0.000696,-0.022967,-0.022967,-0.000696,0.000696,0.022967,0.022967,0.000696,-0.000696,-0.022967,0.0*
%
%ADD13ROTATEDRECTD13*%

G04:AMPARAMS|DCode=14|XSize=33.465mil|YSize=31.496mil|CornerRadius=0mil|HoleSize=0mil|Usage=FLASHONLY|Rotation=315.000|XOffset=0mil|YOffset=0mil|HoleType=Round|Shape=Rectangle|*
%AMROTATEDRECTD14*
4,1,4,-0.022967,0.000696,-0.000696,0.022967,0.022967,-0.000696,0.000696,-0.022967,-0.022967,0.000696,0.0*
%
%ADD14ROTATEDRECTD14*%

G04:AMPARAMS|DCode=15|XSize=11.811mil|YSize=55.118mil|CornerRadius=0mil|HoleSize=0mil|Usage=FLASHONLY|Rotation=315.000|XOffset=0mil|YOffset=0mil|HoleType=Round|Shape=Round|*
%AMOVALD15*
21,1,0.043307,0.011811,0.000000,0.000000,45.0*
1,1,0.011811,-0.015311,-0.015311*
1,1,0.011811,0.015311,0.015311*
%
%ADD15OVALD15*%

G04:AMPARAMS|DCode=16|XSize=11.811mil|YSize=55.118mil|CornerRadius=0mil|HoleSize=0mil|Usage=FLASHONLY|Rotation=225.000|XOffset=0mil|YOffset=0mil|HoleType=Round|Shape=Round|*
%AMOVALD16*
21,1,0.043307,0.011811,0.000000,0.000000,315.0*
1,1,0.011811,-0.015311,0.015311*
1,1,0.011811,0.015311,-0.015311*
%
%ADD16OVALD16*%

%ADD17R,0.035433X0.031496*%
%ADD18R,0.033465X0.031496*%
G04:AMPARAMS|DCode=19|XSize=64.961mil|YSize=61.024mil|CornerRadius=0mil|HoleSize=0mil|Usage=FLASHONLY|Rotation=45.000|XOffset=0mil|YOffset=0mil|HoleType=Round|Shape=Rectangle|*
%AMROTATEDRECTD19*
4,1,4,-0.001392,-0.044542,-0.044542,-0.001392,0.001392,0.044542,0.044542,0.001392,-0.001392,-0.044542,0.0*
%
%ADD19ROTATEDRECTD19*%

G04:AMPARAMS|DCode=20|XSize=102.362mil|YSize=43.307mil|CornerRadius=0mil|HoleSize=0mil|Usage=FLASHONLY|Rotation=135.000|XOffset=0mil|YOffset=0mil|HoleType=Round|Shape=Rectangle|*
%AMROTATEDRECTD20*
4,1,4,0.051502,-0.020879,0.020879,-0.051502,-0.051502,0.020879,-0.020879,0.051502,0.051502,-0.020879,0.0*
%
%ADD20ROTATEDRECTD20*%

%ADD21R,0.029528X0.021654*%
%ADD22R,0.109843X0.029134*%
%ADD23R,0.125984X0.125984*%
%ADD24O,0.033465X0.009842*%
%ADD25O,0.009842X0.033465*%
%ADD28R,0.024000X0.050000*%
%ADD29R,0.154000X0.150000*%
G04:AMPARAMS|DCode=30|XSize=150mil|YSize=154mil|CornerRadius=0mil|HoleSize=0mil|Usage=FLASHONLY|Rotation=225.000|XOffset=0mil|YOffset=0mil|HoleType=Round|Shape=Rectangle|*
%AMROTATEDRECTD30*
4,1,4,-0.001414,0.107480,0.107480,-0.001414,0.001414,-0.107480,-0.107480,0.001414,-0.001414,0.107480,0.0*
%
%ADD30ROTATEDRECTD30*%

G04:AMPARAMS|DCode=31|XSize=50mil|YSize=24mil|CornerRadius=0mil|HoleSize=0mil|Usage=FLASHONLY|Rotation=225.000|XOffset=0mil|YOffset=0mil|HoleType=Round|Shape=Rectangle|*
%AMROTATEDRECTD31*
4,1,4,0.009192,0.026163,0.026163,0.009192,-0.009192,-0.026163,-0.026163,-0.009192,0.009192,0.026163,0.0*
%
%ADD31ROTATEDRECTD31*%

%ADD32R,0.131890X0.043307*%
%ADD33R,0.082677X0.057087*%
%ADD34R,0.108268X0.035433*%
%ADD35R,0.248031X0.216535*%
%ADD36R,0.035827X0.048032*%
G04:AMPARAMS|DCode=37|XSize=135.827mil|YSize=84.646mil|CornerRadius=0mil|HoleSize=0mil|Usage=FLASHONLY|Rotation=315.000|XOffset=0mil|YOffset=0mil|HoleType=Round|Shape=Rectangle|*
%AMROTATEDRECTD37*
4,1,4,-0.077949,0.018095,-0.018095,0.077949,0.077949,-0.018095,0.018095,-0.077949,-0.077949,0.018095,0.0*
%
%ADD37ROTATEDRECTD37*%

G04:AMPARAMS|DCode=38|XSize=15.748mil|YSize=74.803mil|CornerRadius=0mil|HoleSize=0mil|Usage=FLASHONLY|Rotation=225.000|XOffset=0mil|YOffset=0mil|HoleType=Round|Shape=Round|*
%AMOVALD38*
21,1,0.059055,0.015748,0.000000,0.000000,315.0*
1,1,0.015748,-0.020879,0.020879*
1,1,0.015748,0.020879,-0.020879*
%
%ADD38OVALD38*%

%ADD39R,0.031496X0.033465*%
%ADD40O,0.074803X0.023622*%
%ADD41O,0.023622X0.057087*%
%ADD42R,0.090157X0.090157*%
%ADD43O,0.017716X0.070866*%
%ADD44R,0.055118X0.033465*%
%ADD45R,0.135827X0.084646*%
G04:AMPARAMS|DCode=46|XSize=35.433mil|YSize=31.496mil|CornerRadius=0mil|HoleSize=0mil|Usage=FLASHONLY|Rotation=225.000|XOffset=0mil|YOffset=0mil|HoleType=Round|Shape=Rectangle|*
%AMROTATEDRECTD46*
4,1,4,0.001392,0.023663,0.023663,0.001392,-0.001392,-0.023663,-0.023663,-0.001392,0.001392,0.023663,0.0*
%
%ADD46ROTATEDRECTD46*%

%ADD47O,0.049213X0.013780*%
%ADD48R,0.090157X0.090157*%
%ADD49O,0.057087X0.023622*%
%TA.AperFunction,SMDPad,SMDef*%
%ADD50C,0.010000*%
%TA.AperFunction,SMDPad,CuDef*%
%ADD51R,0.059055X0.047244*%
%ADD52R,0.059055X0.051181*%
%ADD53R,0.074803X0.055118*%
%ADD54R,0.055118X0.070866*%
%ADD55R,0.059055X0.031496*%
G04:AMPARAMS|DCode=57|XSize=9.546mil|YSize=31.248mil|CornerRadius=4.773mil|HoleSize=0mil|Usage=FLASHONLY|Rotation=0.000|XOffset=0mil|YOffset=0mil|HoleType=Round|Shape=RoundedRectangle|*
%AMROUNDEDRECTD57*
21,1,0.009546,0.021702,0,0,0.0*
21,1,0.000000,0.031248,0,0,0.0*
1,1,0.009546,0.000000,-0.010851*
1,1,0.009546,0.000000,-0.010851*
1,1,0.009546,0.000000,0.010851*
1,1,0.009546,0.000000,0.010851*
%
%ADD57ROUNDEDRECTD57*%
G04:AMPARAMS|DCode=58|XSize=31.248mil|YSize=9.546mil|CornerRadius=4.773mil|HoleSize=0mil|Usage=FLASHONLY|Rotation=0.000|XOffset=0mil|YOffset=0mil|HoleType=Round|Shape=RoundedRectangle|*
%AMROUNDEDRECTD58*
21,1,0.031248,0.000000,0,0,0.0*
21,1,0.021702,0.009546,0,0,0.0*
1,1,0.009546,0.010851,0.000000*
1,1,0.009546,-0.010851,0.000000*
1,1,0.009546,-0.010851,0.000000*
1,1,0.009546,0.010851,0.000000*
%
%ADD58ROUNDEDRECTD58*%
%ADD59R,0.031248X0.009546*%
%ADD60R,0.019685X0.027559*%
%TA.AperFunction,NonConductor*%
%ADD187R,0.040157X0.056890*%
%ADD188R,0.013386X0.017716*%
%ADD189R,0.063495X0.063495*%
%TA.AperFunction,SMDPad,CuDef*%
%ADD190R,0.009449X0.018504*%
G36*
X8852808Y4870256D02*
X8817452Y4834901D01*
X8800482Y4851871D01*
X8835837Y4887227D01*
X8852808Y4870256D01*
D02*
G37*
G36*
X8923518Y4799545D02*
X8888163Y4764190D01*
X8871192Y4781160D01*
X8906548Y4816516D01*
X8923518Y4799545D01*
D02*
G37*
G36*
X8858465Y4748634D02*
X8760884Y4651053D01*
X8767955Y4643982D01*
X8739671Y4615698D01*
X8722700Y4632668D01*
X8742499Y4652467D01*
X8724114Y4670852D01*
X8704315Y4651053D01*
X8687345Y4668023D01*
X8707144Y4687822D01*
X8688759Y4706207D01*
X8668960Y4686408D01*
X8651989Y4703379D01*
X8671788Y4723178D01*
X8653404Y4741563D01*
X8633604Y4721764D01*
X8616634Y4738734D01*
X8644918Y4767018D01*
X8651989Y4759947D01*
X8749570Y4857528D01*
X8858465Y4748634D01*
D02*
G37*
G36*
X8697005Y4529576D02*
X8687005D01*
Y4391576D01*
X8533005D01*
Y4529576D01*
X8523005D01*
Y4569576D01*
X8547005D01*
Y4541576D01*
X8573005D01*
Y4569576D01*
X8597005D01*
Y4541576D01*
X8623005D01*
Y4569576D01*
X8647005D01*
Y4541576D01*
X8673005D01*
Y4569576D01*
X8697005D01*
Y4529576D01*
D02*
G37*
G36*
X8647005Y4309576D02*
X8623005D01*
Y4359576D01*
X8647005D01*
Y4309576D01*
D02*
G37*
G36*
X8547005D02*
X8523005D01*
Y4359576D01*
X8547005D01*
Y4309576D01*
D02*
G37*
G36*
X8881654Y1598858D02*
X8810788D01*
Y1632323D01*
X8881654D01*
Y1598858D01*
D02*
G37*
G36*
X8409212D02*
X8338346D01*
Y1632323D01*
X8409212D01*
Y1598858D01*
D02*
G37*
G36*
X8881654Y1555551D02*
X8810788D01*
Y1589016D01*
X8881654D01*
Y1555551D01*
D02*
G37*
G36*
X8409212D02*
X8338346D01*
Y1589016D01*
X8409212D01*
Y1555551D01*
D02*
G37*
G36*
X8881654Y1512244D02*
X8810788D01*
Y1545709D01*
X8881654D01*
Y1512244D01*
D02*
G37*
G36*
X8409212D02*
X8338346D01*
Y1545709D01*
X8409212D01*
Y1512244D01*
D02*
G37*
G36*
X8881654Y1468937D02*
X8810788D01*
Y1502402D01*
X8881654D01*
Y1468937D01*
D02*
G37*
G36*
X8409212D02*
X8338346D01*
Y1502402D01*
X8409212D01*
Y1468937D01*
D02*
G37*
G36*
X8881654Y1425630D02*
X8810788D01*
Y1459094D01*
X8881654D01*
Y1425630D01*
D02*
G37*
G36*
X8409212D02*
X8338346D01*
Y1459094D01*
X8409212D01*
Y1425630D01*
D02*
G37*
G36*
X8881654Y1307520D02*
X8810788D01*
Y1340984D01*
X8881654D01*
Y1307520D01*
D02*
G37*
G36*
X8409212D02*
X8338346D01*
Y1340984D01*
X8409212D01*
Y1307520D01*
D02*
G37*
G36*
X8881654Y1264213D02*
X8810788D01*
Y1297677D01*
X8881654D01*
Y1264213D01*
D02*
G37*
G36*
X8409212D02*
X8338346D01*
Y1297677D01*
X8409212D01*
Y1264213D01*
D02*
G37*
G36*
X8881654Y1220906D02*
X8810788D01*
Y1254370D01*
X8881654D01*
Y1220906D01*
D02*
G37*
G36*
X8409212D02*
X8338346D01*
Y1254370D01*
X8409212D01*
Y1220906D01*
D02*
G37*
G36*
X8881654Y1177598D02*
X8810788D01*
Y1211063D01*
X8881654D01*
Y1177598D01*
D02*
G37*
G36*
X8409212D02*
X8338346D01*
Y1211063D01*
X8409212D01*
Y1177598D01*
D02*
G37*
G36*
X8881654Y1134291D02*
X8810788D01*
Y1167756D01*
X8881654D01*
Y1134291D01*
D02*
G37*
G36*
X8409212D02*
X8338346D01*
Y1167756D01*
X8409212D01*
Y1134291D01*
D02*
G37*
G36*
X8881654Y1090984D02*
X8810788D01*
Y1124449D01*
X8881654D01*
Y1090984D01*
D02*
G37*
G36*
X8409212D02*
X8338346D01*
Y1124449D01*
X8409212D01*
Y1090984D01*
D02*
G37*
G36*
X8881654Y1047677D02*
X8810788D01*
Y1081142D01*
X8881654D01*
Y1047677D01*
D02*
G37*
G36*
X8409212D02*
X8338346D01*
Y1081142D01*
X8409212D01*
Y1047677D01*
D02*
G37*
D11*
X5395472Y4110000D02*
D03*
X5454528D02*
D03*
X5454528Y3955000D02*
D03*
X5395472D02*
D03*
X9149429Y4730249D02*
D03*
X9090374D02*
D03*
X8895472Y5600000D02*
D03*
X8954528D02*
D03*
X8395472D02*
D03*
X8454528D02*
D03*
X7895472D02*
D03*
X7954528D02*
D03*
X7395472D02*
D03*
X7454528D02*
D03*
X6895472D02*
D03*
X6954528D02*
D03*
X6395472D02*
D03*
X6454528D02*
D03*
X5495472D02*
D03*
X5554528D02*
D03*
X4995472D02*
D03*
X5054528D02*
D03*
X4495472D02*
D03*
X4554528D02*
D03*
X3995472D02*
D03*
X4054528D02*
D03*
X3495472D02*
D03*
X3554528D02*
D03*
X2995472D02*
D03*
X3054528D02*
D03*
X2242172Y2027057D02*
D03*
X2183117D02*
D03*
X7439528Y1970000D02*
D03*
X7380472D02*
D03*
X7939528D02*
D03*
X7880472D02*
D03*
X7940472Y2080000D02*
D03*
X7999528D02*
D03*
X7440472D02*
D03*
X7499528D02*
D03*
X6880472Y1720000D02*
D03*
X6939528D02*
D03*
X6940472Y2080000D02*
D03*
X6999528D02*
D03*
X6880472Y1970000D02*
D03*
X6939528D02*
D03*
X7939528Y1720000D02*
D03*
X7880472D02*
D03*
X7439528D02*
D03*
X7380472D02*
D03*
X2337087Y1805118D02*
D03*
X2278032D02*
D03*
X2337087Y1864554D02*
D03*
X2278032D02*
D03*
X2119528Y1835000D02*
D03*
X2060472D02*
D03*
X2189528Y1900000D02*
D03*
X2130472D02*
D03*
X2700353Y5171089D02*
D03*
X2641298Y5171089D02*
D03*
X8025440Y4023916D02*
D03*
X8084495D02*
D03*
D12*
X5875000Y4350000D02*
D03*
Y4530000D02*
D03*
X5535000D02*
D03*
Y4350000D02*
D03*
D13*
X4970513Y3644487D02*
D03*
X5009487Y3605513D02*
D03*
X4200513Y4134487D02*
D03*
X4239487Y4095513D02*
D03*
X4340513Y4264487D02*
D03*
X4379487Y4225513D02*
D03*
X4570513Y4334487D02*
D03*
X4609487Y4295513D02*
D03*
X2538302Y5025798D02*
D03*
X2577276Y4986824D02*
D03*
D14*
X4664487Y3364487D02*
D03*
X4625513Y3325513D02*
D03*
X4050513Y3745513D02*
D03*
X4089487Y3784487D02*
D03*
X5114487Y4114487D02*
D03*
X5075513Y4075513D02*
D03*
X5189487Y4039487D02*
D03*
X5150513Y4000513D02*
D03*
X4184487Y3584487D02*
D03*
X4145513Y3545513D02*
D03*
X4190513Y3500513D02*
D03*
X4229487Y3539487D02*
D03*
X4864487Y3399487D02*
D03*
X4825513Y3360513D02*
D03*
X4780513Y3405513D02*
D03*
X4819487Y3444487D02*
D03*
D15*
X4630165Y4178553D02*
D03*
X4312802Y3638480D02*
D03*
X4507674Y3443608D02*
D03*
X4493755Y3457527D02*
D03*
X4479835Y3471447D02*
D03*
X4465916Y3485366D02*
D03*
X4451996Y3499285D02*
D03*
X4438077Y3513205D02*
D03*
X4424157Y3527124D02*
D03*
X4410238Y3541044D02*
D03*
X4396319Y3554963D02*
D03*
X4382399Y3568883D02*
D03*
X4368480Y3582802D02*
D03*
X4354560Y3596721D02*
D03*
X4340641Y3610641D02*
D03*
X4326721Y3624560D02*
D03*
X4298883Y3652399D02*
D03*
X4284963Y3666318D02*
D03*
X4271044Y3680238D02*
D03*
X4257124Y3694157D02*
D03*
X4243205Y3708077D02*
D03*
X4229285Y3721996D02*
D03*
X4215366Y3735916D02*
D03*
X4201447Y3749835D02*
D03*
X4187527Y3763755D02*
D03*
X4173608Y3777674D02*
D03*
X4602326Y4206392D02*
D03*
X4616245Y4192473D02*
D03*
X4644084Y4164634D02*
D03*
X4658004Y4150715D02*
D03*
X4671923Y4136795D02*
D03*
X4685842Y4122876D02*
D03*
X4699762Y4108956D02*
D03*
X4713681Y4095037D02*
D03*
X4727601Y4081117D02*
D03*
X4755440Y4053278D02*
D03*
X4769359Y4039359D02*
D03*
X4783279Y4025440D02*
D03*
X4797198Y4011520D02*
D03*
X4811117Y3997601D02*
D03*
X4825037Y3983681D02*
D03*
X4838956Y3969762D02*
D03*
X4852876Y3955843D02*
D03*
X4866795Y3941923D02*
D03*
X4880715Y3928004D02*
D03*
X4894634Y3914084D02*
D03*
X4908553Y3900165D02*
D03*
X4922473Y3886245D02*
D03*
X4936392Y3872326D02*
D03*
X4741520Y4067198D02*
D03*
D16*
X4312802Y4011520D02*
D03*
X4298883Y3997601D02*
D03*
X4284963Y3983681D02*
D03*
X4271044Y3969762D02*
D03*
X4257124Y3955843D02*
D03*
X4243205Y3941923D02*
D03*
X4936392Y3777674D02*
D03*
X4922473Y3763755D02*
D03*
X4908553Y3749835D02*
D03*
X4894634Y3735916D02*
D03*
X4880715Y3721996D02*
D03*
X4866795Y3708077D02*
D03*
X4852876Y3694157D02*
D03*
X4838956Y3680238D02*
D03*
X4825037Y3666318D02*
D03*
X4811117Y3652399D02*
D03*
X4797198Y3638480D02*
D03*
X4783279Y3624560D02*
D03*
X4769359Y3610641D02*
D03*
X4755440Y3596721D02*
D03*
X4741520Y3582802D02*
D03*
X4727601Y3568883D02*
D03*
X4713681Y3554963D02*
D03*
X4699762Y3541044D02*
D03*
X4685843Y3527124D02*
D03*
X4671923Y3513205D02*
D03*
X4658004Y3499285D02*
D03*
X4644084Y3485366D02*
D03*
X4630165Y3471447D02*
D03*
X4616245Y3457527D02*
D03*
X4602326Y3443608D02*
D03*
X4173608Y3872326D02*
D03*
X4187527Y3886245D02*
D03*
X4201447Y3900165D02*
D03*
X4215366Y3914084D02*
D03*
X4229285Y3928004D02*
D03*
X4326721Y4025440D02*
D03*
X4340641Y4039359D02*
D03*
X4354560Y4053278D02*
D03*
X4368480Y4067198D02*
D03*
X4382399Y4081117D02*
D03*
X4396319Y4095037D02*
D03*
X4410238Y4108956D02*
D03*
X4424157Y4122876D02*
D03*
X4438077Y4136795D02*
D03*
X4451996Y4150715D02*
D03*
X4465916Y4164634D02*
D03*
X4479835Y4178553D02*
D03*
X4493755Y4192473D02*
D03*
X4507674Y4206392D02*
D03*
D17*
X1170000Y2125472D02*
D03*
Y2184528D02*
D03*
X8465000Y4472486D02*
D03*
Y4413431D02*
D03*
X9530914Y2764528D02*
D03*
Y2705472D02*
D03*
X7652756Y2127449D02*
D03*
Y2186504D02*
D03*
X7150000Y2114921D02*
D03*
Y2173976D02*
D03*
X6610000Y1925059D02*
D03*
Y1984114D02*
D03*
X3475000Y5445472D02*
D03*
Y5504528D02*
D03*
X3975000Y5445472D02*
D03*
Y5504528D02*
D03*
X4475000Y5445472D02*
D03*
Y5504528D02*
D03*
X4975000Y5445472D02*
D03*
Y5504528D02*
D03*
X5475000Y5445472D02*
D03*
Y5504528D02*
D03*
X6375000Y5445472D02*
D03*
Y5504528D02*
D03*
X6875000Y5445472D02*
D03*
Y5504528D02*
D03*
X7375000Y5445472D02*
D03*
Y5504528D02*
D03*
X7875000Y5445472D02*
D03*
Y5504528D02*
D03*
X8375000Y5445472D02*
D03*
Y5504528D02*
D03*
X8875000Y5445472D02*
D03*
Y5504528D02*
D03*
X2975000Y5445472D02*
D03*
Y5504528D02*
D03*
X2100007Y5529329D02*
D03*
X2100007Y5588384D02*
D03*
X3550000Y2195472D02*
D03*
Y2254528D02*
D03*
X3615000Y2130472D02*
D03*
Y2189528D02*
D03*
X6210000Y5724213D02*
D03*
Y5665158D02*
D03*
X2090000Y3335472D02*
D03*
Y3394528D02*
D03*
X2255000Y3874528D02*
D03*
Y3815472D02*
D03*
D18*
X1250000Y2132441D02*
D03*
Y2187559D02*
D03*
X1610000Y2442441D02*
D03*
Y2497559D02*
D03*
X8585000Y3897441D02*
D03*
Y3952559D02*
D03*
X4238000Y2349141D02*
D03*
Y2404259D02*
D03*
X4181102D02*
D03*
Y2349141D02*
D03*
X7880000Y1872559D02*
D03*
Y1817441D02*
D03*
X7380000Y1872559D02*
D03*
Y1817441D02*
D03*
X7310000Y2027559D02*
D03*
Y1972441D02*
D03*
X7810000Y2027559D02*
D03*
Y1972441D02*
D03*
X6810000Y1717559D02*
D03*
Y1662441D02*
D03*
Y2027559D02*
D03*
Y1972441D02*
D03*
X6880000Y1872559D02*
D03*
Y1817441D02*
D03*
X7810000Y1717559D02*
D03*
Y1662441D02*
D03*
X7310000Y1717559D02*
D03*
Y1662441D02*
D03*
X2550000Y1962441D02*
D03*
Y2017559D02*
D03*
X3020000Y2387559D02*
D03*
Y2332441D02*
D03*
X2505000D02*
D03*
Y2387559D02*
D03*
X3040000Y1892441D02*
D03*
Y1947559D02*
D03*
X3550000Y2047441D02*
D03*
Y2102559D02*
D03*
X3170000Y2082441D02*
D03*
Y2137559D02*
D03*
X4231464Y2120914D02*
D03*
Y2176032D02*
D03*
X3230000Y1892441D02*
D03*
Y1947559D02*
D03*
X1830000Y2332441D02*
D03*
Y2387559D02*
D03*
X9182025Y3704742D02*
D03*
Y3649623D02*
D03*
X9153172Y2147559D02*
D03*
Y2092441D02*
D03*
X1915000Y3292559D02*
D03*
Y3237441D02*
D03*
X2000000Y3292559D02*
D03*
Y3237441D02*
D03*
X2015000Y3857441D02*
D03*
Y3912559D02*
D03*
X1955000Y3857441D02*
D03*
Y3912559D02*
D03*
X2110000Y3877559D02*
D03*
Y3822441D02*
D03*
X1875000Y3852559D02*
D03*
Y3797441D02*
D03*
D19*
X5019506Y4010494D02*
D03*
X5090494Y3939505D02*
D03*
D20*
X4952583Y3562582D02*
D03*
X4877418Y3487418D02*
D03*
D21*
X1648228Y2642402D02*
D03*
Y2605000D02*
D03*
Y2567599D02*
D03*
X1551772D02*
D03*
Y2605000D02*
D03*
Y2642402D02*
D03*
D22*
X5765118Y4060000D02*
D03*
X5604882Y4110000D02*
D03*
Y4060000D02*
D03*
Y4010000D02*
D03*
Y3960000D02*
D03*
Y3910000D02*
D03*
X5765118D02*
D03*
Y4110000D02*
D03*
Y4010000D02*
D03*
Y3960000D02*
D03*
D23*
X4390000Y2285000D02*
D03*
D24*
X4291575Y2216102D02*
D03*
Y2235787D02*
D03*
Y2255472D02*
D03*
Y2275157D02*
D03*
Y2294843D02*
D03*
Y2314528D02*
D03*
Y2334213D02*
D03*
Y2353898D02*
D03*
X4488425D02*
D03*
Y2334213D02*
D03*
Y2314528D02*
D03*
Y2294843D02*
D03*
Y2275157D02*
D03*
Y2255472D02*
D03*
Y2235787D02*
D03*
Y2216102D02*
D03*
D25*
X4321102Y2383425D02*
D03*
X4340787D02*
D03*
X4360472D02*
D03*
X4380158D02*
D03*
X4399842D02*
D03*
X4419528D02*
D03*
X4439213D02*
D03*
X4458898D02*
D03*
Y2186575D02*
D03*
X4439213D02*
D03*
X4419528D02*
D03*
X4399842D02*
D03*
X4380158D02*
D03*
X4360472D02*
D03*
X4340787D02*
D03*
X4321102D02*
D03*
D28*
X8685005Y4334576D02*
D03*
X8585005D02*
D03*
D29*
X8610005Y4466576D02*
D03*
D30*
X8750984Y4750048D02*
D03*
D31*
X8862000Y4825708D02*
D03*
X8791289Y4896419D02*
D03*
D32*
X8585000Y4010827D02*
D03*
Y4239173D02*
D03*
D33*
X8609860Y3677182D02*
D03*
X8464191D02*
D03*
X2242165Y2660000D02*
D03*
X2387835D02*
D03*
D34*
X9079506Y3577025D02*
D03*
Y3757340D02*
D03*
X2612520Y1899842D02*
D03*
Y2080157D02*
D03*
D35*
X8837380Y3667182D02*
D03*
X2854646Y1990000D02*
D03*
D36*
X9216834Y4650327D02*
D03*
X9088094D02*
D03*
D37*
X2322563Y4787764D02*
D03*
X2454797Y4919999D02*
D03*
D38*
X2239897Y4962298D02*
D03*
X2257993Y4980393D02*
D03*
X2276088Y4998488D02*
D03*
X2294183Y5016584D02*
D03*
X2312278Y5034679D02*
D03*
X2330374Y5052774D02*
D03*
X2348469Y5070869D02*
D03*
X2366564Y5088965D02*
D03*
X2384659Y5107060D02*
D03*
X2402755Y5125155D02*
D03*
X2420850Y5143250D02*
D03*
X2438945Y5161346D02*
D03*
X2457040Y5179441D02*
D03*
X2475136Y5197536D02*
D03*
X2493231Y5215631D02*
D03*
X2511326Y5233727D02*
D03*
X1975428Y5226767D02*
D03*
X1993524Y5244862D02*
D03*
X2011619Y5262957D02*
D03*
X2029714Y5281053D02*
D03*
X2047809Y5299148D02*
D03*
X2065905Y5317243D02*
D03*
X2084000Y5335338D02*
D03*
X2102095Y5353434D02*
D03*
X2120190Y5371529D02*
D03*
X2138286Y5389624D02*
D03*
X2156381Y5407720D02*
D03*
X2174476Y5425815D02*
D03*
X2192571Y5443910D02*
D03*
X2210667Y5462005D02*
D03*
X2228762Y5480100D02*
D03*
X2246857Y5498196D02*
D03*
D39*
X4350000Y2066575D02*
D03*
X4294882D02*
D03*
X4294877Y2118757D02*
D03*
X4349995D02*
D03*
X9403472Y2590000D02*
D03*
X9348354D02*
D03*
X7172441Y1675000D02*
D03*
X7227559D02*
D03*
X6672441D02*
D03*
X6727559D02*
D03*
X7672441D02*
D03*
X7727559D02*
D03*
X2022559Y1900000D02*
D03*
X1967441D02*
D03*
X2842441Y4594684D02*
D03*
X2897559D02*
D03*
X3052666Y4584665D02*
D03*
X2997548D02*
D03*
X3112441Y1950000D02*
D03*
X3167559D02*
D03*
X3122441Y2195000D02*
D03*
X3177559D02*
D03*
X1964201Y2271220D02*
D03*
X1909083D02*
D03*
X1772441Y2270000D02*
D03*
X1827559D02*
D03*
X4322441Y2475000D02*
D03*
X4377559D02*
D03*
X9024466Y3847182D02*
D03*
X9079584D02*
D03*
X8627144Y3572182D02*
D03*
X8572025D02*
D03*
X8964466Y3482182D02*
D03*
X9019584D02*
D03*
X8164223Y4238757D02*
D03*
X8109105D02*
D03*
X9227559Y2395000D02*
D03*
X9172441D02*
D03*
X2287441Y3540000D02*
D03*
X2342559D02*
D03*
X2287441Y3605000D02*
D03*
X2342559D02*
D03*
X1877559Y3675000D02*
D03*
X1822441D02*
D03*
X1877559Y3735000D02*
D03*
X1822441D02*
D03*
D40*
X9218394Y2810000D02*
D03*
Y2760000D02*
D03*
Y2710000D02*
D03*
Y2660000D02*
D03*
X9403433Y2810000D02*
D03*
Y2760000D02*
D03*
Y2710000D02*
D03*
Y2660000D02*
D03*
X8162480Y4175000D02*
D03*
Y4125000D02*
D03*
Y4075000D02*
D03*
Y4025000D02*
D03*
X8347520Y4175000D02*
D03*
Y4125000D02*
D03*
Y4075000D02*
D03*
Y4025000D02*
D03*
D41*
X1775000Y1977716D02*
D03*
X1825000D02*
D03*
X1875000D02*
D03*
X1925000D02*
D03*
X1775000Y2192283D02*
D03*
X1825000D02*
D03*
X1875000D02*
D03*
X1925000D02*
D03*
D42*
X1850000Y2085000D02*
D03*
D43*
X7691614Y1753307D02*
D03*
X7717205D02*
D03*
X7742795D02*
D03*
X7768386D02*
D03*
X7691614Y1916693D02*
D03*
X7717205D02*
D03*
X7742795D02*
D03*
X7768386D02*
D03*
X7191614Y1753307D02*
D03*
X7217205D02*
D03*
X7242795D02*
D03*
X7268386D02*
D03*
X7191614Y1916693D02*
D03*
X7217205D02*
D03*
X7242795D02*
D03*
X7268386D02*
D03*
X6768386D02*
D03*
X6742795D02*
D03*
X6717205D02*
D03*
X6691614D02*
D03*
X6768386Y1753307D02*
D03*
X6742795D02*
D03*
X6717205D02*
D03*
X6691614D02*
D03*
D44*
X3550000Y5430551D02*
D03*
Y5499449D02*
D03*
X4050000Y5430551D02*
D03*
Y5499449D02*
D03*
X4550000Y5430551D02*
D03*
Y5499449D02*
D03*
X5050000Y5430551D02*
D03*
Y5499449D02*
D03*
X5550000Y5430551D02*
D03*
Y5499449D02*
D03*
X6450000Y5430551D02*
D03*
Y5499449D02*
D03*
X6950000Y5430551D02*
D03*
Y5499449D02*
D03*
X7450000Y5430551D02*
D03*
Y5499449D02*
D03*
X7950000Y5430551D02*
D03*
Y5499449D02*
D03*
X8450000Y5430551D02*
D03*
Y5499449D02*
D03*
X8950000Y5430551D02*
D03*
Y5499449D02*
D03*
X3050000Y5430551D02*
D03*
Y5499449D02*
D03*
D45*
X1926098Y5482400D02*
D03*
Y5669408D02*
D03*
D46*
X2341314Y5531680D02*
D03*
X2299556Y5573438D02*
D03*
X2569450Y5311338D02*
D03*
X2611209Y5269580D02*
D03*
X2596764Y5127702D02*
D03*
X2638522Y5085944D02*
D03*
X1960200Y5124515D02*
D03*
X1918442Y5166273D02*
D03*
D47*
X3047744Y4662893D02*
D03*
Y4688484D02*
D03*
Y4714074D02*
D03*
Y4739665D02*
D03*
Y4765255D02*
D03*
Y4790846D02*
D03*
Y4816436D02*
D03*
X2825303Y4662893D02*
D03*
Y4688484D02*
D03*
Y4714074D02*
D03*
Y4739665D02*
D03*
Y4765255D02*
D03*
Y4790846D02*
D03*
Y4816436D02*
D03*
D48*
X3365000Y2165000D02*
D03*
D49*
X3257717Y2240000D02*
D03*
Y2190000D02*
D03*
Y2140000D02*
D03*
Y2090000D02*
D03*
X3472284Y2240000D02*
D03*
Y2190000D02*
D03*
Y2140000D02*
D03*
Y2090000D02*
D03*
D50*
X3160000Y2375000D02*
D03*
Y2345000D02*
D03*
D51*
X1908268Y3431496D02*
D03*
X1991732D02*
D03*
Y3368504D02*
D03*
X1908268D02*
D03*
D52*
X9055000Y1900000D02*
D03*
X8503819D02*
D03*
Y1970866D02*
D03*
Y2041732D02*
D03*
Y2112598D02*
D03*
Y2183465D02*
D03*
Y2254331D02*
D03*
Y2325197D02*
D03*
Y2396063D02*
D03*
X9055000D02*
D03*
Y2325197D02*
D03*
Y2254331D02*
D03*
Y2183465D02*
D03*
Y2112598D02*
D03*
Y2041732D02*
D03*
Y1970866D02*
D03*
D53*
X1137126Y4189567D02*
D03*
X1182402Y4703346D02*
D03*
D54*
X1700118Y4419882D02*
D03*
Y4644291D02*
D03*
D55*
X1294606Y4676181D02*
D03*
Y4632874D02*
D03*
X1286732Y4589567D02*
D03*
X1294606Y4546260D02*
D03*
X1286732Y4502953D02*
D03*
X1294606Y4459646D02*
D03*
X1310354Y4416339D02*
D03*
X1294606Y4373032D02*
D03*
D57*
X2020787Y3691319D02*
D03*
X2040472D02*
D03*
X2060157D02*
D03*
X2079843D02*
D03*
X2099528D02*
D03*
X2119213D02*
D03*
Y3538681D02*
D03*
X2099528D02*
D03*
X2079843D02*
D03*
X2060157D02*
D03*
X2040472D02*
D03*
X2020787D02*
D03*
D58*
X2146319Y3664213D02*
D03*
Y3644528D02*
D03*
Y3624843D02*
D03*
Y3605157D02*
D03*
Y3585472D02*
D03*
Y3565787D02*
D03*
X1993681D02*
D03*
Y3585472D02*
D03*
Y3605157D02*
D03*
Y3624843D02*
D03*
Y3644528D02*
D03*
D59*
Y3664213D02*
D03*
D60*
X2185000Y3866653D02*
D03*
Y3823347D02*
D03*
D187*
X8913386Y5741831D02*
D03*
X8863386Y5741831D02*
D03*
X8413386Y5741831D02*
D03*
X8363386Y5741831D02*
D03*
X7913386Y5741831D02*
D03*
X7863386Y5741831D02*
D03*
X7413386Y5741831D02*
D03*
X7363386Y5741831D02*
D03*
X6913386Y5741831D02*
D03*
X6863386Y5741831D02*
D03*
X6413386Y5741831D02*
D03*
X6363386Y5741831D02*
D03*
X5513386Y5741831D02*
D03*
X5463386Y5741831D02*
D03*
X5013386Y5741831D02*
D03*
X4963386Y5741831D02*
D03*
X4513386Y5741831D02*
D03*
X4463386Y5741831D02*
D03*
X4013386Y5741831D02*
D03*
X3963386Y5741831D02*
D03*
X3513386Y5741831D02*
D03*
X3463386Y5741831D02*
D03*
X3013386Y5741831D02*
D03*
X2963386Y5741831D02*
D03*
D188*
X8926774Y5787991D02*
D03*
X8901181Y5787989D02*
D03*
X8875591D02*
D03*
X8850003Y5787992D02*
D03*
X8426774Y5787991D02*
D03*
X8401181Y5787989D02*
D03*
X8375591D02*
D03*
X8350003Y5787992D02*
D03*
X7926774Y5787991D02*
D03*
X7901181Y5787989D02*
D03*
X7875591D02*
D03*
X7850003Y5787992D02*
D03*
X7426774Y5787991D02*
D03*
X7401181Y5787989D02*
D03*
X7375591D02*
D03*
X7350003Y5787992D02*
D03*
X6926774Y5787991D02*
D03*
X6901181Y5787989D02*
D03*
X6875591D02*
D03*
X6850003Y5787992D02*
D03*
X6426774Y5787991D02*
D03*
X6401181Y5787989D02*
D03*
X6375591D02*
D03*
X6350003Y5787992D02*
D03*
X5526774Y5787991D02*
D03*
X5501181Y5787989D02*
D03*
X5475591D02*
D03*
X5450003Y5787992D02*
D03*
X5026774Y5787991D02*
D03*
X5001181Y5787989D02*
D03*
X4975591D02*
D03*
X4950003Y5787992D02*
D03*
X4526774Y5787991D02*
D03*
X4501181Y5787989D02*
D03*
X4475591D02*
D03*
X4450003Y5787992D02*
D03*
X4026774Y5787991D02*
D03*
X4001181Y5787989D02*
D03*
X3975590D02*
D03*
X3950003Y5787992D02*
D03*
X3526774Y5787991D02*
D03*
X3501181Y5787989D02*
D03*
X3475590D02*
D03*
X3450003Y5787992D02*
D03*
X3026774Y5787991D02*
D03*
X3001181Y5787989D02*
D03*
X2975590D02*
D03*
X2950003Y5787992D02*
D03*
D189*
X2070000Y3615000D02*
D03*
D190*
X8901181Y5675000D02*
D03*
X8926772D02*
D03*
X8875591D02*
D03*
X8850000D02*
D03*
X8401181D02*
D03*
X8426772D02*
D03*
X8375591D02*
D03*
X8350000D02*
D03*
X7901181D02*
D03*
X7926772D02*
D03*
X7875591D02*
D03*
X7850000D02*
D03*
X7401181D02*
D03*
X7426772D02*
D03*
X7375591D02*
D03*
X7350000D02*
D03*
X6901181D02*
D03*
X6926772D02*
D03*
X6875591D02*
D03*
X6850000D02*
D03*
X6401181D02*
D03*
X6426772D02*
D03*
X6375591D02*
D03*
X6350000D02*
D03*
X5501181D02*
D03*
X5526772D02*
D03*
X5475591D02*
D03*
X5450000D02*
D03*
X5001181D02*
D03*
X5026772D02*
D03*
X4975591D02*
D03*
X4950000D02*
D03*
X4501181D02*
D03*
X4526772D02*
D03*
X4475591D02*
D03*
X4450000D02*
D03*
X4001181D02*
D03*
X4026772D02*
D03*
X3975591D02*
D03*
X3950000D02*
D03*
X3501181D02*
D03*
X3526772D02*
D03*
X3475591D02*
D03*
X3450000D02*
D03*
X3001181D02*
D03*
X3026772D02*
D03*
X2975591D02*
D03*
X2950000D02*
D03*
%TF.MD5,ddadd48460411179b9f26f6daea1c462*%
M02*
