%TF.GenerationSoftware,Altium Limited,Altium Designer,22.3.1 (43)*%
G04 Layer_Color=32896*
%FSLAX26Y26*%
%MOIN*%
%TF.SameCoordinates,8280E445-5C4D-48E8-A53F-9B01841AA427*%
%TF.FilePolarity,Positive*%
%TF.FileFunction,Legend,Bot*%
%TF.Part,Single*%
G01*
G75*
%TA.AperFunction,NonConductor*%
%ADD178C,0.023622*%
%ADD179C,0.009842*%
%ADD180C,0.007874*%
%ADD181C,0.010000*%
%ADD182C,0.003937*%
%ADD183C,0.005000*%
%ADD229C,0.015748*%
D178*
X2679683Y2233467D02*
G03*
X2679683Y2233467I-11811J0D01*
G01*
D179*
X2755471Y2282876D02*
G03*
X2755471Y2282876I-4921J0D01*
G01*
X2821260Y1581102D02*
G03*
X2821260Y1581102I-4921J0D01*
G01*
X3354921Y1284252D02*
G03*
X3354921Y1284252I-4921J0D01*
G01*
X3821260Y1581102D02*
G03*
X3821260Y1581102I-4921J0D01*
G01*
X4354921Y1284252D02*
G03*
X4354921Y1284252I-4921J0D01*
G01*
X4821260Y1581102D02*
G03*
X4821260Y1581102I-4921J0D01*
G01*
X5354921Y1284252D02*
G03*
X5354921Y1284252I-4921J0D01*
G01*
X5821260Y1581102D02*
G03*
X5821260Y1581102I-4921J0D01*
G01*
X6354921Y1284252D02*
G03*
X6354921Y1284252I-4921J0D01*
G01*
X8205780Y4559033D02*
G03*
X8205780Y4559033I-4921J0D01*
G01*
X9197244Y5594291D02*
G03*
X9197244Y5594291I-4921J0D01*
G01*
X8697244D02*
G03*
X8697244Y5594291I-4921J0D01*
G01*
X8197244D02*
G03*
X8197244Y5594291I-4921J0D01*
G01*
X7697244D02*
G03*
X7697244Y5594291I-4921J0D01*
G01*
X7197244D02*
G03*
X7197244Y5594291I-4921J0D01*
G01*
X6697244D02*
G03*
X6697244Y5594291I-4921J0D01*
G01*
X5797244D02*
G03*
X5797244Y5594291I-4921J0D01*
G01*
X5297244D02*
G03*
X5297244Y5594291I-4921J0D01*
G01*
X4797244D02*
G03*
X4797244Y5594291I-4921J0D01*
G01*
X4297244D02*
G03*
X4297244Y5594291I-4921J0D01*
G01*
X3797244D02*
G03*
X3797244Y5594291I-4921J0D01*
G01*
X3297244D02*
G03*
X3297244Y5594291I-4921J0D01*
G01*
X8062025Y3567928D02*
G03*
X8062025Y3567928I-4921J0D01*
G01*
X2268386Y1905512D02*
G03*
X2268386Y1905512I-4921J0D01*
G01*
X2134173Y1589153D02*
G03*
X2134173Y1589153I-4921J0D01*
G01*
X2156075Y1588252D02*
G03*
X2156075Y1588252I-4921J0D01*
G01*
X2015276Y2028228D02*
G03*
X2015276Y2028228I-4921J0D01*
G01*
X1964685Y1487599D02*
G03*
X1964685Y1487599I-4921J0D01*
G01*
X1738386Y1905512D02*
G03*
X1738386Y1905512I-4921J0D01*
G01*
X1485276Y2028228D02*
G03*
X1485276Y2028228I-4921J0D01*
G01*
X1633465Y1589153D02*
G03*
X1633465Y1589153I-4921J0D01*
G01*
X1614173D02*
G03*
X1614173Y1589153I-4921J0D01*
G01*
X2854921Y1284252D02*
G03*
X2854921Y1284252I-4921J0D01*
G01*
X3854921D02*
G03*
X3854921Y1284252I-4921J0D01*
G01*
X4854921D02*
G03*
X4854921Y1284252I-4921J0D01*
G01*
X5854921D02*
G03*
X5854921Y1284252I-4921J0D01*
G01*
X1524172Y1347835D02*
G03*
X1524172Y1347835I-4921J0D01*
G01*
D180*
X1865354Y3361063D02*
X1877165D01*
X1865354Y3388622D02*
X1877165D01*
X8223469Y4192970D02*
Y4197891D01*
Y4067970D02*
Y4072891D01*
X8093548Y4192970D02*
Y4197891D01*
Y4067970D02*
Y4072891D01*
X8204178Y4197891D02*
X8223469D01*
X8093548D02*
X8112839D01*
X8204178Y4067970D02*
X8223469D01*
X8093548D02*
X8112839D01*
X9097205Y1391063D02*
Y1398937D01*
X9122795Y1391063D02*
Y1398937D01*
X9036220Y1389094D02*
Y1400906D01*
X9063780Y1389094D02*
Y1400906D01*
X2581258Y2075987D02*
X2707242D01*
X2581258Y2272837D02*
X2707242D01*
X2581258Y2075987D02*
Y2272837D01*
X2707242Y2075987D02*
Y2272837D01*
X2561220Y1594094D02*
Y1605906D01*
X2588780Y1594094D02*
Y1605906D01*
X2873425Y1587008D02*
Y1712992D01*
X2926575Y1587008D02*
Y1712992D01*
X2873425Y1587008D02*
X2926575D01*
X2873425Y1712992D02*
X2926575D01*
X2940945Y1334449D02*
Y1515551D01*
X3059055Y1334449D02*
Y1515551D01*
X3163780Y1594094D02*
Y1605906D01*
X3136220Y1594094D02*
Y1605906D01*
X3237795Y1596063D02*
Y1603937D01*
X3212205Y1596063D02*
Y1603937D01*
X3405118Y1336417D02*
Y1513583D01*
X3294882Y1336417D02*
Y1513583D01*
X3399213Y1336417D02*
X3405118D01*
X3399213Y1513583D02*
X3405118D01*
X3294882Y1336417D02*
X3300787D01*
X3294882Y1513583D02*
X3300787D01*
X3561220Y1594094D02*
Y1605906D01*
X3588780Y1594094D02*
Y1605906D01*
X3940945Y1334449D02*
Y1515551D01*
X4059055Y1334449D02*
Y1515551D01*
X3873425Y1587008D02*
Y1712992D01*
X3926575Y1587008D02*
Y1712992D01*
X3873425Y1587008D02*
X3926575D01*
X3873425Y1712992D02*
X3926575D01*
X4163780Y1594094D02*
Y1605906D01*
X4136221Y1594094D02*
Y1605906D01*
X4237795Y1596063D02*
Y1603937D01*
X4212205Y1596063D02*
Y1603937D01*
X4405118Y1336417D02*
Y1513583D01*
X4294882Y1336417D02*
Y1513583D01*
X4399213Y1336417D02*
X4405118D01*
X4399213Y1513583D02*
X4405118D01*
X4294882Y1336417D02*
X4300787D01*
X4294882Y1513583D02*
X4300787D01*
X4561220Y1594094D02*
Y1605906D01*
X4588779Y1594094D02*
Y1605906D01*
X4940945Y1334449D02*
Y1515551D01*
X5059055Y1334449D02*
Y1515551D01*
X4873425Y1587008D02*
Y1712992D01*
X4926575Y1587008D02*
Y1712992D01*
X4873425Y1587008D02*
X4926575D01*
X4873425Y1712992D02*
X4926575D01*
X5163780Y1594094D02*
Y1605906D01*
X5136221Y1594094D02*
Y1605906D01*
X5237795Y1596063D02*
Y1603937D01*
X5212205Y1596063D02*
Y1603937D01*
X5405118Y1336417D02*
Y1513583D01*
X5294882Y1336417D02*
Y1513583D01*
X5399213Y1336417D02*
X5405118D01*
X5399213Y1513583D02*
X5405118D01*
X5294882Y1336417D02*
X5300787D01*
X5294882Y1513583D02*
X5300787D01*
X5561220Y1594094D02*
Y1605906D01*
X5588779Y1594094D02*
Y1605906D01*
X5873425Y1587008D02*
Y1712992D01*
X5926575Y1587008D02*
Y1712992D01*
X5873425Y1587008D02*
X5926575D01*
X5873425Y1712992D02*
X5926575D01*
X5940945Y1334449D02*
Y1515551D01*
X6059055Y1334449D02*
Y1515551D01*
X6163780Y1594094D02*
Y1605906D01*
X6136221Y1594094D02*
Y1605906D01*
X6237795Y1596063D02*
Y1603937D01*
X6212205Y1596063D02*
Y1603937D01*
X6405118Y1336417D02*
Y1513583D01*
X6294882Y1336417D02*
Y1513583D01*
X6399213Y1336417D02*
X6405118D01*
X6399213Y1513583D02*
X6405118D01*
X6294882Y1336417D02*
X6300787D01*
X6294882Y1513583D02*
X6300787D01*
X8308818Y4158521D02*
X8316692D01*
X8308818Y4184112D02*
X8316692D01*
X8189094Y4266221D02*
X8200906D01*
X8189094Y4293780D02*
X8200906D01*
X8253301Y4347268D02*
Y4355142D01*
Y4347268D02*
X8363538D01*
Y4355142D01*
Y4402386D02*
Y4410260D01*
X8253301D02*
X8363538D01*
X8253301Y4402386D02*
Y4410260D01*
X7822041Y4539772D02*
Y4547646D01*
Y4539772D02*
X7932277D01*
Y4547646D01*
Y4594890D02*
Y4602764D01*
X7822041D02*
X7932277D01*
X7822041Y4594890D02*
Y4602764D01*
X8083514Y4504899D02*
X8095325D01*
X8083514Y4477340D02*
X8095325D01*
X8128074Y4392539D02*
X8139885D01*
X8128074Y4364980D02*
X8139885D01*
X8083511Y4558231D02*
X8095322D01*
X8083511Y4585790D02*
X8095322D01*
X8301646Y4491120D02*
X8333142D01*
Y4522616D01*
X8215032Y4491120D02*
X8246528D01*
X8215032D02*
Y4522616D01*
X8883268Y5550984D02*
X9166732D01*
X8883268Y5799016D02*
X9166732D01*
X8883268Y5550984D02*
Y5600197D01*
X9166732Y5550984D02*
Y5600197D01*
X8883268Y5749803D02*
Y5799016D01*
X9166732Y5749803D02*
Y5799016D01*
X8383268Y5550984D02*
X8666732D01*
X8383268Y5799016D02*
X8666732D01*
X8383268Y5550984D02*
Y5600197D01*
X8666732Y5550984D02*
Y5600197D01*
X8383268Y5749803D02*
Y5799016D01*
X8666732Y5749803D02*
Y5799016D01*
X7883268Y5550984D02*
X8166732D01*
X7883268Y5799016D02*
X8166732D01*
X7883268Y5550984D02*
Y5600197D01*
X8166732Y5550984D02*
Y5600197D01*
X7883268Y5749803D02*
Y5799016D01*
X8166732Y5749803D02*
Y5799016D01*
X7383268Y5550984D02*
X7666732D01*
X7383268Y5799016D02*
X7666732D01*
X7383268Y5550984D02*
Y5600197D01*
X7666732Y5550984D02*
Y5600197D01*
X7383268Y5749803D02*
Y5799016D01*
X7666732Y5749803D02*
Y5799016D01*
X6883268Y5550984D02*
X7166732D01*
X6883268Y5799016D02*
X7166732D01*
X6883268Y5550984D02*
Y5600197D01*
X7166732Y5550984D02*
Y5600197D01*
X6883268Y5749803D02*
Y5799016D01*
X7166732Y5749803D02*
Y5799016D01*
X6383268Y5550984D02*
X6666732D01*
X6383268Y5799016D02*
X6666732D01*
X6383268Y5550984D02*
Y5600197D01*
X6666732Y5550984D02*
Y5600197D01*
X6383268Y5749803D02*
Y5799016D01*
X6666732Y5749803D02*
Y5799016D01*
X5483268Y5550984D02*
X5766732D01*
X5483268Y5799016D02*
X5766732D01*
X5483268Y5550984D02*
Y5600197D01*
X5766732Y5550984D02*
Y5600197D01*
X5483268Y5749803D02*
Y5799016D01*
X5766732Y5749803D02*
Y5799016D01*
X4983268Y5550984D02*
X5266732D01*
X4983268Y5799016D02*
X5266732D01*
X4983268Y5550984D02*
Y5600197D01*
X5266732Y5550984D02*
Y5600197D01*
X4983268Y5749803D02*
Y5799016D01*
X5266732Y5749803D02*
Y5799016D01*
X4483268Y5550984D02*
X4766732D01*
X4483268Y5799016D02*
X4766732D01*
X4483268Y5550984D02*
Y5600197D01*
X4766732Y5550984D02*
Y5600197D01*
X4483268Y5749803D02*
Y5799016D01*
X4766732Y5749803D02*
Y5799016D01*
X3983268Y5550984D02*
X4266732D01*
X3983268Y5799016D02*
X4266732D01*
X3983268Y5550984D02*
Y5600197D01*
X4266732Y5550984D02*
Y5600197D01*
X3983268Y5749803D02*
Y5799016D01*
X4266732Y5749803D02*
Y5799016D01*
X3483268Y5550984D02*
X3766732D01*
X3483268Y5799016D02*
X3766732D01*
X3483268Y5550984D02*
Y5600197D01*
X3766732Y5550984D02*
Y5600197D01*
X3483268Y5749803D02*
Y5799016D01*
X3766732Y5749803D02*
Y5799016D01*
X2983268Y5550984D02*
X3266732D01*
X2983268Y5799016D02*
X3266732D01*
X2983268Y5550984D02*
Y5600197D01*
X3266732Y5550984D02*
Y5600197D01*
X2983268Y5749803D02*
Y5799016D01*
X3266732Y5749803D02*
Y5799016D01*
X8069134Y4266221D02*
X8080945D01*
X8069134Y4293780D02*
X8080945D01*
X7951520Y4292794D02*
X7959394D01*
X7951520Y4267203D02*
X7959394D01*
X7998425Y4202502D02*
X8006299D01*
X7998425Y4228092D02*
X8006299D01*
X2156063Y1812205D02*
X2163937D01*
X2156063Y1837795D02*
X2163937D01*
X8269230Y3690881D02*
Y3698755D01*
X8294821Y3690881D02*
Y3698755D01*
X8174230Y3690881D02*
Y3698755D01*
X8199821Y3690881D02*
Y3698755D01*
X8315962Y3386825D02*
Y3512810D01*
X8058088Y3386825D02*
Y3512810D01*
Y3386825D02*
X8315962D01*
X8058088Y3512810D02*
X8315962D01*
X7949080Y3307205D02*
X7956954D01*
X7949080Y3332795D02*
X7956954D01*
X9159749Y4304465D02*
X9313292D01*
X9159749Y4428481D02*
X9313292D01*
X9443132Y5167798D02*
Y5179609D01*
X9415573Y5167798D02*
Y5179609D01*
X2858816Y2245436D02*
Y2257247D01*
X2886375Y2245436D02*
Y2257247D01*
X2056575Y1964567D02*
Y2035433D01*
X2253425Y1964567D02*
Y2035433D01*
X2056575D02*
X2253425D01*
X2056575Y1964567D02*
X2253425D01*
X2051220Y1734094D02*
Y1745906D01*
X2078780Y1734094D02*
Y1745906D01*
X2171220Y1729094D02*
Y1740906D01*
X2198780Y1729094D02*
Y1740906D01*
X2358583Y1638365D02*
Y1644271D01*
X2181417Y1638365D02*
Y1644271D01*
X2358583Y1534035D02*
Y1539940D01*
X2181417Y1534035D02*
Y1539940D01*
Y1644271D02*
X2358583D01*
X2181417Y1534035D02*
X2358583D01*
X1921823Y1533134D02*
Y1539040D01*
X2098988Y1533134D02*
Y1539040D01*
X1921823Y1637465D02*
Y1643370D01*
X2098988Y1637465D02*
Y1643370D01*
X1921823Y1533134D02*
X2098988D01*
X1921823Y1643370D02*
X2098988D01*
X1942441Y1895945D02*
Y1927441D01*
Y1895945D02*
X1973937D01*
X1942441Y1982559D02*
Y2014055D01*
X1973937D01*
X2008976Y1258268D02*
X2014882D01*
X2008976Y1435433D02*
X2014882D01*
X1904646Y1258268D02*
X1910551D01*
X1904646Y1435433D02*
X1910551D01*
X2014882Y1258268D02*
Y1435433D01*
X1904646Y1258268D02*
Y1435433D01*
X2026063Y1837795D02*
X2033937D01*
X2026063Y1812205D02*
X2033937D01*
X2276063Y1837795D02*
X2283937D01*
X2276063Y1812205D02*
X2283937D01*
X1862795Y1416063D02*
Y1423937D01*
X1837205Y1416063D02*
Y1423937D01*
X1526575Y1964567D02*
Y2035433D01*
X1723425Y1964567D02*
Y2035433D01*
X1526575D02*
X1723425D01*
X1526575Y1964567D02*
X1723425D01*
X1496063Y1837795D02*
X1503937D01*
X1496063Y1812205D02*
X1503937D01*
X1746063Y1837795D02*
X1753937D01*
X1746063Y1812205D02*
X1753937D01*
X1626063Y1837795D02*
X1633937D01*
X1626063Y1812205D02*
X1633937D01*
X1412441Y1895945D02*
Y1927441D01*
Y1895945D02*
X1443937D01*
X1412441Y1982559D02*
Y2014055D01*
X1443937D01*
X1641289Y1734094D02*
Y1745906D01*
X1668848Y1734094D02*
Y1745906D01*
X1521220Y1734094D02*
Y1745906D01*
X1548780Y1734094D02*
Y1745906D01*
X1439094Y2056220D02*
X1450906D01*
X1439094Y2083780D02*
X1450906D01*
X1399213Y1534035D02*
Y1539940D01*
X1576378Y1534035D02*
Y1539940D01*
X1399213Y1638365D02*
Y1644271D01*
X1576378Y1638365D02*
Y1644271D01*
X1399213Y1534035D02*
X1576378D01*
X1399213Y1644271D02*
X1576378D01*
X1838583Y1638365D02*
Y1644271D01*
X1661417Y1638365D02*
Y1644271D01*
X1838583Y1534035D02*
Y1539940D01*
X1661417Y1534035D02*
Y1539940D01*
Y1644271D02*
X1838583D01*
X1661417Y1534035D02*
X1838583D01*
X2559055Y1334449D02*
Y1515551D01*
X2440945Y1334449D02*
Y1515551D01*
X2794882Y1513583D02*
X2800787D01*
X2794882Y1336417D02*
X2800787D01*
X2899213Y1513583D02*
X2905118D01*
X2899213Y1336417D02*
X2905118D01*
X2794882D02*
Y1513583D01*
X2905118Y1336417D02*
Y1513583D01*
X3088780Y1594094D02*
Y1605906D01*
X3061220Y1594094D02*
Y1605906D01*
X2712205Y1596063D02*
Y1603937D01*
X2737795Y1596063D02*
Y1603937D01*
X2636220Y1594094D02*
Y1605906D01*
X2663780Y1594094D02*
Y1605906D01*
X3559055Y1334449D02*
Y1515551D01*
X3440945Y1334449D02*
Y1515551D01*
X3794882Y1513583D02*
X3800787D01*
X3794882Y1336417D02*
X3800787D01*
X3899213Y1513583D02*
X3905118D01*
X3899213Y1336417D02*
X3905118D01*
X3794882D02*
Y1513583D01*
X3905118Y1336417D02*
Y1513583D01*
X4088780Y1594094D02*
Y1605906D01*
X4061220Y1594094D02*
Y1605906D01*
X3712205Y1596063D02*
Y1603937D01*
X3737795Y1596063D02*
Y1603937D01*
X3636220Y1594094D02*
Y1605906D01*
X3663780Y1594094D02*
Y1605906D01*
X2696063Y1737795D02*
X2703937D01*
X2696063Y1712205D02*
X2703937D01*
X3696063Y1737795D02*
X3703937D01*
X3696063Y1712205D02*
X3703937D01*
X4559055Y1334449D02*
Y1515551D01*
X4440945Y1334449D02*
Y1515551D01*
X4794882Y1513583D02*
X4800787D01*
X4794882Y1336417D02*
X4800787D01*
X4899213Y1513583D02*
X4905118D01*
X4899213Y1336417D02*
X4905118D01*
X4794882D02*
Y1513583D01*
X4905118Y1336417D02*
Y1513583D01*
X4712205Y1596063D02*
Y1603937D01*
X4737795Y1596063D02*
Y1603937D01*
X4636221Y1594094D02*
Y1605906D01*
X4663780Y1594094D02*
Y1605906D01*
X5559055Y1334449D02*
Y1515551D01*
X5440945Y1334449D02*
Y1515551D01*
X5794882Y1513583D02*
X5800787D01*
X5794882Y1336417D02*
X5800787D01*
X5899213Y1513583D02*
X5905118D01*
X5899213Y1336417D02*
X5905118D01*
X5794882D02*
Y1513583D01*
X5905118Y1336417D02*
Y1513583D01*
X5088779Y1594094D02*
Y1605906D01*
X5061220Y1594094D02*
Y1605906D01*
X5636221Y1594094D02*
Y1605906D01*
X5663780Y1594094D02*
Y1605906D01*
X5712205Y1596063D02*
Y1603937D01*
X5737795Y1596063D02*
Y1603937D01*
X4696063Y1737795D02*
X4703937D01*
X4696063Y1712205D02*
X4703937D01*
X6088779Y1594094D02*
Y1605906D01*
X6061220Y1594094D02*
Y1605906D01*
X5696063Y1737795D02*
X5703937D01*
X5696063Y1712205D02*
X5703937D01*
X2351949Y5234422D02*
X2402059Y5284532D01*
X2261472Y5324899D02*
X2311582Y5375009D01*
X9619978Y4935198D02*
Y5116300D01*
X9501868Y4935198D02*
Y5116300D01*
X2898190Y2162519D02*
X2910001D01*
X2898190Y2134960D02*
X2910001D01*
X5352756Y1663780D02*
Y1675591D01*
X5325197Y1663780D02*
Y1675591D01*
X5384719Y1663785D02*
Y1675596D01*
X5412278Y1663785D02*
Y1675596D01*
X2603150Y2338347D02*
X2611024D01*
X2603150Y2312756D02*
X2611024D01*
X9438133Y5037105D02*
Y5048916D01*
X9410574Y5037105D02*
Y5048916D01*
X3244094Y3243780D02*
X3255905D01*
X3244094Y3216220D02*
X3255905D01*
X2979094Y3248780D02*
X2990905D01*
X2979094Y3221220D02*
X2990905D01*
X2714094Y3216220D02*
X2725905D01*
X2714094Y3243780D02*
X2725905D01*
X3514094D02*
X3525905D01*
X3514094Y3216220D02*
X3525905D01*
X1464133Y1118504D02*
Y1295669D01*
X1574369Y1118504D02*
Y1295669D01*
X1464133D02*
X1470038D01*
X1464133Y1118504D02*
X1470038D01*
X1568463Y1295669D02*
X1574369D01*
X1568463Y1118504D02*
X1574369D01*
X1372795Y1476063D02*
Y1483937D01*
X1347205Y1476063D02*
Y1483937D01*
X1459094Y4291220D02*
X1470906D01*
X1459094Y4318779D02*
X1470906D01*
X1459094Y4361220D02*
X1470906D01*
X1459094Y4388779D02*
X1470906D01*
X1459094Y4631220D02*
X1470906D01*
X1459094Y4658779D02*
X1470906D01*
X1459094Y4436220D02*
X1470906D01*
X1459094Y4463779D02*
X1470906D01*
X1459094Y4696220D02*
X1470906D01*
X1459094Y4723779D02*
X1470906D01*
X1461063Y4557795D02*
X1468937D01*
X1461063Y4532205D02*
X1468937D01*
X1281063Y4557795D02*
X1288937D01*
X1281063Y4532205D02*
X1288937D01*
X1467795Y3336063D02*
Y3343937D01*
X1442205Y3336063D02*
Y3343937D01*
X1642205Y3641063D02*
Y3648937D01*
X1667795Y3641063D02*
Y3648937D01*
D181*
X8381254Y4351205D02*
G03*
X8381254Y4351205I-1968J0D01*
G01*
X7949994Y4543709D02*
G03*
X7949994Y4543709I-1968J0D01*
G01*
X2176202Y5248147D02*
X2275197Y5149152D01*
D182*
X8241186Y4197891D02*
G03*
X8241186Y4197891I-1968J0D01*
G01*
D183*
X4693718Y3942999D02*
X4673725D01*
X4683722D01*
Y3913009D01*
X4663728D02*
Y3942999D01*
X4648733D01*
X4643735Y3938001D01*
Y3928004D01*
X4648733Y3923005D01*
X4663728D01*
X4618743Y3913009D02*
Y3942999D01*
X4633738Y3928004D01*
X4613744D01*
X4603748Y3938001D02*
X4598749Y3942999D01*
X4588752D01*
X4583754Y3938001D01*
Y3933002D01*
X4588752Y3928004D01*
X4593751D01*
X4588752D01*
X4583754Y3923005D01*
Y3918007D01*
X4588752Y3913009D01*
X4598749D01*
X4603748Y3918007D01*
X4730001Y3890766D02*
X4710007D01*
X4720004D01*
Y3860775D01*
X4700011D02*
Y3890766D01*
X4685016D01*
X4680017Y3885767D01*
Y3875771D01*
X4685016Y3870772D01*
X4700011D01*
X4655025Y3860775D02*
Y3890766D01*
X4670020Y3875771D01*
X4650027D01*
X4620037Y3860775D02*
X4640030D01*
X4620037Y3880769D01*
Y3885767D01*
X4625035Y3890766D01*
X4635032D01*
X4640030Y3885767D01*
X4663346Y3839995D02*
X4643353D01*
X4653350D01*
Y3810005D01*
X4633356D02*
Y3839995D01*
X4618361D01*
X4613363Y3834997D01*
Y3825000D01*
X4618361Y3820002D01*
X4633356D01*
X4603366Y3834997D02*
X4598367Y3839995D01*
X4588371D01*
X4583372Y3834997D01*
Y3829998D01*
X4588371Y3825000D01*
X4593369D01*
X4588371D01*
X4583372Y3820002D01*
Y3815003D01*
X4588371Y3810005D01*
X4598367D01*
X4603366Y3815003D01*
X4553382Y3839995D02*
X4563379Y3834997D01*
X4573376Y3825000D01*
Y3815003D01*
X4568377Y3810005D01*
X4558380D01*
X4553382Y3815003D01*
Y3820002D01*
X4558380Y3825000D01*
X4573376D01*
X4622291Y3792669D02*
X4602297D01*
X4612294D01*
Y3762679D01*
X4592301D02*
Y3792669D01*
X4577305D01*
X4572307Y3787671D01*
Y3777674D01*
X4577305Y3772676D01*
X4592301D01*
X4562310Y3787671D02*
X4557312Y3792669D01*
X4547315D01*
X4542317Y3787671D01*
Y3782672D01*
X4547315Y3777674D01*
X4552313D01*
X4547315D01*
X4542317Y3772676D01*
Y3767677D01*
X4547315Y3762679D01*
X4557312D01*
X4562310Y3767677D01*
X4512326Y3792669D02*
X4532320D01*
Y3777674D01*
X4522323Y3782672D01*
X4517325D01*
X4512326Y3777674D01*
Y3767677D01*
X4517325Y3762679D01*
X4527322D01*
X4532320Y3767677D01*
X4469376Y3809622D02*
X4449382D01*
X4459379D01*
Y3779632D01*
X4439385D02*
Y3809622D01*
X4424390D01*
X4419392Y3804624D01*
Y3794627D01*
X4424390Y3789629D01*
X4439385D01*
X4409395Y3804624D02*
X4404397Y3809622D01*
X4394400D01*
X4389401Y3804624D01*
Y3799625D01*
X4394400Y3794627D01*
X4399398D01*
X4394400D01*
X4389401Y3789629D01*
Y3784630D01*
X4394400Y3779632D01*
X4404397D01*
X4409395Y3784630D01*
X4379405Y3804624D02*
X4374406Y3809622D01*
X4364409D01*
X4359411Y3804624D01*
Y3799625D01*
X4364409Y3794627D01*
X4369408D01*
X4364409D01*
X4359411Y3789629D01*
Y3784630D01*
X4364409Y3779632D01*
X4374406D01*
X4379405Y3784630D01*
X4628152Y3726737D02*
X4608159D01*
X4618155D01*
Y3696746D01*
X4598162D02*
Y3726737D01*
X4583167D01*
X4578168Y3721738D01*
Y3711742D01*
X4583167Y3706743D01*
X4598162D01*
X4568172Y3721738D02*
X4563173Y3726737D01*
X4553176D01*
X4548178Y3721738D01*
Y3716740D01*
X4553176Y3711742D01*
X4558175D01*
X4553176D01*
X4548178Y3706743D01*
Y3701745D01*
X4553176Y3696746D01*
X4563173D01*
X4568172Y3701745D01*
X4538181Y3696746D02*
X4528185D01*
X4533183D01*
Y3726737D01*
X4538181Y3721738D01*
X9395353Y5203231D02*
X9365363D01*
Y5188236D01*
X9370361Y5183238D01*
X9380358D01*
X9385356Y5188236D01*
Y5203231D01*
Y5193235D02*
X9395353Y5183238D01*
Y5158246D02*
X9365363D01*
X9380358Y5173241D01*
Y5153248D01*
X5959470Y1758820D02*
Y1733829D01*
X5954472Y1728830D01*
X5944475D01*
X5939477Y1733829D01*
Y1758820D01*
X5929480Y1728830D02*
X5919483D01*
X5924481D01*
Y1758820D01*
X5929480Y1753822D01*
X5884494Y1728830D02*
X5904488D01*
X5884494Y1748824D01*
Y1753822D01*
X5889493Y1758820D01*
X5899490D01*
X5904488Y1753822D01*
X5874498Y1758820D02*
Y1728830D01*
X5859502D01*
X5854504Y1733829D01*
Y1753822D01*
X5859502Y1758820D01*
X5874498D01*
X4951696Y1752791D02*
Y1727799D01*
X4946697Y1722800D01*
X4936700D01*
X4931702Y1727799D01*
Y1752791D01*
X4921705Y1722800D02*
X4911708D01*
X4916707D01*
Y1752791D01*
X4921705Y1747792D01*
X4876720Y1722800D02*
X4896713D01*
X4876720Y1742794D01*
Y1747792D01*
X4881718Y1752791D01*
X4891715D01*
X4896713Y1747792D01*
X4846730D02*
X4851728Y1752791D01*
X4861725D01*
X4866723Y1747792D01*
Y1727799D01*
X4861725Y1722800D01*
X4851728D01*
X4846730Y1727799D01*
X3951122Y1758554D02*
Y1733562D01*
X3946124Y1728564D01*
X3936127D01*
X3931129Y1733562D01*
Y1758554D01*
X3921132Y1728564D02*
X3911135D01*
X3916133D01*
Y1758554D01*
X3921132Y1753556D01*
X3876146Y1728564D02*
X3896140D01*
X3876146Y1748557D01*
Y1753556D01*
X3881145Y1758554D01*
X3891142D01*
X3896140Y1753556D01*
X3866150Y1758554D02*
Y1728564D01*
X3851155D01*
X3846156Y1733562D01*
Y1738561D01*
X3851155Y1743559D01*
X3866150D01*
X3851155D01*
X3846156Y1748557D01*
Y1753556D01*
X3851155Y1758554D01*
X3866150D01*
X5533893Y1681994D02*
X5503902D01*
Y1666998D01*
X5508901Y1662000D01*
X5518898D01*
X5523896Y1666998D01*
Y1681994D01*
Y1671997D02*
X5533893Y1662000D01*
Y1637008D02*
X5503902D01*
X5518898Y1652003D01*
Y1632010D01*
X5533893Y1607018D02*
X5503902D01*
X5518898Y1622013D01*
Y1602019D01*
X5503902Y1592023D02*
X5533893D01*
Y1577027D01*
X5528894Y1572029D01*
X5508901D01*
X5503902Y1577027D01*
Y1592023D01*
X4535297Y1566107D02*
Y1596098D01*
X4520302D01*
X4515304Y1591099D01*
Y1581102D01*
X4520302Y1576104D01*
X4535297D01*
X4525301D02*
X4515304Y1566107D01*
X4490312D02*
Y1596098D01*
X4505307Y1581102D01*
X4485314D01*
X4460322Y1566107D02*
Y1596098D01*
X4475317Y1581102D01*
X4455323D01*
X4425333Y1591099D02*
X4430331Y1596098D01*
X4440328D01*
X4445326Y1591099D01*
Y1571106D01*
X4440328Y1566107D01*
X4430331D01*
X4425333Y1571106D01*
X3539982Y1612564D02*
Y1642554D01*
X3524987D01*
X3519989Y1637556D01*
Y1627559D01*
X3524987Y1622561D01*
X3539982D01*
X3529985D02*
X3519989Y1612564D01*
X3494997D02*
Y1642554D01*
X3509992Y1627559D01*
X3489998D01*
X3465006Y1612564D02*
Y1642554D01*
X3480002Y1627559D01*
X3460008D01*
X3450011Y1642554D02*
Y1612564D01*
X3435016D01*
X3430018Y1617562D01*
Y1622561D01*
X3435016Y1627559D01*
X3450011D01*
X3435016D01*
X3430018Y1632557D01*
Y1637556D01*
X3435016Y1642554D01*
X3450011D01*
X5704982Y1660601D02*
Y1690591D01*
X5689987D01*
X5684989Y1685593D01*
Y1675596D01*
X5689987Y1670598D01*
X5704982D01*
X5694985D02*
X5684989Y1660601D01*
X5659997D02*
Y1690591D01*
X5674992Y1675596D01*
X5654998D01*
X5645002Y1685593D02*
X5640003Y1690591D01*
X5630006D01*
X5625008Y1685593D01*
Y1680594D01*
X5630006Y1675596D01*
X5635005D01*
X5630006D01*
X5625008Y1670598D01*
Y1665599D01*
X5630006Y1660601D01*
X5640003D01*
X5645002Y1665599D01*
X5615011Y1690591D02*
Y1660601D01*
X5600016D01*
X5595018Y1665599D01*
Y1685593D01*
X5600016Y1690591D01*
X5615011D01*
X4668092Y1660601D02*
Y1690591D01*
X4653097D01*
X4648099Y1685593D01*
Y1675596D01*
X4653097Y1670598D01*
X4668092D01*
X4658096D02*
X4648099Y1660601D01*
X4623107D02*
Y1690591D01*
X4638102Y1675596D01*
X4618109D01*
X4608112Y1685593D02*
X4603113Y1690591D01*
X4593117D01*
X4588118Y1685593D01*
Y1680594D01*
X4593117Y1675596D01*
X4598115D01*
X4593117D01*
X4588118Y1670598D01*
Y1665599D01*
X4593117Y1660601D01*
X4603113D01*
X4608112Y1665599D01*
X4558128Y1685593D02*
X4563126Y1690591D01*
X4573123D01*
X4578121Y1685593D01*
Y1665599D01*
X4573123Y1660601D01*
X4563126D01*
X4558128Y1665599D01*
X3671084Y1659005D02*
Y1688995D01*
X3656089D01*
X3651091Y1683997D01*
Y1674000D01*
X3656089Y1669002D01*
X3671084D01*
X3661087D02*
X3651091Y1659005D01*
X3626099D02*
Y1688995D01*
X3641094Y1674000D01*
X3621100D01*
X3611104Y1683997D02*
X3606105Y1688995D01*
X3596108D01*
X3591110Y1683997D01*
Y1678998D01*
X3596108Y1674000D01*
X3601107D01*
X3596108D01*
X3591110Y1669002D01*
Y1664003D01*
X3596108Y1659005D01*
X3606105D01*
X3611104Y1664003D01*
X3581113Y1688995D02*
Y1659005D01*
X3566118D01*
X3561120Y1664003D01*
Y1669002D01*
X3566118Y1674000D01*
X3581113D01*
X3566118D01*
X3561120Y1678998D01*
Y1683997D01*
X3566118Y1688995D01*
X3581113D01*
X6089995Y1771822D02*
X6060005D01*
Y1756827D01*
X6065003Y1751829D01*
X6075000D01*
X6079998Y1756827D01*
Y1771822D01*
Y1761825D02*
X6089995Y1751829D01*
Y1721838D02*
Y1741832D01*
X6070002Y1721838D01*
X6065003D01*
X6060005Y1726837D01*
Y1736833D01*
X6065003Y1741832D01*
X6060005Y1711841D02*
Y1691848D01*
X6065003D01*
X6084997Y1711841D01*
X6089995D01*
X6060005Y1681851D02*
X6089995D01*
Y1666856D01*
X6084997Y1661858D01*
X6065003D01*
X6060005Y1666856D01*
Y1681851D01*
X5089995Y1771822D02*
X5060005D01*
Y1756827D01*
X5065003Y1751829D01*
X5075000D01*
X5079998Y1756827D01*
Y1771822D01*
Y1761825D02*
X5089995Y1751829D01*
Y1721838D02*
Y1741832D01*
X5070002Y1721838D01*
X5065003D01*
X5060005Y1726837D01*
Y1736833D01*
X5065003Y1741832D01*
X5060005Y1711841D02*
Y1691848D01*
X5065003D01*
X5084997Y1711841D01*
X5089995D01*
X5065003Y1661858D02*
X5060005Y1666856D01*
Y1676853D01*
X5065003Y1681851D01*
X5084997D01*
X5089995Y1676853D01*
Y1666856D01*
X5084997Y1661858D01*
X4058036Y1658010D02*
X4088027D01*
Y1673005D01*
X4083028Y1678004D01*
X4073032D01*
X4068033Y1673005D01*
Y1658010D01*
Y1668007D02*
X4058036Y1678004D01*
Y1707994D02*
Y1688000D01*
X4078030Y1707994D01*
X4083028D01*
X4088027Y1702995D01*
Y1692999D01*
X4083028Y1688000D01*
X4088027Y1717991D02*
Y1737984D01*
X4083028D01*
X4063035Y1717991D01*
X4058036D01*
X4088027Y1747981D02*
X4058036D01*
Y1762976D01*
X4063035Y1767974D01*
X4068033D01*
X4073032Y1762976D01*
Y1747981D01*
Y1762976D01*
X4078030Y1767974D01*
X4083028D01*
X4088027Y1762976D01*
Y1747981D01*
X6164995Y1772085D02*
X6135005D01*
Y1757090D01*
X6140003Y1752091D01*
X6150000D01*
X6154998Y1757090D01*
Y1772085D01*
Y1762088D02*
X6164995Y1752091D01*
Y1722101D02*
Y1742094D01*
X6145002Y1722101D01*
X6140003D01*
X6135005Y1727099D01*
Y1737096D01*
X6140003Y1742094D01*
X6135005Y1692111D02*
X6140003Y1702107D01*
X6150000Y1712104D01*
X6159997D01*
X6164995Y1707106D01*
Y1697109D01*
X6159997Y1692111D01*
X6154998D01*
X6150000Y1697109D01*
Y1712104D01*
X6135005Y1682114D02*
X6164995D01*
Y1667119D01*
X6159997Y1662120D01*
X6140003D01*
X6135005Y1667119D01*
Y1682114D01*
X5164995Y1767187D02*
X5135005D01*
Y1752192D01*
X5140003Y1747194D01*
X5150000D01*
X5154998Y1752192D01*
Y1767187D01*
Y1757190D02*
X5164995Y1747194D01*
Y1717203D02*
Y1737197D01*
X5145002Y1717203D01*
X5140003D01*
X5135005Y1722201D01*
Y1732198D01*
X5140003Y1737197D01*
X5135005Y1687213D02*
X5140003Y1697210D01*
X5150000Y1707206D01*
X5159997D01*
X5164995Y1702208D01*
Y1692211D01*
X5159997Y1687213D01*
X5154998D01*
X5150000Y1692211D01*
Y1707206D01*
X5140003Y1657223D02*
X5135005Y1662221D01*
Y1672218D01*
X5140003Y1677216D01*
X5159997D01*
X5164995Y1672218D01*
Y1662221D01*
X5159997Y1657223D01*
X4135005Y1658010D02*
X4164995D01*
Y1673005D01*
X4159997Y1678003D01*
X4150000D01*
X4145002Y1673005D01*
Y1658010D01*
Y1668007D02*
X4135005Y1678003D01*
Y1707994D02*
Y1688000D01*
X4154998Y1707994D01*
X4159997D01*
X4164995Y1702995D01*
Y1692999D01*
X4159997Y1688000D01*
X4164995Y1737984D02*
X4159997Y1727987D01*
X4150000Y1717991D01*
X4140003D01*
X4135005Y1722989D01*
Y1732986D01*
X4140003Y1737984D01*
X4145002D01*
X4150000Y1732986D01*
Y1717991D01*
X4164995Y1747981D02*
X4135005D01*
Y1762976D01*
X4140003Y1767974D01*
X4145002D01*
X4150000Y1762976D01*
Y1747981D01*
Y1762976D01*
X4154998Y1767974D01*
X4159997D01*
X4164995Y1762976D01*
Y1747981D01*
X5945018Y1269257D02*
Y1299247D01*
X5960013D01*
X5965011Y1294249D01*
Y1274255D01*
X5960013Y1269257D01*
X5945018D01*
X5995002Y1299247D02*
X5975008D01*
X5995002Y1279254D01*
Y1274255D01*
X5990003Y1269257D01*
X5980007D01*
X5975008Y1274255D01*
X6019994Y1299247D02*
Y1269257D01*
X6004998Y1284252D01*
X6024992D01*
X6034989Y1269257D02*
Y1299247D01*
X6049984D01*
X6054982Y1294249D01*
Y1274255D01*
X6049984Y1269257D01*
X6034989D01*
X4946593D02*
Y1299247D01*
X4961588D01*
X4966586Y1294249D01*
Y1274255D01*
X4961588Y1269257D01*
X4946593D01*
X4996576Y1299247D02*
X4976583D01*
X4996576Y1279254D01*
Y1274255D01*
X4991578Y1269257D01*
X4981581D01*
X4976583Y1274255D01*
X5021568Y1299247D02*
Y1269257D01*
X5006573Y1284252D01*
X5026567D01*
X5056557Y1274255D02*
X5051559Y1269257D01*
X5041562D01*
X5036564Y1274255D01*
Y1294249D01*
X5041562Y1299247D01*
X5051559D01*
X5056557Y1294249D01*
X3946593Y1269257D02*
Y1299247D01*
X3961588D01*
X3966586Y1294249D01*
Y1274255D01*
X3961588Y1269257D01*
X3946593D01*
X3996576Y1299247D02*
X3976583D01*
X3996576Y1279254D01*
Y1274255D01*
X3991578Y1269257D01*
X3981581D01*
X3976583Y1274255D01*
X4021568Y1299247D02*
Y1269257D01*
X4006573Y1284252D01*
X4026567D01*
X4036564Y1269257D02*
Y1299247D01*
X4051559D01*
X4056557Y1294249D01*
Y1289250D01*
X4051559Y1284252D01*
X4036564D01*
X4051559D01*
X4056557Y1279254D01*
Y1274255D01*
X4051559Y1269257D01*
X4036564D01*
X5810411Y1225816D02*
Y1255806D01*
X5825407D01*
X5830405Y1250808D01*
Y1230814D01*
X5825407Y1225816D01*
X5810411D01*
X5860395Y1255806D02*
X5840402D01*
X5860395Y1235812D01*
Y1230814D01*
X5855397Y1225816D01*
X5845400D01*
X5840402Y1230814D01*
X5870392D02*
X5875390Y1225816D01*
X5885387D01*
X5890385Y1230814D01*
Y1235812D01*
X5885387Y1240811D01*
X5880389D01*
X5885387D01*
X5890385Y1245809D01*
Y1250808D01*
X5885387Y1255806D01*
X5875390D01*
X5870392Y1250808D01*
X5900382Y1225816D02*
Y1255806D01*
X5915377D01*
X5920376Y1250808D01*
Y1230814D01*
X5915377Y1225816D01*
X5900382D01*
X4781162D02*
Y1255806D01*
X4796158D01*
X4801156Y1250808D01*
Y1230814D01*
X4796158Y1225816D01*
X4781162D01*
X4831146Y1255806D02*
X4811153D01*
X4831146Y1235812D01*
Y1230814D01*
X4826148Y1225816D01*
X4816151D01*
X4811153Y1230814D01*
X4841143D02*
X4846141Y1225816D01*
X4856138D01*
X4861136Y1230814D01*
Y1235812D01*
X4856138Y1240811D01*
X4851140D01*
X4856138D01*
X4861136Y1245809D01*
Y1250808D01*
X4856138Y1255806D01*
X4846141D01*
X4841143Y1250808D01*
X4891127Y1230814D02*
X4886128Y1225816D01*
X4876132D01*
X4871133Y1230814D01*
Y1250808D01*
X4876132Y1255806D01*
X4886128D01*
X4891127Y1250808D01*
X3795018Y1240811D02*
Y1270801D01*
X3810013D01*
X3815011Y1265803D01*
Y1245809D01*
X3810013Y1240811D01*
X3795018D01*
X3845002Y1270801D02*
X3825008D01*
X3845002Y1250808D01*
Y1245809D01*
X3840003Y1240811D01*
X3830006D01*
X3825008Y1245809D01*
X3854998D02*
X3859997Y1240811D01*
X3869994D01*
X3874992Y1245809D01*
Y1250808D01*
X3869994Y1255806D01*
X3864995D01*
X3869994D01*
X3874992Y1260804D01*
Y1265803D01*
X3869994Y1270801D01*
X3859997D01*
X3854998Y1265803D01*
X3884989Y1240811D02*
Y1270801D01*
X3899984D01*
X3904982Y1265803D01*
Y1260804D01*
X3899984Y1255806D01*
X3884989D01*
X3899984D01*
X3904982Y1250808D01*
Y1245809D01*
X3899984Y1240811D01*
X3884989D01*
X5554058Y1299247D02*
Y1269257D01*
X5539063D01*
X5534064Y1274255D01*
Y1294249D01*
X5539063Y1299247D01*
X5554058D01*
X5524068Y1269257D02*
X5514071D01*
X5519069D01*
Y1299247D01*
X5524068Y1294249D01*
X5479082Y1299247D02*
X5489079Y1294249D01*
X5499076Y1284252D01*
Y1274255D01*
X5494077Y1269257D01*
X5484080D01*
X5479082Y1274255D01*
Y1279254D01*
X5484080Y1284252D01*
X5499076D01*
X5469085Y1299247D02*
Y1269257D01*
X5454090D01*
X5449092Y1274255D01*
Y1294249D01*
X5454090Y1299247D01*
X5469085D01*
X4390862Y1524936D02*
X4420852D01*
Y1509941D01*
X4415854Y1504943D01*
X4395861D01*
X4390862Y1509941D01*
Y1524936D01*
X4420852Y1494946D02*
Y1484949D01*
Y1489948D01*
X4390862D01*
X4395861Y1494946D01*
X4390862Y1449961D02*
X4395861Y1459957D01*
X4405857Y1469954D01*
X4415854D01*
X4420852Y1464956D01*
Y1454959D01*
X4415854Y1449961D01*
X4410856D01*
X4405857Y1454959D01*
Y1469954D01*
X4395861Y1419970D02*
X4390862Y1424969D01*
Y1434965D01*
X4395861Y1439964D01*
X4415854D01*
X4420852Y1434965D01*
Y1424969D01*
X4415854Y1419970D01*
X3449092Y1269257D02*
Y1299247D01*
X3464087D01*
X3469085Y1294249D01*
Y1274255D01*
X3464087Y1269257D01*
X3449092D01*
X3479082Y1299247D02*
X3489079D01*
X3484081D01*
Y1269257D01*
X3479082Y1274255D01*
X3524068Y1269257D02*
X3514071Y1274255D01*
X3504074Y1284252D01*
Y1294249D01*
X3509072Y1299247D01*
X3519069D01*
X3524068Y1294249D01*
Y1289250D01*
X3519069Y1284252D01*
X3504074D01*
X3534064Y1269257D02*
Y1299247D01*
X3549059D01*
X3554058Y1294249D01*
Y1289250D01*
X3549059Y1284252D01*
X3534064D01*
X3549059D01*
X3554058Y1279254D01*
Y1274255D01*
X3549059Y1269257D01*
X3534064D01*
X6437483Y1596098D02*
Y1566107D01*
X6422488D01*
X6417489Y1571106D01*
Y1591099D01*
X6422488Y1596098D01*
X6437483D01*
X6407493Y1566107D02*
X6397496D01*
X6402494D01*
Y1596098D01*
X6407493Y1591099D01*
X6362507Y1596098D02*
X6382501D01*
Y1581102D01*
X6372504Y1586101D01*
X6367506D01*
X6362507Y1581102D01*
Y1571106D01*
X6367506Y1566107D01*
X6377502D01*
X6382501Y1571106D01*
X6352511Y1596098D02*
Y1566107D01*
X6337515D01*
X6332517Y1571106D01*
Y1591099D01*
X6337515Y1596098D01*
X6352511D01*
X5273491Y1321740D02*
X5303481D01*
Y1306745D01*
X5298483Y1301746D01*
X5278489D01*
X5273491Y1306745D01*
Y1321740D01*
X5303481Y1291750D02*
Y1281753D01*
Y1286751D01*
X5273491D01*
X5278489Y1291750D01*
X5273491Y1246764D02*
Y1266758D01*
X5288486D01*
X5283488Y1256761D01*
Y1251763D01*
X5288486Y1246764D01*
X5298483D01*
X5303481Y1251763D01*
Y1261759D01*
X5298483Y1266758D01*
X5278489Y1216774D02*
X5273491Y1221772D01*
Y1231769D01*
X5278489Y1236767D01*
X5298483D01*
X5303481Y1231769D01*
Y1221772D01*
X5298483Y1216774D01*
X4294210Y1225816D02*
Y1255806D01*
X4309205D01*
X4314203Y1250808D01*
Y1230814D01*
X4309205Y1225816D01*
X4294210D01*
X4324200Y1255806D02*
X4334197D01*
X4329198D01*
Y1225816D01*
X4324200Y1230814D01*
X4369185Y1225816D02*
X4349192D01*
Y1240811D01*
X4359189Y1235812D01*
X4364187D01*
X4369185Y1240811D01*
Y1250808D01*
X4364187Y1255806D01*
X4354190D01*
X4349192Y1250808D01*
X4379182Y1225816D02*
Y1255806D01*
X4394177D01*
X4399176Y1250808D01*
Y1245809D01*
X4394177Y1240811D01*
X4379182D01*
X4394177D01*
X4399176Y1235812D01*
Y1230814D01*
X4394177Y1225816D01*
X4379182D01*
X6215003Y1750467D02*
X6210005Y1755466D01*
Y1765463D01*
X6215003Y1770461D01*
X6234997D01*
X6239995Y1765463D01*
Y1755466D01*
X6234997Y1750467D01*
X6210005Y1740471D02*
Y1720477D01*
X6215003D01*
X6234997Y1740471D01*
X6239995D01*
Y1695485D02*
X6210005D01*
X6225000Y1710480D01*
Y1690487D01*
X6210005Y1680490D02*
X6239995D01*
Y1665495D01*
X6234997Y1660496D01*
X6215003D01*
X6210005Y1665495D01*
Y1680490D01*
X5215003Y1751829D02*
X5210005Y1756827D01*
Y1766824D01*
X5215003Y1771822D01*
X5234997D01*
X5239995Y1766824D01*
Y1756827D01*
X5234997Y1751829D01*
X5210005Y1741832D02*
Y1721838D01*
X5215003D01*
X5234997Y1741832D01*
X5239995D01*
Y1696846D02*
X5210005D01*
X5225000Y1711841D01*
Y1691848D01*
X5215003Y1661858D02*
X5210005Y1666856D01*
Y1676853D01*
X5215003Y1681851D01*
X5234997D01*
X5239995Y1676853D01*
Y1666856D01*
X5234997Y1661858D01*
X4234012Y1678004D02*
X4239011Y1673005D01*
Y1663008D01*
X4234012Y1658010D01*
X4214019D01*
X4209021Y1663008D01*
Y1673005D01*
X4214019Y1678004D01*
X4239011Y1688000D02*
Y1707994D01*
X4234012D01*
X4214019Y1688000D01*
X4209021D01*
Y1732986D02*
X4239011D01*
X4224016Y1717991D01*
Y1737984D01*
X4239011Y1747981D02*
X4209021D01*
Y1762976D01*
X4214019Y1767974D01*
X4219017D01*
X4224016Y1762976D01*
Y1747981D01*
Y1762976D01*
X4229014Y1767974D01*
X4234012D01*
X4239011Y1762976D01*
Y1747981D01*
X5662444Y1844989D02*
X5657446Y1849987D01*
Y1859984D01*
X5662444Y1864983D01*
X5682438D01*
X5687436Y1859984D01*
Y1849987D01*
X5682438Y1844989D01*
X5662444Y1834992D02*
X5657446Y1829994D01*
Y1819997D01*
X5662444Y1814999D01*
X5667443D01*
X5672441Y1819997D01*
Y1824995D01*
Y1819997D01*
X5677439Y1814999D01*
X5682438D01*
X5687436Y1819997D01*
Y1829994D01*
X5682438Y1834992D01*
Y1805002D02*
X5687436Y1800004D01*
Y1790007D01*
X5682438Y1785008D01*
X5662444D01*
X5657446Y1790007D01*
Y1800004D01*
X5662444Y1805002D01*
X5667443D01*
X5672441Y1800004D01*
Y1785008D01*
X5657446Y1775012D02*
X5687436D01*
Y1760016D01*
X5682438Y1755018D01*
X5662444D01*
X5657446Y1760016D01*
Y1775012D01*
X4731052Y1781819D02*
X4736050Y1786817D01*
X4746047D01*
X4751045Y1781819D01*
Y1761825D01*
X4746047Y1756827D01*
X4736050D01*
X4731052Y1761825D01*
X4721055Y1781819D02*
X4716056Y1786817D01*
X4706060D01*
X4701061Y1781819D01*
Y1776821D01*
X4706060Y1771822D01*
X4711058D01*
X4706060D01*
X4701061Y1766824D01*
Y1761825D01*
X4706060Y1756827D01*
X4716056D01*
X4721055Y1761825D01*
X4691065D02*
X4686066Y1756827D01*
X4676069D01*
X4671071Y1761825D01*
Y1781819D01*
X4676069Y1786817D01*
X4686066D01*
X4691065Y1781819D01*
Y1776821D01*
X4686066Y1771822D01*
X4671071D01*
X4641081Y1781819D02*
X4646079Y1786817D01*
X4656076D01*
X4661074Y1781819D01*
Y1761825D01*
X4656076Y1756827D01*
X4646079D01*
X4641081Y1761825D01*
X3731052Y1781819D02*
X3736050Y1786817D01*
X3746047D01*
X3751045Y1781819D01*
Y1761825D01*
X3746047Y1756827D01*
X3736050D01*
X3731052Y1761825D01*
X3721055Y1781819D02*
X3716057Y1786817D01*
X3706060D01*
X3701061Y1781819D01*
Y1776821D01*
X3706060Y1771822D01*
X3711058D01*
X3706060D01*
X3701061Y1766824D01*
Y1761825D01*
X3706060Y1756827D01*
X3716057D01*
X3721055Y1761825D01*
X3691065D02*
X3686066Y1756827D01*
X3676069D01*
X3671071Y1761825D01*
Y1781819D01*
X3676069Y1786817D01*
X3686066D01*
X3691065Y1781819D01*
Y1776821D01*
X3686066Y1771822D01*
X3671071D01*
X3661074Y1786817D02*
Y1756827D01*
X3646079D01*
X3641081Y1761825D01*
Y1766824D01*
X3646079Y1771822D01*
X3661074D01*
X3646079D01*
X3641081Y1776821D01*
Y1781819D01*
X3646079Y1786817D01*
X3661074D01*
X5784997Y1478594D02*
X5789995Y1473596D01*
Y1463599D01*
X5784997Y1458600D01*
X5765003D01*
X5760005Y1463599D01*
Y1473596D01*
X5765003Y1478594D01*
X5784997Y1488591D02*
X5789995Y1493589D01*
Y1503586D01*
X5784997Y1508584D01*
X5779998D01*
X5775000Y1503586D01*
Y1498588D01*
Y1503586D01*
X5770002Y1508584D01*
X5765003D01*
X5760005Y1503586D01*
Y1493589D01*
X5765003Y1488591D01*
X5784997Y1518581D02*
X5789995Y1523579D01*
Y1533576D01*
X5784997Y1538574D01*
X5779998D01*
X5775000Y1533576D01*
X5770002Y1538574D01*
X5765003D01*
X5760005Y1533576D01*
Y1523579D01*
X5765003Y1518581D01*
X5770002D01*
X5775000Y1523579D01*
X5779998Y1518581D01*
X5784997D01*
X5775000Y1523579D02*
Y1533576D01*
X5789995Y1548571D02*
X5760005D01*
Y1563566D01*
X5765003Y1568565D01*
X5784997D01*
X5789995Y1563566D01*
Y1548571D01*
X4793812Y1453988D02*
X4798810Y1448989D01*
Y1438993D01*
X4793812Y1433994D01*
X4773819D01*
X4768820Y1438993D01*
Y1448989D01*
X4773819Y1453988D01*
X4793812Y1463985D02*
X4798810Y1468983D01*
Y1478980D01*
X4793812Y1483978D01*
X4788814D01*
X4783815Y1478980D01*
Y1473981D01*
Y1478980D01*
X4778817Y1483978D01*
X4773819D01*
X4768820Y1478980D01*
Y1468983D01*
X4773819Y1463985D01*
X4793812Y1493975D02*
X4798810Y1498973D01*
Y1508970D01*
X4793812Y1513968D01*
X4788814D01*
X4783815Y1508970D01*
X4778817Y1513968D01*
X4773819D01*
X4768820Y1508970D01*
Y1498973D01*
X4773819Y1493975D01*
X4778817D01*
X4783815Y1498973D01*
X4788814Y1493975D01*
X4793812D01*
X4783815Y1498973D02*
Y1508970D01*
X4793812Y1543959D02*
X4798810Y1538960D01*
Y1528964D01*
X4793812Y1523965D01*
X4773819D01*
X4768820Y1528964D01*
Y1538960D01*
X4773819Y1543959D01*
X3789997Y1489948D02*
X3794995Y1484949D01*
Y1474953D01*
X3789997Y1469954D01*
X3770003D01*
X3765005Y1474953D01*
Y1484949D01*
X3770003Y1489948D01*
X3789997Y1499945D02*
X3794995Y1504943D01*
Y1514940D01*
X3789997Y1519938D01*
X3784999D01*
X3780000Y1514940D01*
Y1509941D01*
Y1514940D01*
X3775002Y1519938D01*
X3770003D01*
X3765005Y1514940D01*
Y1504943D01*
X3770003Y1499945D01*
X3789997Y1529935D02*
X3794995Y1534933D01*
Y1544930D01*
X3789997Y1549928D01*
X3784999D01*
X3780000Y1544930D01*
X3775002Y1549928D01*
X3770003D01*
X3765005Y1544930D01*
Y1534933D01*
X3770003Y1529935D01*
X3775002D01*
X3780000Y1534933D01*
X3784999Y1529935D01*
X3789997D01*
X3780000Y1534933D02*
Y1544930D01*
X3794995Y1559925D02*
X3765005D01*
Y1574920D01*
X3770003Y1579919D01*
X3775002D01*
X3780000Y1574920D01*
Y1559925D01*
Y1574920D01*
X3784999Y1579919D01*
X3789997D01*
X3794995Y1574920D01*
Y1559925D01*
X2955593Y1767298D02*
Y1742306D01*
X2950595Y1737308D01*
X2940598D01*
X2935600Y1742306D01*
Y1767298D01*
X2925603Y1737308D02*
X2915606D01*
X2920605D01*
Y1767298D01*
X2925603Y1762300D01*
X2880618Y1737308D02*
X2900611D01*
X2880618Y1757302D01*
Y1762300D01*
X2885616Y1767298D01*
X2895613D01*
X2900611Y1762300D01*
X2870621Y1737308D02*
Y1757302D01*
X2860624Y1767298D01*
X2850627Y1757302D01*
Y1737308D01*
Y1752303D01*
X2870621D01*
X2542892Y1612564D02*
Y1642554D01*
X2527897D01*
X2522899Y1637556D01*
Y1627559D01*
X2527897Y1622561D01*
X2542892D01*
X2532896D02*
X2522899Y1612564D01*
X2497907D02*
Y1642554D01*
X2512902Y1627559D01*
X2492909D01*
X2467917Y1612564D02*
Y1642554D01*
X2482912Y1627559D01*
X2462918D01*
X2452921Y1612564D02*
Y1632557D01*
X2442925Y1642554D01*
X2432928Y1632557D01*
Y1612564D01*
Y1627559D01*
X2452921D01*
X2704982Y1659005D02*
Y1688995D01*
X2689987D01*
X2684989Y1683997D01*
Y1674000D01*
X2689987Y1669002D01*
X2704982D01*
X2694985D02*
X2684989Y1659005D01*
X2659997D02*
Y1688995D01*
X2674992Y1674000D01*
X2654998D01*
X2645002Y1683997D02*
X2640003Y1688995D01*
X2630006D01*
X2625008Y1683997D01*
Y1678998D01*
X2630006Y1674000D01*
X2635005D01*
X2630006D01*
X2625008Y1669002D01*
Y1664003D01*
X2630006Y1659005D01*
X2640003D01*
X2645002Y1664003D01*
X2615011Y1659005D02*
Y1678998D01*
X2605015Y1688995D01*
X2595018Y1678998D01*
Y1659005D01*
Y1674000D01*
X2615011D01*
X3060005Y1658010D02*
X3089995D01*
Y1673005D01*
X3084997Y1678004D01*
X3075000D01*
X3070002Y1673005D01*
Y1658010D01*
Y1668007D02*
X3060005Y1678004D01*
Y1707994D02*
Y1688000D01*
X3079999Y1707994D01*
X3084997D01*
X3089995Y1702995D01*
Y1692999D01*
X3084997Y1688000D01*
X3089995Y1717991D02*
Y1737984D01*
X3084997D01*
X3065003Y1717991D01*
X3060005D01*
Y1747981D02*
X3079999D01*
X3089995Y1757978D01*
X3079999Y1767974D01*
X3060005D01*
X3075000D01*
Y1747981D01*
X3136973Y1658010D02*
X3166964D01*
Y1673005D01*
X3161965Y1678004D01*
X3151969D01*
X3146970Y1673005D01*
Y1658010D01*
Y1668007D02*
X3136973Y1678004D01*
Y1707994D02*
Y1688000D01*
X3156967Y1707994D01*
X3161965D01*
X3166964Y1702995D01*
Y1692999D01*
X3161965Y1688000D01*
X3166964Y1737984D02*
X3161965Y1727987D01*
X3151969Y1717991D01*
X3141972D01*
X3136973Y1722989D01*
Y1732986D01*
X3141972Y1737984D01*
X3146970D01*
X3151969Y1732986D01*
Y1717991D01*
X3136973Y1747981D02*
X3156967D01*
X3166964Y1757978D01*
X3156967Y1767974D01*
X3136973D01*
X3151969D01*
Y1747981D01*
X2946593Y1269257D02*
Y1299247D01*
X2961588D01*
X2966586Y1294249D01*
Y1274255D01*
X2961588Y1269257D01*
X2946593D01*
X2996576Y1299247D02*
X2976583D01*
X2996576Y1279254D01*
Y1274255D01*
X2991578Y1269257D01*
X2981581D01*
X2976583Y1274255D01*
X3021568Y1299247D02*
Y1269257D01*
X3006573Y1284252D01*
X3026567D01*
X3036564Y1299247D02*
Y1279254D01*
X3046560Y1269257D01*
X3056557Y1279254D01*
Y1299247D01*
Y1284252D01*
X3036564D01*
X2904982Y1270801D02*
Y1240811D01*
X2889987D01*
X2884989Y1245809D01*
Y1265803D01*
X2889987Y1270801D01*
X2904982D01*
X2854998Y1240811D02*
X2874992D01*
X2854998Y1260804D01*
Y1265803D01*
X2859997Y1270801D01*
X2869994D01*
X2874992Y1265803D01*
X2845002D02*
X2840003Y1270801D01*
X2830006D01*
X2825008Y1265803D01*
Y1260804D01*
X2830006Y1255806D01*
X2835005D01*
X2830006D01*
X2825008Y1250808D01*
Y1245809D01*
X2830006Y1240811D01*
X2840003D01*
X2845002Y1245809D01*
X2815011Y1240811D02*
Y1260804D01*
X2805015Y1270801D01*
X2795018Y1260804D01*
Y1240811D01*
Y1255806D01*
X2815011D01*
X2554058Y1310665D02*
Y1280674D01*
X2539063D01*
X2534064Y1285673D01*
Y1305666D01*
X2539063Y1310665D01*
X2554058D01*
X2524068Y1280674D02*
X2514071D01*
X2519069D01*
Y1310665D01*
X2524068Y1305666D01*
X2479082Y1310665D02*
X2489079Y1305666D01*
X2499076Y1295669D01*
Y1285673D01*
X2494077Y1280674D01*
X2484080D01*
X2479082Y1285673D01*
Y1290671D01*
X2484080Y1295669D01*
X2499076D01*
X2469085Y1280674D02*
Y1300668D01*
X2459088Y1310665D01*
X2449092Y1300668D01*
Y1280674D01*
Y1295669D01*
X2469085D01*
X3290863Y1225816D02*
Y1255806D01*
X3305858D01*
X3310857Y1250808D01*
Y1230814D01*
X3305858Y1225816D01*
X3290863D01*
X3320854Y1255806D02*
X3330850D01*
X3325852D01*
Y1225816D01*
X3320854Y1230814D01*
X3365839Y1225816D02*
X3345845D01*
Y1240811D01*
X3355842Y1235812D01*
X3360841D01*
X3365839Y1240811D01*
Y1250808D01*
X3360841Y1255806D01*
X3350844D01*
X3345845Y1250808D01*
X3375836Y1255806D02*
Y1235812D01*
X3385833Y1225816D01*
X3395829Y1235812D01*
Y1255806D01*
Y1240811D01*
X3375836D01*
X3279989Y1684997D02*
X3284987Y1689995D01*
X3294984D01*
X3299982Y1684997D01*
Y1665003D01*
X3294984Y1660005D01*
X3284987D01*
X3279989Y1665003D01*
X3269992Y1689995D02*
X3249998D01*
Y1684997D01*
X3269992Y1665003D01*
Y1660005D01*
X3225006D02*
Y1689995D01*
X3240002Y1675000D01*
X3220008D01*
X3210011Y1660005D02*
Y1679998D01*
X3200015Y1689995D01*
X3190018Y1679998D01*
Y1660005D01*
Y1675000D01*
X3210011D01*
X2731052Y1779524D02*
X2736050Y1784523D01*
X2746047D01*
X2751045Y1779524D01*
Y1759531D01*
X2746047Y1754533D01*
X2736050D01*
X2731052Y1759531D01*
X2721055Y1779524D02*
X2716057Y1784523D01*
X2706060D01*
X2701061Y1779524D01*
Y1774526D01*
X2706060Y1769528D01*
X2711058D01*
X2706060D01*
X2701061Y1764529D01*
Y1759531D01*
X2706060Y1754533D01*
X2716057D01*
X2721055Y1759531D01*
X2691065D02*
X2686066Y1754533D01*
X2676069D01*
X2671071Y1759531D01*
Y1779524D01*
X2676069Y1784523D01*
X2686066D01*
X2691065Y1779524D01*
Y1774526D01*
X2686066Y1769528D01*
X2671071D01*
X2661074Y1754533D02*
Y1774526D01*
X2651077Y1784523D01*
X2641081Y1774526D01*
Y1754533D01*
Y1769528D01*
X2661074D01*
X2788540Y1465011D02*
X2793538Y1460013D01*
Y1450016D01*
X2788540Y1445018D01*
X2768546D01*
X2763548Y1450016D01*
Y1460013D01*
X2768546Y1465011D01*
X2788540Y1475008D02*
X2793538Y1480006D01*
Y1490003D01*
X2788540Y1495002D01*
X2783542D01*
X2778543Y1490003D01*
Y1485005D01*
Y1490003D01*
X2773545Y1495002D01*
X2768546D01*
X2763548Y1490003D01*
Y1480006D01*
X2768546Y1475008D01*
X2788540Y1504998D02*
X2793538Y1509997D01*
Y1519994D01*
X2788540Y1524992D01*
X2783542D01*
X2778543Y1519994D01*
X2773545Y1524992D01*
X2768546D01*
X2763548Y1519994D01*
Y1509997D01*
X2768546Y1504998D01*
X2773545D01*
X2778543Y1509997D01*
X2783542Y1504998D01*
X2788540D01*
X2778543Y1509997D02*
Y1519994D01*
X2763548Y1534989D02*
X2783542D01*
X2793538Y1544985D01*
X2783542Y1554982D01*
X2763548D01*
X2778543D01*
Y1534989D01*
X2586032Y2028312D02*
Y2053304D01*
X2591030Y2058302D01*
X2601027D01*
X2606025Y2053304D01*
Y2028312D01*
X2616022D02*
X2636016D01*
Y2033310D01*
X2616022Y2053304D01*
Y2058302D01*
X5348713Y1844995D02*
X5328720D01*
X5338716D01*
Y1815005D01*
X5318723D02*
Y1844995D01*
X5303728D01*
X5298729Y1839997D01*
Y1830000D01*
X5303728Y1825002D01*
X5318723D01*
X5288733Y1815005D02*
X5278736D01*
X5283734D01*
Y1844995D01*
X5288733Y1839997D01*
X5263741Y1844995D02*
X5243747D01*
Y1839997D01*
X5263741Y1820003D01*
Y1815005D01*
X3722131Y4347954D02*
Y4327961D01*
Y4337957D01*
X3752121D01*
Y4317964D02*
X3722131D01*
Y4302968D01*
X3727129Y4297970D01*
X3737126D01*
X3742124Y4302968D01*
Y4317964D01*
X3752121Y4267980D02*
Y4287973D01*
X3732128Y4267980D01*
X3727129D01*
X3722131Y4272978D01*
Y4282975D01*
X3727129Y4287973D01*
X3752121Y4237990D02*
Y4257983D01*
X3732128Y4237990D01*
X3727129D01*
X3722131Y4242988D01*
Y4252985D01*
X3727129Y4257983D01*
X4016989Y4196118D02*
X3996996D01*
X4006992D01*
Y4166128D01*
X3986999D02*
Y4196118D01*
X3972004D01*
X3967006Y4191120D01*
Y4181123D01*
X3972004Y4176124D01*
X3986999D01*
X3937015Y4166128D02*
X3957009D01*
X3937015Y4186121D01*
Y4191120D01*
X3942014Y4196118D01*
X3952010D01*
X3957009Y4191120D01*
X3927018D02*
X3922020Y4196118D01*
X3912023D01*
X3907025Y4191120D01*
Y4186121D01*
X3912023Y4181123D01*
X3917022D01*
X3912023D01*
X3907025Y4176124D01*
Y4171126D01*
X3912023Y4166128D01*
X3922020D01*
X3927018Y4171126D01*
X9064797Y1334943D02*
X9034807D01*
Y1319947D01*
X9039805Y1314949D01*
X9049802D01*
X9054800Y1319947D01*
Y1334943D01*
Y1324946D02*
X9064797Y1314949D01*
Y1284959D02*
Y1304952D01*
X9044803Y1284959D01*
X9039805D01*
X9034807Y1289957D01*
Y1299954D01*
X9039805Y1304952D01*
Y1274962D02*
X9034807Y1269964D01*
Y1259967D01*
X9039805Y1254968D01*
X9044803D01*
X9049802Y1259967D01*
X9054800Y1254968D01*
X9059799D01*
X9064797Y1259967D01*
Y1269964D01*
X9059799Y1274962D01*
X9054800D01*
X9049802Y1269964D01*
X9044803Y1274962D01*
X9039805D01*
X9049802Y1269964D02*
Y1259967D01*
X9153172Y1403482D02*
X9183162D01*
Y1383489D01*
Y1353498D02*
Y1373492D01*
X9163168Y1353498D01*
X9158170D01*
X9153172Y1358497D01*
Y1368494D01*
X9158170Y1373492D01*
X9100776Y1314949D02*
X9095778Y1319947D01*
Y1329944D01*
X9100776Y1334943D01*
X9120770D01*
X9125768Y1329944D01*
Y1319947D01*
X9120770Y1314949D01*
X9100776Y1304952D02*
X9095778Y1299954D01*
Y1289957D01*
X9100776Y1284959D01*
X9105775D01*
X9110773Y1289957D01*
X9115772Y1284959D01*
X9120770D01*
X9125768Y1289957D01*
Y1299954D01*
X9120770Y1304952D01*
X9115772D01*
X9110773Y1299954D01*
X9105775Y1304952D01*
X9100776D01*
X9110773Y1299954D02*
Y1289957D01*
X9100776Y1274962D02*
X9095778Y1269964D01*
Y1259967D01*
X9100776Y1254968D01*
X9120770D01*
X9125768Y1259967D01*
Y1269964D01*
X9120770Y1274962D01*
X9100776D01*
X8130000Y4257990D02*
Y4232998D01*
X8125002Y4228000D01*
X8115005D01*
X8110007Y4232998D01*
Y4257990D01*
X8085015Y4228000D02*
Y4257990D01*
X8100010Y4242995D01*
X8080016D01*
X8179872Y4414408D02*
Y4444398D01*
X8164877D01*
X8159879Y4439400D01*
Y4429403D01*
X8164877Y4424405D01*
X8179872D01*
X8169875D02*
X8159879Y4414408D01*
X8129888D02*
X8149882D01*
X8129888Y4434401D01*
Y4439400D01*
X8134887Y4444398D01*
X8144883D01*
X8149882Y4439400D01*
X8119891D02*
X8114893Y4444398D01*
X8104896D01*
X8099898Y4439400D01*
Y4419406D01*
X8104896Y4414408D01*
X8114893D01*
X8119891Y4419406D01*
Y4439400D01*
X8114469Y4310334D02*
Y4340324D01*
X8099474D01*
X8094475Y4335325D01*
Y4325329D01*
X8099474Y4320330D01*
X8114469D01*
X8104472D02*
X8094475Y4310334D01*
X8064485D02*
X8084479D01*
X8064485Y4330327D01*
Y4335325D01*
X8069484Y4340324D01*
X8079480D01*
X8084479Y4335325D01*
X8054488D02*
X8049490Y4340324D01*
X8039493D01*
X8034495Y4335325D01*
Y4330327D01*
X8039493Y4325329D01*
X8044492D01*
X8039493D01*
X8034495Y4320330D01*
Y4315332D01*
X8039493Y4310334D01*
X8049490D01*
X8054488Y4315332D01*
X8030316Y4476125D02*
Y4506115D01*
X8015321D01*
X8010323Y4501117D01*
Y4491120D01*
X8015321Y4486121D01*
X8030316D01*
X8020319D02*
X8010323Y4476125D01*
X7980332D02*
X8000326D01*
X7980332Y4496118D01*
Y4501117D01*
X7985331Y4506115D01*
X7995327D01*
X8000326Y4501117D01*
X7950342Y4476125D02*
X7970335D01*
X7950342Y4496118D01*
Y4501117D01*
X7955340Y4506115D01*
X7965337D01*
X7970335Y4501117D01*
X8129353Y4609188D02*
Y4639178D01*
X8114357D01*
X8109359Y4634180D01*
Y4624183D01*
X8114357Y4619185D01*
X8129353D01*
X8119356D02*
X8109359Y4609188D01*
X8079369D02*
X8099362D01*
X8079369Y4629181D01*
Y4634180D01*
X8084367Y4639178D01*
X8094364D01*
X8099362Y4634180D01*
X8054377Y4609188D02*
Y4639178D01*
X8069372Y4624183D01*
X8049378D01*
X9374000Y4463000D02*
Y4492990D01*
X9359005D01*
X9354006Y4487992D01*
Y4477995D01*
X9359005Y4472997D01*
X9374000D01*
X9364003D02*
X9354006Y4463000D01*
X9324016D02*
X9344010D01*
X9324016Y4482993D01*
Y4487992D01*
X9329014Y4492990D01*
X9339011D01*
X9344010Y4487992D01*
X9314019Y4463000D02*
X9304023D01*
X9309021D01*
Y4492990D01*
X9314019Y4487992D01*
X8226639Y4314005D02*
Y4343995D01*
X8211644D01*
X8206646Y4338997D01*
Y4329000D01*
X8211644Y4324002D01*
X8226639D01*
X8216642D02*
X8206646Y4314005D01*
X8196649D02*
X8186652D01*
X8191650D01*
Y4343995D01*
X8196649Y4338997D01*
X8171657D02*
X8166658Y4343995D01*
X8156662D01*
X8151663Y4338997D01*
Y4333998D01*
X8156662Y4329000D01*
X8161660D01*
X8156662D01*
X8151663Y4324002D01*
Y4319003D01*
X8156662Y4314005D01*
X8166658D01*
X8171657Y4319003D01*
X8278999Y4303551D02*
Y4333542D01*
X8293994D01*
X8298992Y4328543D01*
Y4308550D01*
X8293994Y4303551D01*
X8278999D01*
X8308989Y4333542D02*
X8318986D01*
X8313987D01*
Y4303551D01*
X8308989Y4308550D01*
X8333981Y4333542D02*
X8343978D01*
X8338979D01*
Y4303551D01*
X8333981Y4308550D01*
X7932960Y4648032D02*
Y4618041D01*
X7917965D01*
X7912967Y4623040D01*
Y4643033D01*
X7917965Y4648032D01*
X7932960D01*
X7902970Y4618041D02*
X7892973D01*
X7897971D01*
Y4648032D01*
X7902970Y4643033D01*
X7877978D02*
X7872980Y4648032D01*
X7862983D01*
X7857984Y4643033D01*
Y4638035D01*
X7862983Y4633037D01*
X7867981D01*
X7862983D01*
X7857984Y4628038D01*
Y4623040D01*
X7862983Y4618041D01*
X7872980D01*
X7877978Y4623040D01*
X8428695Y4170543D02*
X8433693Y4175542D01*
X8443690D01*
X8448688Y4170543D01*
Y4150550D01*
X8443690Y4145551D01*
X8433693D01*
X8428695Y4150550D01*
X8418698Y4145551D02*
X8408701D01*
X8413699D01*
Y4175542D01*
X8418698Y4170543D01*
X8393706D02*
X8388708Y4175542D01*
X8378711D01*
X8373712Y4170543D01*
Y4165545D01*
X8378711Y4160546D01*
X8373712Y4155548D01*
Y4150550D01*
X8378711Y4145551D01*
X8388708D01*
X8393706Y4150550D01*
Y4155548D01*
X8388708Y4160546D01*
X8393706Y4165545D01*
Y4170543D01*
X8388708Y4160546D02*
X8378711D01*
X7974041Y4338997D02*
X7979039Y4343995D01*
X7989036D01*
X7994034Y4338997D01*
Y4319003D01*
X7989036Y4314005D01*
X7979039D01*
X7974041Y4319003D01*
X7964044Y4314005D02*
X7954047D01*
X7959046D01*
Y4343995D01*
X7964044Y4338997D01*
X7939052Y4319003D02*
X7934054Y4314005D01*
X7924057D01*
X7919059Y4319003D01*
Y4338997D01*
X7924057Y4343995D01*
X7934054D01*
X7939052Y4338997D01*
Y4333998D01*
X7934054Y4329000D01*
X7919059D01*
X7926640Y4225776D02*
X7931639Y4230774D01*
X7941635D01*
X7946634Y4225776D01*
Y4205782D01*
X7941635Y4200784D01*
X7931639D01*
X7926640Y4205782D01*
X7916644Y4230774D02*
X7896650D01*
Y4225776D01*
X7916644Y4205782D01*
Y4200784D01*
X7886653Y4225776D02*
X7881655Y4230774D01*
X7871658D01*
X7866660Y4225776D01*
Y4220777D01*
X7871658Y4215779D01*
X7876656D01*
X7871658D01*
X7866660Y4210781D01*
Y4205782D01*
X7871658Y4200784D01*
X7881655D01*
X7886653Y4205782D01*
X8298005Y4599998D02*
Y4619992D01*
X8303004Y4624990D01*
X8313000D01*
X8317999Y4619992D01*
Y4599998D01*
X8313000Y4595000D01*
X8303004D01*
X8308002Y4604997D02*
X8298005Y4595000D01*
X8303004D02*
X8298005Y4599998D01*
X8273013Y4595000D02*
Y4624990D01*
X8288008Y4609995D01*
X8268015D01*
X9080420Y5504702D02*
Y5534693D01*
X9095416D01*
X9100414Y5529694D01*
Y5509701D01*
X9095416Y5504702D01*
X9080420D01*
X9110411Y5529694D02*
X9115409Y5534693D01*
X9125406D01*
X9130404Y5529694D01*
Y5509701D01*
X9125406Y5504702D01*
X9115409D01*
X9110411Y5509701D01*
Y5514699D01*
X9115409Y5519698D01*
X9130404D01*
X9140401Y5504702D02*
Y5534693D01*
X9160395D01*
X8580420Y5504702D02*
Y5534693D01*
X8595416D01*
X8600414Y5529694D01*
Y5509701D01*
X8595416Y5504702D01*
X8580420D01*
X8610411Y5529694D02*
X8615409Y5534693D01*
X8625406D01*
X8630404Y5529694D01*
Y5509701D01*
X8625406Y5504702D01*
X8615409D01*
X8610411Y5509701D01*
Y5514699D01*
X8615409Y5519698D01*
X8630404D01*
X8640401Y5504702D02*
Y5534693D01*
Y5524696D01*
X8660395Y5504702D01*
X8645399Y5519698D01*
X8660395Y5534693D01*
X8080420Y5504702D02*
Y5534693D01*
X8095416D01*
X8100414Y5529694D01*
Y5509701D01*
X8095416Y5504702D01*
X8080420D01*
X8110411Y5529694D02*
X8115409Y5534693D01*
X8125406D01*
X8130404Y5529694D01*
Y5509701D01*
X8125406Y5504702D01*
X8115409D01*
X8110411Y5509701D01*
Y5514699D01*
X8115409Y5519698D01*
X8130404D01*
X8160395Y5504702D02*
X8150398D01*
X8155396D01*
Y5529694D01*
X8150398Y5534693D01*
X8145399D01*
X8140401Y5529694D01*
X7580420Y5504702D02*
Y5534693D01*
X7595416D01*
X7600414Y5529694D01*
Y5509701D01*
X7595416Y5504702D01*
X7580420D01*
X7610411Y5529694D02*
X7615409Y5534693D01*
X7625406D01*
X7630404Y5529694D01*
Y5509701D01*
X7625406Y5504702D01*
X7615409D01*
X7610411Y5509701D01*
Y5514699D01*
X7615409Y5519698D01*
X7630404D01*
X7640401Y5504702D02*
X7650398D01*
X7645399D01*
Y5534693D01*
X7640401D01*
X7650398D01*
X7080420Y5504702D02*
Y5534693D01*
X7095416D01*
X7100414Y5529694D01*
Y5509701D01*
X7095416Y5504702D01*
X7080420D01*
X7110411Y5529694D02*
X7115409Y5534693D01*
X7125406D01*
X7130404Y5529694D01*
Y5509701D01*
X7125406Y5504702D01*
X7115409D01*
X7110411Y5509701D01*
Y5514699D01*
X7115409Y5519698D01*
X7130404D01*
X7140401Y5504702D02*
Y5534693D01*
Y5519698D01*
X7160395D01*
Y5504702D01*
Y5534693D01*
X6580420Y5504702D02*
Y5534693D01*
X6595416D01*
X6600414Y5529694D01*
Y5509701D01*
X6595416Y5504702D01*
X6580420D01*
X6610411Y5529694D02*
X6615409Y5534693D01*
X6625406D01*
X6630404Y5529694D01*
Y5509701D01*
X6625406Y5504702D01*
X6615409D01*
X6610411Y5509701D01*
Y5514699D01*
X6615409Y5519698D01*
X6630404D01*
X6660395Y5509701D02*
X6655396Y5504702D01*
X6645399D01*
X6640401Y5509701D01*
Y5529694D01*
X6645399Y5534693D01*
X6655396D01*
X6660395Y5529694D01*
Y5519698D01*
X6650398D01*
X5680420Y5504702D02*
Y5534693D01*
X5695416D01*
X5700414Y5529694D01*
Y5509701D01*
X5695416Y5504702D01*
X5680420D01*
X5710411Y5529694D02*
X5715409Y5534693D01*
X5725406D01*
X5730404Y5529694D01*
Y5509701D01*
X5725406Y5504702D01*
X5715409D01*
X5710411Y5509701D01*
Y5514699D01*
X5715409Y5519698D01*
X5730404D01*
X5760395Y5504702D02*
X5740401D01*
Y5519698D01*
X5750398D01*
X5740401D01*
Y5534693D01*
X5180420Y5504702D02*
Y5534693D01*
X5195416D01*
X5200414Y5529694D01*
Y5509701D01*
X5195416Y5504702D01*
X5180420D01*
X5210411Y5529694D02*
X5215409Y5534693D01*
X5225406D01*
X5230404Y5529694D01*
Y5509701D01*
X5225406Y5504702D01*
X5215409D01*
X5210411Y5509701D01*
Y5514699D01*
X5215409Y5519698D01*
X5230404D01*
X5260395Y5504702D02*
X5240401D01*
Y5534693D01*
X5260395D01*
X5240401Y5519698D02*
X5250398D01*
X4680420Y5504702D02*
Y5534693D01*
X4695416D01*
X4700414Y5529694D01*
Y5509701D01*
X4695416Y5504702D01*
X4680420D01*
X4710411Y5529694D02*
X4715409Y5534693D01*
X4725406D01*
X4730404Y5529694D01*
Y5509701D01*
X4725406Y5504702D01*
X4715409D01*
X4710411Y5509701D01*
Y5514699D01*
X4715409Y5519698D01*
X4730404D01*
X4740401Y5504702D02*
Y5534693D01*
X4755396D01*
X4760395Y5529694D01*
Y5509701D01*
X4755396Y5504702D01*
X4740401D01*
X4180420D02*
Y5534693D01*
X4195416D01*
X4200414Y5529694D01*
Y5509701D01*
X4195416Y5504702D01*
X4180420D01*
X4210411Y5529694D02*
X4215409Y5534693D01*
X4225406D01*
X4230404Y5529694D01*
Y5509701D01*
X4225406Y5504702D01*
X4215409D01*
X4210411Y5509701D01*
Y5514699D01*
X4215409Y5519698D01*
X4230404D01*
X4260395Y5509701D02*
X4255396Y5504702D01*
X4245399D01*
X4240401Y5509701D01*
Y5529694D01*
X4245399Y5534693D01*
X4255396D01*
X4260395Y5529694D01*
X3680420Y5504702D02*
Y5534693D01*
X3695416D01*
X3700414Y5529694D01*
Y5509701D01*
X3695416Y5504702D01*
X3680420D01*
X3710411Y5529694D02*
X3715409Y5534693D01*
X3725406D01*
X3730404Y5529694D01*
Y5509701D01*
X3725406Y5504702D01*
X3715409D01*
X3710411Y5509701D01*
Y5514699D01*
X3715409Y5519698D01*
X3730404D01*
X3740401Y5504702D02*
Y5534693D01*
X3755396D01*
X3760394Y5529694D01*
Y5524696D01*
X3755396Y5519698D01*
X3740401D01*
X3755396D01*
X3760394Y5514699D01*
Y5509701D01*
X3755396Y5504702D01*
X3740401D01*
X3180420D02*
Y5534693D01*
X3195416D01*
X3200414Y5529694D01*
Y5509701D01*
X3195416Y5504702D01*
X3180420D01*
X3210411Y5529694D02*
X3215409Y5534693D01*
X3225406D01*
X3230404Y5529694D01*
Y5509701D01*
X3225406Y5504702D01*
X3215409D01*
X3210411Y5509701D01*
Y5514699D01*
X3215409Y5519698D01*
X3230404D01*
X3240401Y5534693D02*
Y5514699D01*
X3250398Y5504702D01*
X3260394Y5514699D01*
Y5534693D01*
Y5519698D01*
X3240401D01*
X2226006Y5514992D02*
X2231005Y5519990D01*
X2241002D01*
X2246000Y5514992D01*
Y5494998D01*
X2241002Y5490000D01*
X2231005D01*
X2226006Y5494998D01*
X2216010Y5490000D02*
X2206013D01*
X2211011D01*
Y5519990D01*
X2216010Y5514992D01*
X2176023Y5490000D02*
Y5519990D01*
X2191018Y5504995D01*
X2171024D01*
X2870014Y2115175D02*
Y2085185D01*
X2885009D01*
X2890007Y2090183D01*
Y2100180D01*
X2885009Y2105178D01*
X2870014D01*
X2880010D02*
X2890007Y2115175D01*
X2900004Y2090183D02*
X2905002Y2085185D01*
X2914999D01*
X2919997Y2090183D01*
Y2095181D01*
X2914999Y2100180D01*
X2919997Y2105178D01*
Y2110177D01*
X2914999Y2115175D01*
X2905002D01*
X2900004Y2110177D01*
Y2105178D01*
X2905002Y2100180D01*
X2900004Y2095181D01*
Y2090183D01*
X2905002Y2100180D02*
X2914999D01*
X2949988Y2085185D02*
X2929994D01*
Y2100180D01*
X2939991Y2095181D01*
X2944990D01*
X2949988Y2100180D01*
Y2110177D01*
X2944990Y2115175D01*
X2934993D01*
X2929994Y2110177D01*
X2903110Y2210221D02*
X2933101D01*
Y2225216D01*
X2928102Y2230215D01*
X2918106D01*
X2913107Y2225216D01*
Y2210221D01*
Y2220218D02*
X2903110Y2230215D01*
X2928102Y2240211D02*
X2933101Y2245210D01*
Y2255207D01*
X2928102Y2260205D01*
X2923104D01*
X2918106Y2255207D01*
X2913107Y2260205D01*
X2908109D01*
X2903110Y2255207D01*
Y2245210D01*
X2908109Y2240211D01*
X2913107D01*
X2918106Y2245210D01*
X2923104Y2240211D01*
X2928102D01*
X2918106Y2245210D02*
Y2255207D01*
X2928102Y2270202D02*
X2933101Y2275200D01*
Y2285197D01*
X2928102Y2290195D01*
X2923104D01*
X2918106Y2285197D01*
Y2280199D01*
Y2285197D01*
X2913107Y2290195D01*
X2908109D01*
X2903110Y2285197D01*
Y2275200D01*
X2908109Y2270202D01*
X5303481Y1707972D02*
X5273491D01*
Y1692976D01*
X5278489Y1687978D01*
X5288486D01*
X5293484Y1692976D01*
Y1707972D01*
Y1697975D02*
X5303481Y1687978D01*
X5273491Y1677981D02*
Y1657988D01*
X5278489D01*
X5298483Y1677981D01*
X5303481D01*
Y1632996D02*
X5273491D01*
X5288486Y1647991D01*
Y1627998D01*
X5427525Y1632996D02*
X5457515D01*
Y1647991D01*
X5452516Y1652989D01*
X5442520D01*
X5437521Y1647991D01*
Y1632996D01*
Y1642993D02*
X5427525Y1652989D01*
X5457515Y1662986D02*
Y1682980D01*
X5452516D01*
X5432523Y1662986D01*
X5427525D01*
Y1692976D02*
Y1702973D01*
Y1697975D01*
X5457515D01*
X5452516Y1692976D01*
X9501877Y5164614D02*
Y5194605D01*
X9516873D01*
X9521871Y5189606D01*
Y5169613D01*
X9516873Y5164614D01*
X9501877D01*
X9531868Y5169613D02*
X9536866Y5164614D01*
X9546863D01*
X9551861Y5169613D01*
Y5174611D01*
X9546863Y5179609D01*
X9541864D01*
X9546863D01*
X9551861Y5184608D01*
Y5189606D01*
X9546863Y5194605D01*
X9536866D01*
X9531868Y5189606D01*
X2622710Y2384997D02*
X2627708Y2389995D01*
X2637705D01*
X2642704Y2384997D01*
Y2365003D01*
X2637705Y2360005D01*
X2627708D01*
X2622710Y2365003D01*
X2592720Y2389995D02*
X2612713D01*
Y2375000D01*
X2602716Y2379998D01*
X2597718D01*
X2592720Y2375000D01*
Y2365003D01*
X2597718Y2360005D01*
X2607715D01*
X2612713Y2365003D01*
X2582723Y2384997D02*
X2577724Y2389995D01*
X2567728D01*
X2562729Y2384997D01*
Y2379998D01*
X2567728Y2375000D01*
X2562729Y2370002D01*
Y2365003D01*
X2567728Y2360005D01*
X2577724D01*
X2582723Y2365003D01*
Y2370002D01*
X2577724Y2375000D01*
X2582723Y2379998D01*
Y2384997D01*
X2577724Y2375000D02*
X2567728D01*
X8271600Y3809820D02*
X8266602Y3814818D01*
Y3824815D01*
X8271600Y3829814D01*
X8291594D01*
X8296592Y3824815D01*
Y3814818D01*
X8291594Y3809820D01*
X8296592Y3799823D02*
Y3789827D01*
Y3794825D01*
X8266602D01*
X8271600Y3799823D01*
Y3774831D02*
X8266602Y3769833D01*
Y3759836D01*
X8271600Y3754838D01*
X8291594D01*
X8296592Y3759836D01*
Y3769833D01*
X8291594Y3774831D01*
X8271600D01*
X2783784Y3243780D02*
Y3213789D01*
X2798780D01*
X2803778Y3218788D01*
Y3228784D01*
X2798780Y3233783D01*
X2783784D01*
X2793781D02*
X2803778Y3243780D01*
X2813775D02*
X2823771D01*
X2818773D01*
Y3213789D01*
X2813775Y3218788D01*
X2838767Y3238781D02*
X2843765Y3243780D01*
X2853762D01*
X2858760Y3238781D01*
Y3218788D01*
X2853762Y3213789D01*
X2843765D01*
X2838767Y3218788D01*
Y3223786D01*
X2843765Y3228784D01*
X2858760D01*
X3059677Y3248780D02*
Y3218789D01*
X3074673D01*
X3079671Y3223788D01*
Y3233784D01*
X3074673Y3238783D01*
X3059677D01*
X3069674D02*
X3079671Y3248780D01*
X3089668D02*
X3099665D01*
X3094666D01*
Y3218789D01*
X3089668Y3223788D01*
X3114660D02*
X3119658Y3218789D01*
X3129655D01*
X3134653Y3223788D01*
Y3228786D01*
X3129655Y3233784D01*
X3134653Y3238783D01*
Y3243781D01*
X3129655Y3248780D01*
X3119658D01*
X3114660Y3243781D01*
Y3238783D01*
X3119658Y3233784D01*
X3114660Y3228786D01*
Y3223788D01*
X3119658Y3233784D02*
X3129655D01*
X3320000Y3255000D02*
Y3225010D01*
X3334995D01*
X3339994Y3230008D01*
Y3240005D01*
X3334995Y3245003D01*
X3320000D01*
X3329997D02*
X3339994Y3255000D01*
X3349990D02*
X3359987D01*
X3354989D01*
Y3225010D01*
X3349990Y3230008D01*
X3374982Y3225010D02*
X3394976D01*
Y3230008D01*
X3374982Y3250002D01*
Y3255000D01*
X3590000D02*
Y3225010D01*
X3604995D01*
X3609994Y3230008D01*
Y3240005D01*
X3604995Y3245003D01*
X3590000D01*
X3599997D02*
X3609994Y3255000D01*
X3619990D02*
X3629987D01*
X3624989D01*
Y3225010D01*
X3619990Y3230008D01*
X3664976Y3225010D02*
X3654979Y3230008D01*
X3644982Y3240005D01*
Y3250002D01*
X3649981Y3255000D01*
X3659977D01*
X3664976Y3250002D01*
Y3245003D01*
X3659977Y3240005D01*
X3644982D01*
X9387226Y5071013D02*
X9357235D01*
Y5056018D01*
X9362234Y5051020D01*
X9372230D01*
X9377229Y5056018D01*
Y5071013D01*
Y5061016D02*
X9387226Y5051020D01*
Y5021029D02*
Y5041023D01*
X9367232Y5021029D01*
X9362234D01*
X9357235Y5026028D01*
Y5036025D01*
X9362234Y5041023D01*
X8176151Y3799824D02*
X8171153Y3804822D01*
Y3814819D01*
X8176151Y3819818D01*
X8196145D01*
X8201143Y3814819D01*
Y3804822D01*
X8196145Y3799824D01*
X8201143Y3789827D02*
Y3779831D01*
Y3784829D01*
X8171153D01*
X8176151Y3789827D01*
X8201143Y3764835D02*
Y3754839D01*
Y3759837D01*
X8171153D01*
X8176151Y3764835D01*
X8359990Y3400000D02*
X8334998D01*
X8330000Y3404998D01*
Y3414995D01*
X8334998Y3419994D01*
X8359990D01*
X8330000Y3449984D02*
Y3429990D01*
X8349994Y3449984D01*
X8354992D01*
X8359990Y3444985D01*
Y3434989D01*
X8354992Y3429990D01*
X8571297Y1441323D02*
Y1411332D01*
X8556302D01*
X8551304Y1416331D01*
Y1421329D01*
X8556302Y1426328D01*
X8571297D01*
X8556302D01*
X8551304Y1431326D01*
Y1436324D01*
X8556302Y1441323D01*
X8571297D01*
X8541307Y1411332D02*
Y1431326D01*
X8531310Y1441323D01*
X8521313Y1431326D01*
Y1411332D01*
Y1426328D01*
X8541307D01*
X8511317Y1441323D02*
X8491323D01*
X8501320D01*
Y1411332D01*
X8481326D02*
X8471329D01*
X8476328D01*
Y1441323D01*
X8481326Y1436324D01*
X2298932Y1961572D02*
X2273940D01*
X2268942Y1966571D01*
Y1976567D01*
X2273940Y1981566D01*
X2298932D01*
X2268942Y1991562D02*
Y2001559D01*
Y1996561D01*
X2298932D01*
X2293934Y1991562D01*
X2268942Y2031550D02*
X2298932D01*
X2283937Y2016554D01*
Y2036548D01*
X2298932Y2046545D02*
X2268942D01*
Y2061540D01*
X2273940Y2066538D01*
X2278939D01*
X2283937Y2061540D01*
Y2046545D01*
Y2061540D01*
X2288936Y2066538D01*
X2293934D01*
X2298932Y2061540D01*
Y2046545D01*
X1767554Y1922517D02*
X1742562D01*
X1737564Y1927515D01*
Y1937512D01*
X1742562Y1942511D01*
X1767554D01*
X1737564Y1952507D02*
Y1962504D01*
Y1957506D01*
X1767554D01*
X1762556Y1952507D01*
X1737564Y1992494D02*
X1767554D01*
X1752559Y1977499D01*
Y1997493D01*
X1737564Y2007489D02*
X1757557D01*
X1767554Y2017486D01*
X1757557Y2027483D01*
X1737564D01*
X1752559D01*
Y2007489D01*
X1831277Y3343397D02*
Y3313406D01*
X1846272D01*
X1851271Y3318405D01*
Y3328401D01*
X1846272Y3333400D01*
X1831277D01*
X1841274D02*
X1851271Y3343397D01*
X1861267Y3318405D02*
X1866266Y3313406D01*
X1876263D01*
X1881261Y3318405D01*
Y3323403D01*
X1876263Y3328401D01*
X1881261Y3333400D01*
Y3338398D01*
X1876263Y3343397D01*
X1866266D01*
X1861267Y3338398D01*
Y3333400D01*
X1866266Y3328401D01*
X1861267Y3323403D01*
Y3318405D01*
X1866266Y3328401D02*
X1876263D01*
X1891258Y3313406D02*
X1911251D01*
Y3318405D01*
X1891258Y3338398D01*
Y3343397D01*
X2035652Y1793105D02*
X2005662D01*
Y1778110D01*
X2010660Y1773111D01*
X2020657D01*
X2025656Y1778110D01*
Y1793105D01*
Y1783108D02*
X2035652Y1773111D01*
X2005662Y1743121D02*
Y1763115D01*
X2020657D01*
X2015659Y1753118D01*
Y1748120D01*
X2020657Y1743121D01*
X2030654D01*
X2035652Y1748120D01*
Y1758116D01*
X2030654Y1763115D01*
X2010660Y1733124D02*
X2005662Y1728126D01*
Y1718129D01*
X2010660Y1713131D01*
X2030654D01*
X2035652Y1718129D01*
Y1728126D01*
X2030654Y1733124D01*
X2010660D01*
X2005662Y1703134D02*
X2035652D01*
Y1688139D01*
X2030654Y1683141D01*
X2025656D01*
X2020657Y1688139D01*
Y1703134D01*
Y1688139D01*
X2015659Y1683141D01*
X2010660D01*
X2005662Y1688139D01*
Y1703134D01*
X1505652Y1793105D02*
X1475662D01*
Y1778110D01*
X1480660Y1773111D01*
X1490657D01*
X1495656Y1778110D01*
Y1793105D01*
Y1783108D02*
X1505652Y1773111D01*
X1475662Y1743121D02*
Y1763115D01*
X1490657D01*
X1485659Y1753118D01*
Y1748120D01*
X1490657Y1743121D01*
X1500654D01*
X1505652Y1748120D01*
Y1758116D01*
X1500654Y1763115D01*
X1480660Y1733124D02*
X1475662Y1728126D01*
Y1718129D01*
X1480660Y1713131D01*
X1500654D01*
X1505652Y1718129D01*
Y1728126D01*
X1500654Y1733124D01*
X1480660D01*
X1505652Y1703134D02*
X1485659D01*
X1475662Y1693137D01*
X1485659Y1683141D01*
X1505652D01*
X1490657D01*
Y1703134D01*
X1499982Y2100005D02*
Y2129995D01*
X1484987D01*
X1479989Y2124997D01*
Y2115000D01*
X1484987Y2110002D01*
X1499982D01*
X1489985D02*
X1479989Y2100005D01*
X1454997D02*
Y2129995D01*
X1469992Y2115000D01*
X1449998D01*
X1440002Y2105003D02*
X1435003Y2100005D01*
X1425006D01*
X1420008Y2105003D01*
Y2124997D01*
X1425006Y2129995D01*
X1435003D01*
X1440002Y2124997D01*
Y2119998D01*
X1435003Y2115000D01*
X1420008D01*
X1410011Y2100005D02*
Y2119998D01*
X1400014Y2129995D01*
X1390018Y2119998D01*
Y2100005D01*
Y2115000D01*
X1410011D01*
X2216068Y1680014D02*
X2246058D01*
Y1695009D01*
X2241060Y1700008D01*
X2231063D01*
X2226065Y1695009D01*
Y1680014D01*
Y1690011D02*
X2216068Y1700008D01*
Y1725000D02*
X2246058D01*
X2231063Y1710004D01*
Y1729998D01*
X2241060Y1739995D02*
X2246058Y1744993D01*
Y1754990D01*
X2241060Y1759988D01*
X2236061D01*
X2231063Y1754990D01*
X2226065Y1759988D01*
X2221066D01*
X2216068Y1754990D01*
Y1744993D01*
X2221066Y1739995D01*
X2226065D01*
X2231063Y1744993D01*
X2236061Y1739995D01*
X2241060D01*
X2231063Y1744993D02*
Y1754990D01*
X2246058Y1769985D02*
X2216068D01*
Y1784980D01*
X2221066Y1789978D01*
X2226065D01*
X2231063Y1784980D01*
Y1769985D01*
Y1784980D01*
X2236061Y1789978D01*
X2241060D01*
X2246058Y1784980D01*
Y1769985D01*
X1686136Y1685014D02*
X1716126D01*
Y1700009D01*
X1711128Y1705008D01*
X1701131D01*
X1696133Y1700009D01*
Y1685014D01*
Y1695011D02*
X1686136Y1705008D01*
Y1730000D02*
X1716126D01*
X1701131Y1715004D01*
Y1734998D01*
X1711128Y1744995D02*
X1716126Y1749993D01*
Y1759990D01*
X1711128Y1764988D01*
X1706129D01*
X1701131Y1759990D01*
X1696133Y1764988D01*
X1691134D01*
X1686136Y1759990D01*
Y1749993D01*
X1691134Y1744995D01*
X1696133D01*
X1701131Y1749993D01*
X1706129Y1744995D01*
X1711128D01*
X1701131Y1749993D02*
Y1759990D01*
X1686136Y1774985D02*
X1706129D01*
X1716126Y1784982D01*
X1706129Y1794978D01*
X1686136D01*
X1701131D01*
Y1774985D01*
X2267138Y1492564D02*
Y1522554D01*
X2282133D01*
X2287131Y1517556D01*
Y1497562D01*
X2282133Y1492564D01*
X2267138D01*
X2317122Y1522554D02*
X2297128D01*
X2317122Y1502561D01*
Y1497562D01*
X2312123Y1492564D01*
X2302127D01*
X2297128Y1497562D01*
X2327119D02*
X2332117Y1492564D01*
X2342114D01*
X2347112Y1497562D01*
Y1502561D01*
X2342114Y1507559D01*
X2347112Y1512557D01*
Y1517556D01*
X2342114Y1522554D01*
X2332117D01*
X2327119Y1517556D01*
Y1512557D01*
X2332117Y1507559D01*
X2327119Y1502561D01*
Y1497562D01*
X2332117Y1507559D02*
X2342114D01*
X2357109Y1492564D02*
Y1522554D01*
X2372104D01*
X2377102Y1517556D01*
Y1512557D01*
X2372104Y1507559D01*
X2357109D01*
X2372104D01*
X2377102Y1502561D01*
Y1497562D01*
X2372104Y1492564D01*
X2357109D01*
X1851045Y1688995D02*
Y1659005D01*
X1836050D01*
X1831052Y1664003D01*
Y1683997D01*
X1836050Y1688995D01*
X1851045D01*
X1801061Y1659005D02*
X1821055D01*
X1801061Y1678998D01*
Y1683997D01*
X1806060Y1688995D01*
X1816056D01*
X1821055Y1683997D01*
X1791065D02*
X1786066Y1688995D01*
X1776069D01*
X1771071Y1683997D01*
Y1678998D01*
X1776069Y1674000D01*
X1771071Y1669002D01*
Y1664003D01*
X1776069Y1659005D01*
X1786066D01*
X1791065Y1664003D01*
Y1669002D01*
X1786066Y1674000D01*
X1791065Y1678998D01*
Y1683997D01*
X1786066Y1674000D02*
X1776069D01*
X1761074Y1659005D02*
Y1678998D01*
X1751078Y1688995D01*
X1741081Y1678998D01*
Y1659005D01*
Y1674000D01*
X1761074D01*
X1984628Y1688995D02*
Y1659005D01*
X1969633D01*
X1964634Y1664003D01*
Y1683997D01*
X1969633Y1688995D01*
X1984628D01*
X1934644Y1659005D02*
X1954638D01*
X1934644Y1678998D01*
Y1683997D01*
X1939642Y1688995D01*
X1949639D01*
X1954638Y1683997D01*
X1924647Y1688995D02*
X1904654D01*
Y1683997D01*
X1924647Y1664003D01*
Y1659005D01*
X1894657Y1688995D02*
Y1659005D01*
X1879662D01*
X1874663Y1664003D01*
Y1669002D01*
X1879662Y1674000D01*
X1894657D01*
X1879662D01*
X1874663Y1678998D01*
Y1683997D01*
X1879662Y1688995D01*
X1894657D01*
X1401908Y1494118D02*
Y1524109D01*
X1416903D01*
X1421901Y1519110D01*
Y1499117D01*
X1416903Y1494118D01*
X1401908D01*
X1451891Y1524109D02*
X1431898D01*
X1451891Y1504115D01*
Y1499117D01*
X1446893Y1494118D01*
X1436896D01*
X1431898Y1499117D01*
X1461888Y1494118D02*
X1481882D01*
Y1499117D01*
X1461888Y1519110D01*
Y1524109D01*
X1491879D02*
Y1504115D01*
X1501875Y1494118D01*
X1511872Y1504115D01*
Y1524109D01*
Y1509113D01*
X1491879D01*
X2034964Y2078342D02*
Y2048351D01*
X2019969D01*
X2014971Y2053350D01*
Y2073343D01*
X2019969Y2078342D01*
X2034964D01*
X1984981Y2048351D02*
X2004974D01*
X1984981Y2068345D01*
Y2073343D01*
X1989979Y2078342D01*
X1999976D01*
X2004974Y2073343D01*
X1954990Y2078342D02*
X1964987Y2073343D01*
X1974984Y2063347D01*
Y2053350D01*
X1969985Y2048351D01*
X1959989D01*
X1954990Y2053350D01*
Y2058348D01*
X1959989Y2063347D01*
X1974984D01*
X1944994Y2078342D02*
Y2048351D01*
X1929998D01*
X1925000Y2053350D01*
Y2058348D01*
X1929998Y2063347D01*
X1944994D01*
X1929998D01*
X1925000Y2068345D01*
Y2073343D01*
X1929998Y2078342D01*
X1944994D01*
X1333263Y2009984D02*
X1363254D01*
Y1994989D01*
X1358255Y1989990D01*
X1338262D01*
X1333263Y1994989D01*
Y2009984D01*
X1363254Y1960000D02*
Y1979994D01*
X1343260Y1960000D01*
X1338262D01*
X1333263Y1964998D01*
Y1974995D01*
X1338262Y1979994D01*
X1333263Y1930010D02*
X1338262Y1940006D01*
X1348258Y1950003D01*
X1358255D01*
X1363254Y1945005D01*
Y1935008D01*
X1358255Y1930010D01*
X1353257D01*
X1348258Y1935008D01*
Y1950003D01*
X1363254Y1920013D02*
X1343260D01*
X1333263Y1910016D01*
X1343260Y1900020D01*
X1363254D01*
X1348258D01*
Y1920013D01*
X1860005Y1335657D02*
X1889995D01*
Y1320661D01*
X1884997Y1315663D01*
X1865003D01*
X1860005Y1320661D01*
Y1335657D01*
X1889995Y1285673D02*
Y1305666D01*
X1870002Y1285673D01*
X1865003D01*
X1860005Y1290671D01*
Y1300668D01*
X1865003Y1305666D01*
X1860005Y1255682D02*
Y1275676D01*
X1875000D01*
X1870002Y1265679D01*
Y1260681D01*
X1875000Y1255682D01*
X1884997D01*
X1889995Y1260681D01*
Y1270678D01*
X1884997Y1275676D01*
X1860005Y1245686D02*
X1889995D01*
Y1230690D01*
X1884997Y1225692D01*
X1879998D01*
X1875000Y1230690D01*
Y1245686D01*
Y1230690D01*
X1870002Y1225692D01*
X1865003D01*
X1860005Y1230690D01*
Y1245686D01*
X1576203Y1074995D02*
Y1045005D01*
X1561207D01*
X1556209Y1050003D01*
Y1069997D01*
X1561207Y1074995D01*
X1576203D01*
X1526219Y1045005D02*
X1546212D01*
X1526219Y1064998D01*
Y1069997D01*
X1531217Y1074995D01*
X1541214D01*
X1546212Y1069997D01*
X1496229Y1074995D02*
X1516222D01*
Y1060000D01*
X1506225Y1064998D01*
X1501227D01*
X1496229Y1060000D01*
Y1050003D01*
X1501227Y1045005D01*
X1511224D01*
X1516222Y1050003D01*
X1486232Y1045005D02*
Y1064998D01*
X1476235Y1074995D01*
X1466238Y1064998D01*
Y1045005D01*
Y1060000D01*
X1486232D01*
X1660787Y3554791D02*
X1655789Y3549792D01*
X1645792D01*
X1640794Y3554791D01*
Y3574784D01*
X1645792Y3579782D01*
X1655789D01*
X1660787Y3574784D01*
X1690778Y3549792D02*
X1680781Y3554791D01*
X1670784Y3564787D01*
Y3574784D01*
X1675783Y3579782D01*
X1685780D01*
X1690778Y3574784D01*
Y3569786D01*
X1685780Y3564787D01*
X1670784D01*
X1720768Y3549792D02*
X1710771Y3554791D01*
X1700775Y3564787D01*
Y3574784D01*
X1705773Y3579782D01*
X1715770D01*
X1720768Y3574784D01*
Y3569786D01*
X1715770Y3564787D01*
X1700775D01*
X1417997Y3320006D02*
X1422995Y3315008D01*
Y3305011D01*
X1417997Y3300013D01*
X1398003D01*
X1393005Y3305011D01*
Y3315008D01*
X1398003Y3320006D01*
X1422995Y3349997D02*
X1417997Y3340000D01*
X1408000Y3330003D01*
X1398003D01*
X1393005Y3335002D01*
Y3344999D01*
X1398003Y3349997D01*
X1403002D01*
X1408000Y3344999D01*
Y3330003D01*
X1422995Y3379987D02*
Y3359994D01*
X1408000D01*
X1412998Y3369990D01*
Y3374989D01*
X1408000Y3379987D01*
X1398003D01*
X1393005Y3374989D01*
Y3364992D01*
X1398003Y3359994D01*
X1949098Y1859989D02*
X1944099Y1864987D01*
Y1874984D01*
X1949098Y1879982D01*
X1969091D01*
X1974090Y1874984D01*
Y1864987D01*
X1969091Y1859989D01*
X1974090Y1834997D02*
X1944099D01*
X1959094Y1849992D01*
Y1829998D01*
X1944099Y1820002D02*
Y1800008D01*
X1949098D01*
X1969091Y1820002D01*
X1974090D01*
X1944099Y1790011D02*
X1974090D01*
Y1775016D01*
X1969091Y1770018D01*
X1964093D01*
X1959094Y1775016D01*
Y1790011D01*
Y1775016D01*
X1954096Y1770018D01*
X1949098D01*
X1944099Y1775016D01*
Y1790011D01*
X1419098Y1859989D02*
X1414099Y1864987D01*
Y1874984D01*
X1419098Y1879982D01*
X1439091D01*
X1444090Y1874984D01*
Y1864987D01*
X1439091Y1859989D01*
X1444090Y1834997D02*
X1414099D01*
X1429094Y1849992D01*
Y1829998D01*
X1414099Y1820002D02*
Y1800008D01*
X1419098D01*
X1439091Y1820002D01*
X1444090D01*
Y1790011D02*
X1424096D01*
X1414099Y1780014D01*
X1424096Y1770018D01*
X1444090D01*
X1429094D01*
Y1790011D01*
X2118503Y1771686D02*
X2113504Y1776685D01*
Y1786681D01*
X2118503Y1791680D01*
X2138496D01*
X2143494Y1786681D01*
Y1776685D01*
X2138496Y1771686D01*
X2143494Y1746694D02*
X2113504D01*
X2128499Y1761689D01*
Y1741696D01*
X2113504Y1711706D02*
X2118503Y1721702D01*
X2128499Y1731699D01*
X2138496D01*
X2143494Y1726701D01*
Y1716704D01*
X2138496Y1711706D01*
X2133498D01*
X2128499Y1716704D01*
Y1731699D01*
X2113504Y1701709D02*
X2143494D01*
Y1686714D01*
X2138496Y1681715D01*
X2133498D01*
X2128499Y1686714D01*
Y1701709D01*
Y1686714D01*
X2123501Y1681715D01*
X2118503D01*
X2113504Y1686714D01*
Y1701709D01*
X1588503Y1771686D02*
X1583504Y1776685D01*
Y1786681D01*
X1588503Y1791680D01*
X1608496D01*
X1613495Y1786681D01*
Y1776685D01*
X1608496Y1771686D01*
X1613495Y1746694D02*
X1583504D01*
X1598499Y1761689D01*
Y1741696D01*
X1583504Y1711706D02*
X1588503Y1721702D01*
X1598499Y1731699D01*
X1608496D01*
X1613495Y1726701D01*
Y1716704D01*
X1608496Y1711706D01*
X1603498D01*
X1598499Y1716704D01*
Y1731699D01*
X1613495Y1701709D02*
X1593501D01*
X1583504Y1691712D01*
X1593501Y1681715D01*
X1613495D01*
X1598499D01*
Y1701709D01*
X2361738Y1781495D02*
X2366737Y1776496D01*
Y1766500D01*
X2361738Y1761501D01*
X2341745D01*
X2336747Y1766500D01*
Y1776496D01*
X2341745Y1781495D01*
X2336747Y1806487D02*
X2366737D01*
X2351742Y1791492D01*
Y1811485D01*
X2366737Y1841475D02*
Y1821482D01*
X2351742D01*
X2356740Y1831479D01*
Y1836477D01*
X2351742Y1841475D01*
X2341745D01*
X2336747Y1836477D01*
Y1826480D01*
X2341745Y1821482D01*
X2366737Y1851472D02*
X2336747D01*
Y1866467D01*
X2341745Y1871466D01*
X2346743D01*
X2351742Y1866467D01*
Y1851472D01*
Y1866467D01*
X2356740Y1871466D01*
X2361738D01*
X2366737Y1866467D01*
Y1851472D01*
X1831738Y1781495D02*
X1836737Y1776496D01*
Y1766499D01*
X1831738Y1761501D01*
X1811745D01*
X1806746Y1766499D01*
Y1776496D01*
X1811745Y1781495D01*
X1806746Y1806487D02*
X1836737D01*
X1821742Y1791491D01*
Y1811485D01*
X1836737Y1841475D02*
Y1821482D01*
X1821742D01*
X1826740Y1831478D01*
Y1836477D01*
X1821742Y1841475D01*
X1811745D01*
X1806746Y1836477D01*
Y1826480D01*
X1811745Y1821482D01*
X1806746Y1851472D02*
X1826740D01*
X1836737Y1861469D01*
X1826740Y1871466D01*
X1806746D01*
X1821742D01*
Y1851472D01*
X1786066Y1451052D02*
X1781068Y1456050D01*
Y1466047D01*
X1786066Y1471045D01*
X1806060D01*
X1811058Y1466047D01*
Y1456050D01*
X1806060Y1451052D01*
X1811058Y1426060D02*
X1781068D01*
X1796063Y1441055D01*
Y1421061D01*
X1811058Y1396069D02*
X1781068D01*
X1796063Y1411065D01*
Y1391071D01*
X1781068Y1381074D02*
X1811058D01*
Y1366079D01*
X1806060Y1361081D01*
X1801061D01*
X1796063Y1366079D01*
Y1381074D01*
Y1366079D01*
X1791065Y1361081D01*
X1786066D01*
X1781068Y1366079D01*
Y1381074D01*
X1305003Y1514989D02*
X1300005Y1519987D01*
Y1529984D01*
X1305003Y1534982D01*
X1324997D01*
X1329995Y1529984D01*
Y1519987D01*
X1324997Y1514989D01*
X1329995Y1489997D02*
X1300005D01*
X1315000Y1504992D01*
Y1484998D01*
X1329995Y1460006D02*
X1300005D01*
X1315000Y1475002D01*
Y1455008D01*
X1329995Y1445011D02*
X1310002D01*
X1300005Y1435014D01*
X1310002Y1425018D01*
X1329995D01*
X1315000D01*
Y1445011D01*
X1605435Y4695007D02*
Y4724997D01*
X1590440D01*
X1585442Y4719999D01*
Y4710002D01*
X1590440Y4705003D01*
X1605435D01*
X1595439D02*
X1585442Y4695007D01*
X1560450D02*
Y4724997D01*
X1575445Y4710002D01*
X1555452D01*
X1545455Y4695007D02*
X1535458D01*
X1540456D01*
Y4724997D01*
X1545455Y4719999D01*
X1610444Y4290005D02*
Y4319995D01*
X1595448D01*
X1590450Y4314997D01*
Y4305000D01*
X1595448Y4300002D01*
X1610444D01*
X1600447D02*
X1590450Y4290005D01*
X1565458D02*
Y4319995D01*
X1580453Y4305000D01*
X1560460D01*
X1550463Y4314997D02*
X1545465Y4319995D01*
X1535468D01*
X1530469Y4314997D01*
Y4295003D01*
X1535468Y4290005D01*
X1545465D01*
X1550463Y4295003D01*
Y4314997D01*
X1610450Y4630005D02*
Y4659995D01*
X1595455D01*
X1590457Y4654997D01*
Y4645000D01*
X1595455Y4640002D01*
X1610450D01*
X1600453D02*
X1590457Y4630005D01*
X1580460Y4654997D02*
X1575461Y4659995D01*
X1565465D01*
X1560466Y4654997D01*
Y4649998D01*
X1565465Y4645000D01*
X1570463D01*
X1565465D01*
X1560466Y4640002D01*
Y4635003D01*
X1565465Y4630005D01*
X1575461D01*
X1580460Y4635003D01*
X1550470D02*
X1545471Y4630005D01*
X1535474D01*
X1530476Y4635003D01*
Y4654997D01*
X1535474Y4659995D01*
X1545471D01*
X1550470Y4654997D01*
Y4649998D01*
X1545471Y4645000D01*
X1530476D01*
X1610447Y4435005D02*
Y4464995D01*
X1595452D01*
X1590453Y4459997D01*
Y4450000D01*
X1595452Y4445002D01*
X1610447D01*
X1600450D02*
X1590453Y4435005D01*
X1580457Y4459997D02*
X1575458Y4464995D01*
X1565461D01*
X1560463Y4459997D01*
Y4454998D01*
X1565461Y4450000D01*
X1570460D01*
X1565461D01*
X1560463Y4445002D01*
Y4440003D01*
X1565461Y4435005D01*
X1575458D01*
X1580457Y4440003D01*
X1550466Y4459997D02*
X1545468Y4464995D01*
X1535471D01*
X1530473Y4459997D01*
Y4454998D01*
X1535471Y4450000D01*
X1530473Y4445002D01*
Y4440003D01*
X1535471Y4435005D01*
X1545468D01*
X1550466Y4440003D01*
Y4445002D01*
X1545468Y4450000D01*
X1550466Y4454998D01*
Y4459997D01*
X1545468Y4450000D02*
X1535471D01*
X1610434Y4360007D02*
Y4389997D01*
X1595438D01*
X1590440Y4384999D01*
Y4375002D01*
X1595438Y4370004D01*
X1610434D01*
X1600437D02*
X1590440Y4360007D01*
X1580443Y4384999D02*
X1575445Y4389997D01*
X1565448D01*
X1560450Y4384999D01*
Y4380000D01*
X1565448Y4375002D01*
X1570447D01*
X1565448D01*
X1560450Y4370004D01*
Y4365005D01*
X1565448Y4360007D01*
X1575445D01*
X1580443Y4365005D01*
X1550453Y4389997D02*
X1530460D01*
Y4384999D01*
X1550453Y4365005D01*
Y4360007D01*
X1590440Y4554997D02*
X1595438Y4559995D01*
X1605435D01*
X1610434Y4554997D01*
Y4535003D01*
X1605435Y4530005D01*
X1595438D01*
X1590440Y4535003D01*
X1580443Y4554997D02*
X1575445Y4559995D01*
X1565448D01*
X1560450Y4554997D01*
Y4549998D01*
X1565448Y4545000D01*
X1570447D01*
X1565448D01*
X1560450Y4540002D01*
Y4535003D01*
X1565448Y4530005D01*
X1575445D01*
X1580443Y4535003D01*
X1530460Y4559995D02*
X1550453D01*
Y4545000D01*
X1540456Y4549998D01*
X1535458D01*
X1530460Y4545000D01*
Y4535003D01*
X1535458Y4530005D01*
X1545455D01*
X1550453Y4535003D01*
X1163166Y4535006D02*
X1158168Y4530007D01*
X1148171D01*
X1143173Y4535006D01*
Y4554999D01*
X1148171Y4559998D01*
X1158168D01*
X1163166Y4554999D01*
X1173163Y4535006D02*
X1178161Y4530007D01*
X1188158D01*
X1193156Y4535006D01*
Y4540004D01*
X1188158Y4545002D01*
X1183160D01*
X1188158D01*
X1193156Y4550001D01*
Y4554999D01*
X1188158Y4559998D01*
X1178161D01*
X1173163Y4554999D01*
X1218148Y4559998D02*
Y4530007D01*
X1203153Y4545002D01*
X1223147D01*
X7969586Y3379990D02*
X7989580D01*
Y3364995D01*
X7979583D01*
X7989580D01*
Y3350000D01*
X7959589Y3379990D02*
Y3350000D01*
X7944594D01*
X7939596Y3354998D01*
Y3359997D01*
X7944594Y3364995D01*
X7959589D01*
X7944594D01*
X7939596Y3369994D01*
Y3374992D01*
X7944594Y3379990D01*
X7959589D01*
X7929599Y3374992D02*
X7924601Y3379990D01*
X7914604D01*
X7909606Y3374992D01*
Y3369994D01*
X7914604Y3364995D01*
X7919602D01*
X7914604D01*
X7909606Y3359997D01*
Y3354998D01*
X7914604Y3350000D01*
X7924601D01*
X7929599Y3354998D01*
D229*
X2942520Y1547835D02*
X3057480D01*
X3942520D02*
X4057480D01*
X4942520D02*
X5057480D01*
X5942520D02*
X6057480D01*
X2442520D02*
X2557480D01*
X3442520D02*
X3557480D01*
X4442520D02*
X4557480D01*
X5442520D02*
X5557480D01*
X9503443Y5148583D02*
X9618403D01*
%TF.MD5,097a7b9679d8fe4152ba25b0bda3155b*%
M02*
