%TF.GenerationSoftware,Altium Limited,Altium Designer,22.3.1 (43)*%
G04 Layer_Color=0*
%FSLAX26Y26*%
%MOIN*%
%TF.SameCoordinates,F0E5A86D-29B0-4C41-8DB9-0BED1FB65684*%
%TF.FilePolarity,Positive*%
%TF.FileFunction,Plated,1,4,PTH,Drill*%
%TF.Part,Single*%
G01*
G75*
%TA.AperFunction,ComponentDrill*%
%ADD234C,0.020000*%
%ADD235C,0.090551*%
%ADD236C,0.035433*%
%ADD237C,0.177165*%
%ADD238C,0.062992*%
%ADD239C,0.020000*%
%ADD240C,0.073000*%
%ADD241C,0.040000*%
%ADD242C,0.070000*%
%ADD243C,0.050000*%
%ADD244C,0.040157*%
%ADD245C,0.066929*%
%ADD246C,0.030000*%
%ADD247C,0.078740*%
%ADD248C,0.118110*%
%ADD249C,0.040000*%
%ADD250C,0.040157*%
%ADD251C,0.066929*%
%ADD252C,0.029528*%
%ADD253C,0.029528*%
%ADD254C,0.062992*%
%ADD255C,0.035039*%
%ADD256C,0.061811*%
%TA.AperFunction,ViaDrill,NotFilled*%
%ADD257C,0.020000*%
%ADD258C,0.010000*%
%ADD259C,0.012000*%
%ADD260C,0.025000*%
%ADD261C,0.030000*%
%ADD262C,0.015000*%
%ADD263C,0.016000*%
D234*
X5335615Y1783753D02*
D03*
X4722379Y3928004D02*
D03*
X4755440Y3872326D02*
D03*
X4948760Y3969762D02*
D03*
X4407375Y3753168D02*
D03*
X4693147Y3825000D02*
D03*
X4651264Y3784487D02*
D03*
X4656387Y3713076D02*
D03*
X5062766Y3758736D02*
D03*
Y3802932D02*
D03*
X4766456Y4350000D02*
D03*
X4728647Y4310000D02*
D03*
X4682051Y4264487D02*
D03*
X5037601Y4178553D02*
D03*
X4975271Y4158000D02*
D03*
X4922268Y4122876D02*
D03*
X4864123Y4088736D02*
D03*
X4110000Y3714047D02*
D03*
X3955000Y3705000D02*
D03*
X3805000Y3730000D02*
D03*
X4645000Y3120000D02*
D03*
X3740668Y4206393D02*
D03*
X3790000Y3495000D02*
D03*
X3955000Y3503534D02*
D03*
X2438347Y2148739D02*
D03*
D235*
X1213858Y2312992D02*
D03*
Y2787008D02*
D03*
D236*
X1320158Y2500787D02*
D03*
Y2599213D02*
D03*
X1398898D02*
D03*
Y2500787D02*
D03*
D237*
X5925000Y3466363D02*
D03*
X9500000Y1250000D02*
D03*
X6030000Y6250000D02*
D03*
X2635000D02*
D03*
X9500000D02*
D03*
X1250000D02*
D03*
X6600000Y1250000D02*
D03*
X1250000D02*
D03*
D238*
X9080000Y1570000D02*
D03*
X8980000Y1670000D02*
D03*
X9180000D02*
D03*
Y1470000D02*
D03*
X8980000D02*
D03*
D239*
X4650000Y3195000D02*
D03*
X4585000D02*
D03*
X4575000Y3255000D02*
D03*
X9033681Y4655327D02*
D03*
X2737626Y4676672D02*
D03*
X2767375Y4714074D02*
D03*
X2729449Y4748453D02*
D03*
X2767375Y4779665D02*
D03*
X7613032Y4648032D02*
D03*
X3876912Y4181123D02*
D03*
X4315000Y3120000D02*
D03*
X3782235Y1824733D02*
D03*
X3472398Y1865188D02*
D03*
X3325000D02*
D03*
X2180000Y2170000D02*
D03*
D240*
X9526869Y4456958D02*
D03*
Y3936958D02*
D03*
X8876869Y4011958D02*
D03*
Y4196958D02*
D03*
Y4381958D02*
D03*
X9026869Y4011958D02*
D03*
Y4196958D02*
D03*
Y4381958D02*
D03*
D241*
X8379286Y3605073D02*
D03*
X5998693Y3820126D02*
D03*
D242*
X8050000Y1720000D02*
D03*
Y1970000D02*
D03*
X8120000Y1210000D02*
D03*
X7860000D02*
D03*
X7050000Y1720000D02*
D03*
Y1970000D02*
D03*
X7120000Y1210000D02*
D03*
X6860000D02*
D03*
X7360000D02*
D03*
X7620000D02*
D03*
X7550000Y1970000D02*
D03*
Y1720000D02*
D03*
D243*
X2038428Y4806425D02*
D03*
Y4906425D02*
D03*
X9660914Y2585000D02*
D03*
Y2785000D02*
D03*
Y2685000D02*
D03*
D244*
X3150000Y5875000D02*
D03*
X3012205D02*
D03*
X2218110Y1381890D02*
D03*
X2100000D02*
D03*
X2218110Y1500000D02*
D03*
X2100000D02*
D03*
X1718110Y1381890D02*
D03*
X1600000D02*
D03*
X1718110Y1500000D02*
D03*
X1600000D02*
D03*
X2600000D02*
D03*
X2718110D02*
D03*
X2600000Y1381890D02*
D03*
X2718110D02*
D03*
X3100000Y1500000D02*
D03*
X3218110D02*
D03*
X3100000Y1381890D02*
D03*
X3218110D02*
D03*
X3600000Y1500000D02*
D03*
X3718110D02*
D03*
X3600000Y1381890D02*
D03*
X3718110D02*
D03*
X4099994Y1499998D02*
D03*
X4218105D02*
D03*
X4099994Y1381888D02*
D03*
X4218105D02*
D03*
X4600000Y1500000D02*
D03*
X4718110D02*
D03*
X4600000Y1381890D02*
D03*
X4718110D02*
D03*
X5099994Y1499998D02*
D03*
X5218105D02*
D03*
X5099994Y1381888D02*
D03*
X5218105D02*
D03*
X5600000Y1500000D02*
D03*
X5718110D02*
D03*
X5600000Y1381890D02*
D03*
X5718110D02*
D03*
X6099994Y1499998D02*
D03*
X6218105D02*
D03*
X6099994Y1381888D02*
D03*
X6218105D02*
D03*
X3650000Y5875000D02*
D03*
X3512205D02*
D03*
X4150000D02*
D03*
X4012205D02*
D03*
X4650000D02*
D03*
X4512205D02*
D03*
X5150000D02*
D03*
X5012205D02*
D03*
X5650000D02*
D03*
X5512205D02*
D03*
X6550000D02*
D03*
X6412205D02*
D03*
X7050000D02*
D03*
X6912205D02*
D03*
X7550000D02*
D03*
X7412205D02*
D03*
X8050000D02*
D03*
X7912205D02*
D03*
X8550000D02*
D03*
X8412205D02*
D03*
X9050000D02*
D03*
X8912205D02*
D03*
X1750000D02*
D03*
X1612205D02*
D03*
X2250000D02*
D03*
X2112205D02*
D03*
D245*
X3248425Y6186417D02*
D03*
X2913780D02*
D03*
X3748425D02*
D03*
X3413780D02*
D03*
X4248425D02*
D03*
X3913780D02*
D03*
X4748425D02*
D03*
X4413779D02*
D03*
X5248425D02*
D03*
X4913779D02*
D03*
X5748425D02*
D03*
X5413779D02*
D03*
X6648425D02*
D03*
X6313779D02*
D03*
X7148425D02*
D03*
X6813779D02*
D03*
X7648425D02*
D03*
X7313779D02*
D03*
X8148425D02*
D03*
X7813779D02*
D03*
X8648425D02*
D03*
X8313780D02*
D03*
X9148425D02*
D03*
X8813780D02*
D03*
X1848425D02*
D03*
X1513780D02*
D03*
X2348425D02*
D03*
X2013780D02*
D03*
D246*
X7681575Y5130000D02*
D03*
X7878425D02*
D03*
X4226575D02*
D03*
X4423425D02*
D03*
X8256575D02*
D03*
X8453425D02*
D03*
X5376575D02*
D03*
X5573425D02*
D03*
X4801575D02*
D03*
X4998425D02*
D03*
X5956575D02*
D03*
X6153425D02*
D03*
X3076575D02*
D03*
X3273425D02*
D03*
X3651575D02*
D03*
X3848425D02*
D03*
X6531575D02*
D03*
X6728425D02*
D03*
X7106575D02*
D03*
X7303425D02*
D03*
D247*
X9370000Y4834252D02*
D03*
Y5365748D02*
D03*
D248*
X9133780Y4958268D02*
D03*
Y5241732D02*
D03*
D249*
X3670000Y5462005D02*
D03*
X4170000D02*
D03*
X4670000D02*
D03*
X5170000D02*
D03*
X5670000D02*
D03*
X6570000D02*
D03*
X7070000D02*
D03*
X7570000D02*
D03*
X8070000D02*
D03*
X8570000D02*
D03*
X9070000D02*
D03*
X3170000D02*
D03*
D250*
X1625000Y5625000D02*
D03*
Y5487205D02*
D03*
Y4987205D02*
D03*
Y5125000D02*
D03*
X1745158Y3474843D02*
D03*
Y3705157D02*
D03*
Y3374843D02*
D03*
Y3805157D02*
D03*
D251*
X1313583Y5723425D02*
D03*
Y5388779D02*
D03*
Y4888779D02*
D03*
Y5223425D02*
D03*
D252*
X2623851Y5831097D02*
D03*
Y5731097D02*
D03*
X2695000Y3100000D02*
D03*
Y3000000D02*
D03*
X2955000Y3100000D02*
D03*
Y3000000D02*
D03*
X3220000Y3100000D02*
D03*
Y3000000D02*
D03*
X3485000Y3100000D02*
D03*
Y3000000D02*
D03*
D253*
X6105000Y5665158D02*
D03*
X6005000D02*
D03*
D254*
X9290000Y1900000D02*
D03*
X9190000Y1800000D02*
D03*
Y2000000D02*
D03*
X9390000D02*
D03*
Y1800000D02*
D03*
D255*
X1555000Y3415000D02*
D03*
Y3515000D02*
D03*
Y3615000D02*
D03*
Y3715000D02*
D03*
X1455000Y3465000D02*
D03*
Y3565000D02*
D03*
Y3665000D02*
D03*
Y3765000D02*
D03*
D256*
X1325079Y3285079D02*
D03*
Y3894921D02*
D03*
D257*
X5275913Y4455000D02*
D03*
X1815404Y5147373D02*
D03*
X9298535Y2261964D02*
D03*
X8696314Y1433626D02*
D03*
X7618556Y4461659D02*
D03*
X8430013Y3894782D02*
D03*
X1623052Y3831198D02*
D03*
X2349706Y3994496D02*
D03*
X1796551Y4450440D02*
D03*
X7400000Y4070000D02*
D03*
X8521312Y1108584D02*
D03*
X1421699Y2160005D02*
D03*
X1545620Y2289490D02*
D03*
X1736159Y2334213D02*
D03*
X1906599Y2341102D02*
D03*
X1394541Y4547287D02*
D03*
X5690000Y2089304D02*
D03*
X8174376Y1100000D02*
D03*
X8172753Y1320000D02*
D03*
X8174376Y1460000D02*
D03*
X8170560Y1580000D02*
D03*
Y1688000D02*
D03*
X8161564Y1827000D02*
D03*
X8163188Y1961968D02*
D03*
X8945000Y2085851D02*
D03*
X8152761Y2110000D02*
D03*
X7813565Y2181832D02*
D03*
X8018228Y2192677D02*
D03*
X7618376Y2265000D02*
D03*
X7338832Y2320000D02*
D03*
X7499872D02*
D03*
X7154260D02*
D03*
X9085306Y2710000D02*
D03*
X5121663Y2325743D02*
D03*
X5375222D02*
D03*
X6987077Y2320000D02*
D03*
X6242274D02*
D03*
X6518376D02*
D03*
X6753967D02*
D03*
X5642520D02*
D03*
X5949557D02*
D03*
X1269046Y1512559D02*
D03*
X1275109Y2004192D02*
D03*
X1740000Y2017559D02*
D03*
X3160000Y2330441D02*
D03*
X3608228Y2254528D02*
D03*
X3612508Y2071211D02*
D03*
X4189297Y2111772D02*
D03*
X3876349Y2206034D02*
D03*
X3995024Y2182921D02*
D03*
X2718380Y2338518D02*
D03*
X2940896Y2335953D02*
D03*
X3320624Y2334213D02*
D03*
X3443740D02*
D03*
X3579715D02*
D03*
X3696006D02*
D03*
X3820233Y2349141D02*
D03*
X3962990Y2470580D02*
D03*
X4036142Y2540000D02*
D03*
X4134250Y2354053D02*
D03*
X4197585Y2540000D02*
D03*
X2158372Y2335953D02*
D03*
X2432348Y2334213D02*
D03*
X4251000Y2066575D02*
D03*
X4393127Y2084353D02*
D03*
X5054676Y2137654D02*
D03*
X4575000Y2152485D02*
D03*
X4847195Y2349141D02*
D03*
X4242007Y2449126D02*
D03*
X4549660Y2540000D02*
D03*
X4379869D02*
D03*
X4742274Y2446473D02*
D03*
X4667077Y2508162D02*
D03*
X1380669Y1060000D02*
D03*
D258*
X9395000Y1734476D02*
D03*
X9365102D02*
D03*
X9332224D02*
D03*
X9298535D02*
D03*
X9263325D02*
D03*
X9227559D02*
D03*
X9007044Y1961968D02*
D03*
X8990232Y1942539D02*
D03*
Y1860630D02*
D03*
X9070159Y1840000D02*
D03*
X9100490Y1960370D02*
D03*
X8785788Y1530551D02*
D03*
X4828981Y4056047D02*
D03*
X4311450Y3881510D02*
D03*
X4348582Y3873474D02*
D03*
X5560000Y3852528D02*
D03*
X4414393Y3862712D02*
D03*
X4445323Y3838920D02*
D03*
X4332594Y3814810D02*
D03*
X4461876Y4044860D02*
D03*
X4276132Y4059467D02*
D03*
X4438381Y4014546D02*
D03*
X4279100Y3895973D02*
D03*
X4644389Y3968154D02*
D03*
X5515000Y3951885D02*
D03*
X4395876Y4007266D02*
D03*
X4384741Y3886246D02*
D03*
X4494059Y4081885D02*
D03*
X5176872Y4102693D02*
D03*
X4257429Y4230085D02*
D03*
X4405000Y4185000D02*
D03*
X5534685Y4179044D02*
D03*
X2118004Y3300336D02*
D03*
X1959131Y3205000D02*
D03*
X3006181Y3493584D02*
D03*
X3066681Y3496215D02*
D03*
X3785000Y3379579D02*
D03*
X3941119Y3457528D02*
D03*
X3714119Y3496215D02*
D03*
X3785000Y3335236D02*
D03*
Y3242006D02*
D03*
Y3284333D02*
D03*
X3996935Y3543663D02*
D03*
X3644819Y4007266D02*
D03*
X4091090Y3880595D02*
D03*
X3861189Y3610641D02*
D03*
X3904283Y3634211D02*
D03*
X3905072Y3718766D02*
D03*
X3945000Y3655000D02*
D03*
X3952047Y4102693D02*
D03*
X4168342Y4176719D02*
D03*
X3595000Y3560765D02*
D03*
X3683369Y3554819D02*
D03*
X3636858Y3580666D02*
D03*
X3625000Y3645000D02*
D03*
X2945000Y3595869D02*
D03*
X3034778Y3603212D02*
D03*
X3655000Y3615000D02*
D03*
X4995516Y3738227D02*
D03*
X4894939Y3662451D02*
D03*
X4770154Y3708077D02*
D03*
X4672228Y3596722D02*
D03*
X4700067Y3624728D02*
D03*
X4632498Y3652400D02*
D03*
X4727905D02*
D03*
X4490000Y3565000D02*
D03*
X4264992Y3605242D02*
D03*
X4457601Y3590162D02*
D03*
X4381948Y3404387D02*
D03*
X4410543Y3457528D02*
D03*
X4348582Y3466624D02*
D03*
X4517883Y3537030D02*
D03*
X4588560Y3513356D02*
D03*
X4766456Y3530333D02*
D03*
X4617802Y3539792D02*
D03*
X4796613Y3557897D02*
D03*
X4645632Y3567640D02*
D03*
X4682051Y3447704D02*
D03*
X4710781Y3474652D02*
D03*
X4739235Y3501876D02*
D03*
X4332594Y3714450D02*
D03*
X4384741Y3689854D02*
D03*
X4235000Y3630000D02*
D03*
X4210000Y3665000D02*
D03*
X4535000Y3741371D02*
D03*
X4279100Y3747503D02*
D03*
X8908071Y5725591D02*
D03*
Y5762992D02*
D03*
X8868701D02*
D03*
Y5725591D02*
D03*
X8408071D02*
D03*
Y5762992D02*
D03*
X8368701D02*
D03*
Y5725591D02*
D03*
X7908071D02*
D03*
Y5762992D02*
D03*
X7868701D02*
D03*
Y5725591D02*
D03*
X7408071D02*
D03*
Y5762992D02*
D03*
X7368701D02*
D03*
Y5725591D02*
D03*
X6908071D02*
D03*
Y5762992D02*
D03*
X6868701D02*
D03*
Y5725591D02*
D03*
X6408071D02*
D03*
Y5762992D02*
D03*
X6368701D02*
D03*
Y5725591D02*
D03*
X5508071D02*
D03*
Y5762992D02*
D03*
X5468701D02*
D03*
Y5725591D02*
D03*
X5008071D02*
D03*
Y5762992D02*
D03*
X4968701D02*
D03*
Y5725591D02*
D03*
X4508071D02*
D03*
Y5762992D02*
D03*
X4468701D02*
D03*
Y5725591D02*
D03*
X4008071D02*
D03*
Y5762992D02*
D03*
X3968701D02*
D03*
Y5725591D02*
D03*
X3508071D02*
D03*
Y5762992D02*
D03*
X3468701D02*
D03*
Y5725591D02*
D03*
X3008071D02*
D03*
Y5762992D02*
D03*
X2968701D02*
D03*
Y5725591D02*
D03*
X8311488Y4216757D02*
D03*
X4041102Y4310112D02*
D03*
X4093386Y4332112D02*
D03*
X4135006Y4272000D02*
D03*
X4140940Y4389060D02*
D03*
X1800000Y3920000D02*
D03*
X1911331Y3942065D02*
D03*
X2020690Y3755215D02*
D03*
X2063870Y3620475D02*
D03*
X2068791Y3912086D02*
D03*
X2215000Y3890000D02*
D03*
X2063399Y5191022D02*
D03*
X2254429Y5382052D02*
D03*
X2512529Y5123952D02*
D03*
X3034778Y3814296D02*
D03*
X3270000Y4470000D02*
D03*
X3298337Y3955843D02*
D03*
X3304970Y4494203D02*
D03*
X3365000Y4483504D02*
D03*
X3388199Y4515000D02*
D03*
X3603433Y4044860D02*
D03*
X9285987Y1821441D02*
D03*
X9320000Y1824898D02*
D03*
X9247244Y1831634D02*
D03*
X9346875Y1843042D02*
D03*
X9123202Y1855000D02*
D03*
X9153172D02*
D03*
X9189692D02*
D03*
X9225000D02*
D03*
X9365102Y1868409D02*
D03*
X9371896Y1901000D02*
D03*
X9363898Y1935906D02*
D03*
X9123202Y1945000D02*
D03*
X9153172D02*
D03*
X8785000Y1572284D02*
D03*
Y1609631D02*
D03*
X8905000Y1615000D02*
D03*
X8552737Y1734476D02*
D03*
X8446224D02*
D03*
X8410719D02*
D03*
X8623747D02*
D03*
X8765765D02*
D03*
X8517233D02*
D03*
X8339710D02*
D03*
X8375214D02*
D03*
X8481728D02*
D03*
X8707000D02*
D03*
X8588242D02*
D03*
X8735000D02*
D03*
X8801270D02*
D03*
X8836774D02*
D03*
X8872279D02*
D03*
X9042493Y1502402D02*
D03*
X9117130Y1502969D02*
D03*
X9141901Y1521102D02*
D03*
X8905000Y1528976D02*
D03*
X8942202D02*
D03*
X8980000D02*
D03*
X9015000D02*
D03*
X9157441Y1551614D02*
D03*
Y1580977D02*
D03*
X8942202Y1615000D02*
D03*
X9015000D02*
D03*
X8980000D02*
D03*
X9147441Y1616063D02*
D03*
X9116569Y1632323D02*
D03*
X9043264D02*
D03*
X9078512Y1645102D02*
D03*
X8907783Y1734476D02*
D03*
X8943288D02*
D03*
X8978793D02*
D03*
X9191820D02*
D03*
X9156316D02*
D03*
X9120811D02*
D03*
X9049802D02*
D03*
X9014297D02*
D03*
X9085306D02*
D03*
X8653000D02*
D03*
X9040000Y1840000D02*
D03*
X9097477Y1843995D02*
D03*
X9011367Y1843042D02*
D03*
X8987493Y1887401D02*
D03*
X8988264Y1915148D02*
D03*
X8360000Y1925000D02*
D03*
X8425000Y1935906D02*
D03*
X8595000Y2060995D02*
D03*
X8650000Y2095000D02*
D03*
X8595000Y2184465D02*
D03*
X8405000Y2255331D02*
D03*
Y2326197D02*
D03*
X9189692Y1945000D02*
D03*
X9225000D02*
D03*
X9339527Y1958958D02*
D03*
X9248475Y1969706D02*
D03*
X9276401Y1979087D02*
D03*
X9310551D02*
D03*
X9217459Y2603153D02*
D03*
X9159809Y2635271D02*
D03*
X9331163Y2794720D02*
D03*
X4280248Y4310112D02*
D03*
X4333244Y4316856D02*
D03*
X4340541Y4356513D02*
D03*
X4343670Y4423777D02*
D03*
X4418916Y4499472D02*
D03*
X5413779Y4879045D02*
D03*
X5419478Y4650000D02*
D03*
X5439177Y4825000D02*
D03*
X5443701Y4615000D02*
D03*
X5450000Y4790000D02*
D03*
X5459449Y4747981D02*
D03*
X5915080Y4205000D02*
D03*
X7925458Y4146187D02*
D03*
X8281149Y4066778D02*
D03*
X8283445Y4110931D02*
D03*
X8039575Y4160546D02*
D03*
X8243228Y4210883D02*
D03*
X8387739Y4212509D02*
D03*
X1339331Y1691772D02*
D03*
X1424209Y1743566D02*
D03*
X1796063Y1716552D02*
D03*
X1868503Y1502309D02*
D03*
X3738315Y1851066D02*
D03*
X3780000Y1897500D02*
D03*
X4404308Y1980000D02*
D03*
X4560746Y2287133D02*
D03*
X4505000Y2425000D02*
D03*
X4565000D02*
D03*
X4480315Y2456102D02*
D03*
X4783583Y3095000D02*
D03*
X5107273Y3130000D02*
D03*
X4988254Y3167994D02*
D03*
X5010530Y3205000D02*
D03*
X5000082Y3339842D02*
D03*
X4254916Y1897500D02*
D03*
X4275197Y1920952D02*
D03*
X1828347Y2063346D02*
D03*
Y2106653D02*
D03*
X1871653Y2063346D02*
D03*
Y2106653D02*
D03*
X3343347Y2186653D02*
D03*
X3386654D02*
D03*
X3343347Y2143347D02*
D03*
X3386654D02*
D03*
D259*
X4567309Y4252082D02*
D03*
X4151916Y3814810D02*
D03*
X4260468Y3560318D02*
D03*
X8861981Y4896698D02*
D03*
X8825904Y4931034D02*
D03*
X1367374Y4326066D02*
D03*
X1369086Y4688712D02*
D03*
X1378791Y4389808D02*
D03*
Y4450440D02*
D03*
Y4645318D02*
D03*
X1877266Y3893034D02*
D03*
X2210416Y5084149D02*
D03*
X2249991Y5096966D02*
D03*
X2330167Y5140952D02*
D03*
X2471362Y5078899D02*
D03*
X3050205Y4530000D02*
D03*
X5942521Y1757164D02*
D03*
X5892126Y1757559D02*
D03*
X5821260Y1725000D02*
D03*
X8034000Y4392539D02*
D03*
X8687005Y4185000D02*
D03*
X8316692Y4471435D02*
D03*
X8352250Y4559033D02*
D03*
X9363593Y5103898D02*
D03*
X2130083Y2027057D02*
D03*
X2256221Y3583095D02*
D03*
X3769210Y1727192D02*
D03*
X2800787Y1725000D02*
D03*
X4458110Y1887102D02*
D03*
X4862338Y1800000D02*
D03*
X4917793D02*
D03*
X4504331Y1872756D02*
D03*
X4821260Y1725000D02*
D03*
D260*
X2416401Y3236727D02*
D03*
X2469762Y2661184D02*
D03*
X2825238Y5269580D02*
D03*
X2169099Y5233814D02*
D03*
X1182402Y4025000D02*
D03*
X1200000Y4995000D02*
D03*
X1190000Y3065000D02*
D03*
X1127799Y1783228D02*
D03*
X3047307Y2473789D02*
D03*
X4937953Y2426645D02*
D03*
X5012691Y2481937D02*
D03*
X5009487Y2670000D02*
D03*
D261*
X4413779Y5600000D02*
D03*
X2785697Y4594684D02*
D03*
X3413780Y5600000D02*
D03*
X2913780D02*
D03*
X3913780D02*
D03*
X7165742Y2615000D02*
D03*
X4913779Y5600000D02*
D03*
X6813779D02*
D03*
X5413779D02*
D03*
X6313779D02*
D03*
X7313779D02*
D03*
X7813779D02*
D03*
X8813780D02*
D03*
X8313780D02*
D03*
D262*
X1881406Y5132744D02*
D03*
X6714931Y2005000D02*
D03*
X7714931D02*
D03*
X7214931D02*
D03*
X1400000Y1909405D02*
D03*
X1930651Y1909562D02*
D03*
X3230114Y1758886D02*
D03*
D263*
X8490000Y1177598D02*
D03*
X8992528Y1365472D02*
D03*
X1550000Y2175551D02*
D03*
X2080000D02*
D03*
X2405551Y2254247D02*
D03*
%TF.MD5,8ee919e019b7534c867a8e87f30cfa26*%
M02*
