%TF.GenerationSoftware,Altium Limited,Altium Designer,22.3.1 (43)*%
G04 Layer_Color=128*
%FSLAX26Y26*%
%MOIN*%
%TF.SameCoordinates,F0E5A86D-29B0-4C41-8DB9-0BED1FB65684*%
%TF.FilePolarity,Positive*%
%TF.FileFunction,Paste,Bot*%
%TF.Part,Single*%
G01*
G75*
%TA.AperFunction,SMDPad,CuDef*%
%ADD11R,0.031496X0.035433*%
%ADD17R,0.035433X0.031496*%
%ADD18R,0.033465X0.031496*%
G04:AMPARAMS|DCode=37|XSize=135.827mil|YSize=84.646mil|CornerRadius=0mil|HoleSize=0mil|Usage=FLASHONLY|Rotation=315.000|XOffset=0mil|YOffset=0mil|HoleType=Round|Shape=Rectangle|*
%AMROTATEDRECTD37*
4,1,4,-0.077949,0.018095,-0.018095,0.077949,0.077949,-0.018095,0.018095,-0.077949,-0.077949,0.018095,0.0*
%
%ADD37ROTATEDRECTD37*%

%ADD39R,0.031496X0.033465*%
%ADD109R,0.031496X0.009449*%
%ADD110R,0.055118X0.088583*%
%ADD111R,0.021654X0.025591*%
%ADD112O,0.061024X0.023622*%
%ADD113O,0.082677X0.017716*%
%ADD114R,0.082677X0.050000*%
%ADD115R,0.066929X0.110236*%
%ADD116R,0.047244X0.027559*%
%ADD117R,0.023622X0.037402*%
%ADD118R,0.092520X0.133858*%
%ADD119R,0.129921X0.078740*%
%ADD120R,0.035433X0.078740*%
%ADD121R,0.043307X0.131890*%
%ADD122R,0.019685X0.082677*%
%ADD123O,0.023622X0.086614*%
%ADD124R,0.110236X0.066929*%
%ADD125R,0.037402X0.023622*%
D11*
X1841732Y3374843D02*
D03*
X1900787D02*
D03*
X8165472Y4280000D02*
D03*
X8224528D02*
D03*
X8118947Y4491120D02*
D03*
X8059892D02*
D03*
X8163507Y4378759D02*
D03*
X8104452D02*
D03*
X8059889Y4572010D02*
D03*
X8118944D02*
D03*
X8045512Y4280000D02*
D03*
X8104567D02*
D03*
X1415472Y2070000D02*
D03*
X1474527D02*
D03*
X2933623Y2148739D02*
D03*
X2874568D02*
D03*
X3279528Y3230000D02*
D03*
X3220472D02*
D03*
X3014528Y3235000D02*
D03*
X2955472D02*
D03*
X2690472Y3230000D02*
D03*
X2749528D02*
D03*
X3549528D02*
D03*
X3490472D02*
D03*
X1435473Y4305000D02*
D03*
X1494528D02*
D03*
X1435473Y4375000D02*
D03*
X1494528D02*
D03*
X1435473Y4645000D02*
D03*
X1494528D02*
D03*
X1435473Y4450000D02*
D03*
X1494528D02*
D03*
X1435473Y4710000D02*
D03*
X1494528D02*
D03*
D17*
X9050000Y1424527D02*
D03*
Y1365472D02*
D03*
X2575000Y1629527D02*
D03*
Y1570472D02*
D03*
X3150000Y1570473D02*
D03*
Y1629528D02*
D03*
X3575000Y1629527D02*
D03*
Y1570472D02*
D03*
X4150000Y1570473D02*
D03*
Y1629528D02*
D03*
X4575000Y1629527D02*
D03*
Y1570472D02*
D03*
X5150000Y1570473D02*
D03*
Y1629528D02*
D03*
X5575000Y1629527D02*
D03*
Y1570472D02*
D03*
X6150000Y1570473D02*
D03*
Y1629528D02*
D03*
X9429353Y5144176D02*
D03*
Y5203231D02*
D03*
X2872596Y2280869D02*
D03*
Y2221814D02*
D03*
X2065000Y1769528D02*
D03*
Y1710473D02*
D03*
X2185000Y1764528D02*
D03*
Y1705473D02*
D03*
X1655068Y1769528D02*
D03*
Y1710473D02*
D03*
X1535000Y1769528D02*
D03*
Y1710473D02*
D03*
X3075000Y1570472D02*
D03*
Y1629527D02*
D03*
X2650000Y1629528D02*
D03*
Y1570473D02*
D03*
X4075000Y1570472D02*
D03*
Y1629527D02*
D03*
X3650000Y1629528D02*
D03*
Y1570473D02*
D03*
X4650000Y1629528D02*
D03*
Y1570473D02*
D03*
X5075000Y1570472D02*
D03*
Y1629527D02*
D03*
X5650000Y1629528D02*
D03*
Y1570473D02*
D03*
X6075000Y1570472D02*
D03*
Y1629527D02*
D03*
X5338976Y1640158D02*
D03*
Y1699213D02*
D03*
X5398499Y1699218D02*
D03*
Y1640163D02*
D03*
X9424353Y5013483D02*
D03*
Y5072538D02*
D03*
D18*
X9110000Y1422559D02*
D03*
Y1367441D02*
D03*
X3225000Y1572441D02*
D03*
Y1627559D02*
D03*
X4225000Y1572441D02*
D03*
Y1627559D02*
D03*
X5225000Y1572441D02*
D03*
Y1627559D02*
D03*
X6225000Y1572441D02*
D03*
Y1627559D02*
D03*
X8282025Y3722377D02*
D03*
Y3667258D02*
D03*
X8187025Y3722377D02*
D03*
Y3667258D02*
D03*
X1850000Y1392441D02*
D03*
Y1447559D02*
D03*
X2725000Y1627559D02*
D03*
Y1572441D02*
D03*
X3725000Y1627559D02*
D03*
Y1572441D02*
D03*
X4725000Y1627559D02*
D03*
Y1572441D02*
D03*
X5725000Y1627559D02*
D03*
Y1572441D02*
D03*
X1360000Y1452441D02*
D03*
Y1507559D02*
D03*
X1455000Y3312441D02*
D03*
Y3367559D02*
D03*
X1655000Y3672559D02*
D03*
Y3617441D02*
D03*
D37*
X2265648Y5238598D02*
D03*
X2397883Y5370833D02*
D03*
D39*
X8285196Y4171316D02*
D03*
X8340314D02*
D03*
X7983016Y4279998D02*
D03*
X7927898D02*
D03*
X7974803Y4215297D02*
D03*
X8029921D02*
D03*
X2132441Y1825000D02*
D03*
X2187559D02*
D03*
X7925458Y3320000D02*
D03*
X7980576D02*
D03*
X2057559Y1825000D02*
D03*
X2002441D02*
D03*
X2307559D02*
D03*
X2252441D02*
D03*
X1527559D02*
D03*
X1472441D02*
D03*
X1777559D02*
D03*
X1722441D02*
D03*
X1657559D02*
D03*
X1602441D02*
D03*
X2727559Y1725000D02*
D03*
X2672441D02*
D03*
X3727559D02*
D03*
X3672441D02*
D03*
X4727559D02*
D03*
X4672441D02*
D03*
X5727559D02*
D03*
X5672441D02*
D03*
X2634646Y2325551D02*
D03*
X2579528D02*
D03*
X1492559Y4545000D02*
D03*
X1437441D02*
D03*
X1312559D02*
D03*
X1257441D02*
D03*
D109*
X8215989Y4172301D02*
D03*
Y4152616D02*
D03*
Y4132931D02*
D03*
Y4113246D02*
D03*
Y4093561D02*
D03*
X8101028Y4172301D02*
D03*
Y4152616D02*
D03*
Y4132931D02*
D03*
Y4113246D02*
D03*
Y4093561D02*
D03*
D110*
X8158509Y4132931D02*
D03*
D111*
X9080000Y1521102D02*
D03*
Y1483701D02*
D03*
D112*
X2537951Y2099412D02*
D03*
Y2149412D02*
D03*
Y2199412D02*
D03*
Y2249412D02*
D03*
X2750550Y2099412D02*
D03*
Y2149412D02*
D03*
Y2199412D02*
D03*
Y2249412D02*
D03*
D113*
X2816339Y1611614D02*
D03*
Y1637205D02*
D03*
Y1662795D02*
D03*
Y1688386D02*
D03*
X2983661Y1611614D02*
D03*
Y1637205D02*
D03*
Y1662795D02*
D03*
Y1688386D02*
D03*
X3816339Y1611614D02*
D03*
Y1637205D02*
D03*
Y1662795D02*
D03*
Y1688386D02*
D03*
X3983661Y1611614D02*
D03*
Y1637205D02*
D03*
Y1662795D02*
D03*
Y1688386D02*
D03*
X4816339Y1611614D02*
D03*
Y1637205D02*
D03*
Y1662795D02*
D03*
Y1688386D02*
D03*
X4983661Y1611614D02*
D03*
Y1637205D02*
D03*
Y1662795D02*
D03*
Y1688386D02*
D03*
X5816339Y1611614D02*
D03*
Y1637205D02*
D03*
Y1662795D02*
D03*
Y1688386D02*
D03*
X5983661Y1611614D02*
D03*
Y1637205D02*
D03*
Y1662795D02*
D03*
Y1688386D02*
D03*
D114*
X3000000Y1503150D02*
D03*
Y1346850D02*
D03*
X4000000Y1503150D02*
D03*
Y1346850D02*
D03*
X5000000Y1503150D02*
D03*
Y1346850D02*
D03*
X6000000Y1503150D02*
D03*
Y1346850D02*
D03*
X2500000D02*
D03*
Y1503150D02*
D03*
X3500000Y1346850D02*
D03*
Y1503150D02*
D03*
X4500000Y1346850D02*
D03*
Y1503150D02*
D03*
X5500000Y1346850D02*
D03*
Y1503150D02*
D03*
X9560923Y4947599D02*
D03*
Y5103898D02*
D03*
D115*
X3350000Y1361024D02*
D03*
Y1488976D02*
D03*
X4350000Y1361024D02*
D03*
Y1488976D02*
D03*
X5350000Y1361024D02*
D03*
Y1488976D02*
D03*
X6350000Y1361024D02*
D03*
Y1488976D02*
D03*
X1959764Y1282874D02*
D03*
Y1410827D02*
D03*
X2850000Y1488976D02*
D03*
Y1361024D02*
D03*
X3850000Y1488976D02*
D03*
Y1361024D02*
D03*
X4850000Y1488976D02*
D03*
Y1361024D02*
D03*
X5850000Y1488976D02*
D03*
Y1361024D02*
D03*
X1519251Y1271063D02*
D03*
Y1143110D02*
D03*
D116*
X8235585Y4378764D02*
D03*
X8381254D02*
D03*
X7804324Y4571268D02*
D03*
X7949994D02*
D03*
D117*
X8274087Y4478324D02*
D03*
X8311488Y4559033D02*
D03*
X8236685D02*
D03*
D118*
X8905906Y5675000D02*
D03*
X9144094D02*
D03*
X8405906D02*
D03*
X8644094D02*
D03*
X7905905D02*
D03*
X8144095D02*
D03*
X7405905D02*
D03*
X7644095D02*
D03*
X6905905D02*
D03*
X7144095D02*
D03*
X6405905D02*
D03*
X6644095D02*
D03*
X5505905D02*
D03*
X5744095D02*
D03*
X5005905D02*
D03*
X5244095D02*
D03*
X4505905D02*
D03*
X4744095D02*
D03*
X4005905D02*
D03*
X4244095D02*
D03*
X3505905D02*
D03*
X3744095D02*
D03*
X3005905D02*
D03*
X3244095D02*
D03*
D119*
X8187025Y3331707D02*
D03*
D120*
X8277576Y3567928D02*
D03*
X8187025D02*
D03*
X8096474D02*
D03*
D121*
X9122347Y4366473D02*
D03*
X9350694D02*
D03*
D122*
X8550371Y1234331D02*
D03*
X8491316D02*
D03*
D123*
X2080000Y2094488D02*
D03*
X2130000D02*
D03*
X2180000D02*
D03*
X2230000D02*
D03*
X2080000Y1905512D02*
D03*
X2130000D02*
D03*
X2180000D02*
D03*
X2230000D02*
D03*
X1550000Y2094488D02*
D03*
X1600000D02*
D03*
X1650000D02*
D03*
X1700000D02*
D03*
X1550000Y1905512D02*
D03*
X1600000D02*
D03*
X1650000D02*
D03*
X1700000D02*
D03*
D124*
X2333976Y1589153D02*
D03*
X2206024D02*
D03*
X1946429Y1588252D02*
D03*
X2074382D02*
D03*
X1423819Y1589153D02*
D03*
X1551772D02*
D03*
X1813976D02*
D03*
X1686024D02*
D03*
D125*
X1929646Y1955000D02*
D03*
X2010354Y1917598D02*
D03*
Y1992402D02*
D03*
X1399646Y1955000D02*
D03*
X1480354Y1917598D02*
D03*
Y1992402D02*
D03*
%TF.MD5,6b621bfe37d0403a622550656a1547e2*%
M02*
