<svg id="Layer_1" data-name="Layer 1" xmlns="http://www.w3.org/2000/svg" viewBox="0 0 4954.33 5358.99"><title>Quail-Silkscreen</title><g id="White"><path d="M4866.17,4576.81c-25.67-75.38-65.4-127.08-84.49-151.92-.55-.73-1.11-1.44-1.65-2.15-90.19-125.35-198.72-246.37-341.35-380.67-55-51.76-96.54-95.66-130.81-138.15-35.26-43.72-62.22-85.49-82.42-127.69q-6.31-13.2-13.49-25.75c-141.42-252.05-243.58-481.75-312.27-702.14-56.43-181-118.06-340.77-188.41-488.39a1436.46,1436.46,0,0,0-193.34-301.25c-67.63-81.14-146.28-157.53-234-227.27l-7.21-6.81c-21-19.9-49.84-47.15-86.92-74.62-76-56.29-156.77-110.38-241.49-161.78,2.06-72.85-2.34-142.07-13.29-210.09a1010.17,1010.17,0,0,0-78.8-260c-111.67-243.8-276.8-439.39-490.79-581.34C2268,672.13,2159.14,618,2041.85,576q-69.39-24.87-144.3-44.7a1109.72,1109.72,0,0,0-117.16-148c-95-100.79-205.72-179.24-329.07-233.17-123.93-54.18-257-82-395.45-82.79-133.26-.7-268.94,23.88-403.13,73.11-143,52.45-262.06,129.05-354,227.68A768.51,768.51,0,0,0,165.42,564.87c-34,72.29-57.26,150.88-69,233.58-25.35,178.89,24.34,358.73,136.32,493.4a580.77,580.77,0,0,0,178.17,144.39,561.54,561.54,0,0,0,237.9,63.91q13.78.58,27.46.59,10.28,0,20.46-.34a400,400,0,0,0,376.52,400.92c23.77,1.4,47.89,2.33,71.7,2.76,2.86.06,5.71.1,8.57.14q1.21,7.33,2.69,14.88a522.32,522.32,0,0,0-18.85,66.06,552.16,552.16,0,0,0-11.11,79.73c-49.75,206.33-99.85,447.15-114.55,700.27-11.15,191.88.78,365.1,36.48,529.58a1575.24,1575.24,0,0,0,83.55,268.19,1516.8,1516.8,0,0,0,130.65,247.54c28.26,48.52,59.1,96.18,91.78,141.83,123.63,172.68,250.88,288.62,335.86,355.47q45.73,36,92.58,68.46a400.1,400.1,0,0,0-178.17,291,400.05,400.05,0,0,0,310.46,526.15,727,727,0,0,0,122.7,10.26c93.29,0,173.38-17.1,234.65-31.56a399.89,399.89,0,0,0,409.57,126,777.25,777.25,0,0,0,195.85-83.61,671.58,671.58,0,0,0,96.47-69.95,400,400,0,0,0,464.59-312.4q2.14-10.38,3.78-20.77c27,16.52,54.24,32.63,82.12,48.39,40.67,23,109.64,55.58,335.44,158.38,29.28,13.33,74.87,32.43,132.59,44.42a515.46,515.46,0,0,0,137.77,10q22.34-1.44,44.13-4.85c7.7,4.27,15.16,8.43,22.45,12.55l2.83,1.61c24,13.65,73.81,42.05,139.86,59.08,64.85,16.72,130.24,19.12,194.35,7.12,90.58-16.95,172-61.46,235.56-128.72,58.88-62.34,98-139.15,113.22-222.15C4896.21,4724.31,4890.44,4648.08,4866.17,4576.81ZM2582.73,2052.67c130.81,69.49,252.79,146,362.63,227.33,17.26,12.78,33.48,28.13,49.16,43,7.39,7,15,14.21,22.74,21.14l.57.49c145.41,113.28,251,241.52,322.72,392,61.86,129.81,116.5,271.74,167.06,433.92,77.27,247.9,190.43,503.19,345.88,780.3h0c.24.44.48.88.73,1.31.67,7.15,1.14,14,1.42,20.74.07,1.89.13,3.75.18,5.6,0,.36,0,.73,0,1.1.08,3.36.11,6.67.08,9.9v0q0,4.24-.21,8.34c0,.25,0,.5,0,.75-.05,1.13-.11,2.26-.17,3.38,0,.48-.06,1-.08,1.44-.07,1.07-.14,2.14-.22,3.19,0,.49-.07,1-.11,1.46-.09,1.07-.17,2.14-.27,3.19l-.09.87q-.33,3.45-.77,6.81c0,.23-.05.47-.09.7-.13,1-.27,1.94-.41,2.9-.07.51-.15,1-.23,1.52-.14.91-.28,1.81-.44,2.71-.09.53-.18,1.06-.28,1.59-.15.88-.31,1.75-.48,2.62l-.3,1.49q-.52,2.53-1.1,5c-.1.4-.19.82-.29,1.22-.19.77-.39,1.53-.58,2.29-.15.57-.3,1.14-.46,1.71-.19.72-.4,1.44-.6,2.16s-.35,1.17-.53,1.75-.41,1.38-.63,2-.4,1.23-.61,1.84-.41,1.26-.63,1.88c-.4,1.13-.81,2.24-1.23,3.34-.21.55-.44,1.09-.65,1.64s-.52,1.28-.79,1.92-.47,1.1-.71,1.64-.55,1.24-.83,1.85-.48,1-.73,1.55c-.31.67-.64,1.32-1,2l-.66,1.32c-.54,1-1.09,2-1.66,3-.19.34-.39.67-.59,1-.41.71-.82,1.41-1.25,2.09-.24.41-.5.81-.75,1.21-.4.62-.79,1.23-1.2,1.83l-.78,1.16c-.44.64-.89,1.27-1.35,1.9l-.69.95q-1,1.38-2.1,2.7l-.38.45c-.61.74-1.22,1.47-1.85,2.18l-.78.87c-.52.57-1,1.14-1.57,1.69-.28.3-.57.59-.86.88-.55.56-1.11,1.11-1.67,1.66l-.78.74c-.82.78-1.66,1.54-2.52,2.27-30.87,26.59-82.46,31-153.34,13-6.2-1.57-12.45-2.79-19.08-4.07-19-3.69-38.74-7.51-57.66-20.3a134.66,134.66,0,0,1-23.53-20.26l-14.49-15.7-.55,3-3.32,18a186.51,186.51,0,0,1-11,37.36l-1.28,3.11c-8.44,20.48-14,34-24.72,39.33-14.53,7.23-36,3.15-65.63-12.5-.82-.43-1.84-.94-3-1.56-9.4-4.75-31.41-15.87-58.27-39.87q-3.08-2.76-6.1-5.61l-1.34-1.27c-2-1.9-4-3.83-5.94-5.79-.13-.12-.25-.25-.37-.37q-2.88-2.89-5.68-5.85l-.87-.92q-3-3.18-5.89-6.43c-.08-.08-.15-.17-.23-.26q-3-3.33-5.85-6.75l-.18-.21q-3-3.54-5.88-7.17l0,0q-5.84-7.34-11.31-15h0c-1.29-1.82-2.57-3.66-3.83-5.5-.11-.17-.22-.34-.34-.5q-4.16-6.14-8.1-12.47l-12.91-20.87-6.48,23.67-.54,1.91h0q-.7,2.47-1.47,5l-.15.47q-.76,2.47-1.6,5h0c-.19.58-.4,1.17-.6,1.76-.08.22-.15.43-.22.64l-.58,1.62c-.1.26-.19.52-.29.79l-.58,1.57c-.11.27-.21.54-.31.81-.2.52-.4,1.05-.61,1.57l-.3.75c-.69,1.74-1.42,3.48-2.18,5.2-.14.33-.29.65-.43,1l-.6,1.31-.5,1.07-.6,1.25-.54,1.12c-.2.4-.4.8-.61,1.2s-.4.78-.6,1.16-.39.76-.59,1.13l-.75,1.38-.77,1.36c-.31.55-.62,1.1-.95,1.64-.18.31-.37.62-.56.93s-.51.84-.78,1.26-.4.64-.61.95l-.78,1.2-.63.93c-.27.4-.55.8-.83,1.19s-.41.58-.62.86l-1,1.29-.54.7c-.5.64-1,1.27-1.52,1.89-.12.15-.24.29-.37.43-.4.48-.81,1-1.23,1.42-.2.23-.4.44-.6.66l-1.05,1.13-.67.67c-.35.36-.7.7-1.06,1l-.68.65-1.14,1-.64.56c-.47.4-.94.78-1.42,1.16l-.41.32c-.61.48-1.24.93-1.87,1.38l-.53.35c-.46.31-.93.62-1.41.92-.23.15-.48.29-.72.43l-1.28.74-.78.42c-.43.22-.86.44-1.3.65l-.79.37-1.43.61-.69.28c-.72.28-1.44.54-2.18.77-.91.29-1.85.54-2.79.77l-.18,0c-.91.22-1.83.4-2.76.55l-.3.05c-.91.14-1.84.26-2.77.34l-.38,0c-.92.08-1.86.13-2.8.16h-.43c-.94,0-1.89,0-2.86,0l-.44,0c-1,0-2-.11-2.94-.2l-.43-.05c-1-.1-2-.23-3-.38l-.38-.06q-1.57-.26-3.18-.57l-.3-.07c-1.1-.23-2.21-.49-3.34-.78l-.14,0c-2.36-.6-4.75-1.34-7.19-2.2l-.12,0c-1.19-.42-2.38-.87-3.59-1.34l-.26-.1c-1.17-.47-2.36-1-3.55-1.49l-.35-.15c-1.18-.52-2.37-1.07-3.56-1.65l-.39-.18c-1.19-.58-2.39-1.19-3.6-1.82l-.4-.2c-1.21-.64-2.44-1.3-3.67-2l-.36-.2c-1.25-.71-2.5-1.44-3.77-2.2l-.29-.17c-1.29-.78-2.59-1.58-3.9-2.42l-.16-.1q-8.23-5.25-16.84-12l-.08-.06q-2.1-1.64-4.21-3.35l-.19-.15q-2.09-1.7-4.18-3.47l-.24-.2q-2.09-1.77-4.19-3.62l-.24-.21q-2.11-1.86-4.24-3.8l-.21-.19q-2.14-2-4.31-4a1.59,1.59,0,0,0-.13-.13q-11.2-10.59-22.68-23.28l0,0-.21-.24q-1.72-1.91-3.46-3.87h0c-1.36-1.54-2.72-3.09-4.08-4.68l-.08-.09h0l-.07-.08v0l0,0-.07-.08h0l-.19-.2-.06-.05c-.08-.09-.18-.18-.29-.29h0l-.65-.62-.19-.17-.85-.8h0l-.67-.61,0,0-.75-.68-.07-.07-2-1.79-.07-.07-1-.93-.3-.27-1.28-1.17-10.47-9.52-13.64-12.39c-37.08-33.68-106.06-96.32-111.18-101.92l-23.35-23.49-5.75,15.81c-.92,2.53-2.21,6.06-3.78,10.29-2.39,6.44-4,10.7-6.08,16.08-1.62,4.12-3.31,8.29-5,12.42-7.55,15.27-24.13,41.52-51.13,48.16-16.34,4-37.07,3.52-77.76-27-64.3-48.18-119.86-108.69-173.59-167.21l-6-6.58c-12.3-13.4-24.92-26.61-39.52-41.9-7.42-7.78-15.4-16.13-24.18-25.39l-21.46-22.63,3.07,31c6.81,68.92-6.07,76.57-7.57,77.21-2.47,1.07-10.74,1.12-34-21.39-19.89-19.23-45.91-50-78.85-88.86-14-16.53-29.86-35.27-47-55.15-51.29-59.56-104-118-156.76-173.82-97.24-146.93-158.77-289.19-188.07-434.88-46.26-230-31.68-456.37,43.35-672.94,47.27-136.46,169.75-184.32,313.08-228.72,44.76-13.86,91.71-24.1,137.12-34C2543.19,2061.61,2563.11,2057.26,2582.73,2052.67ZM858.74,881.82c4.7,137.81-71.2,223.9-192.82,218.7-109.93-4.7-191.71-116.95-173.43-246,25-176.67,139.25-280.35,298-338.6,362.23-132.89,691.12,11.91,844.56,368.24,382.72,61.85,689.51,233.71,857.51,600.48,45.74,99.86,63.16,207.49,53.75,334.31-90.14-125.32-173.44-236.83-267.13-340.09-195.17-215.12-432.14-355.51-719-409.92-42.09-8-99.64-.27-106.18-65.29-6.83-67.9,42.19-92.5,94.92-111.79,9.53-3.49,19.78-5,29.69-7.44-67.94-171.93-181.49-290.76-374.47-308.55C1014.55,558.44,852.68,704.34,858.74,881.82Zm534.88,605.54a1385.61,1385.61,0,0,1-241.33,16.79q-28.36-.51-55.54-2.14a188.16,188.16,0,0,1,5.13-29.78c9.6-37.44,28.35-62.23,41.16-78.81a274.28,274.28,0,0,1,65.11-60.55h0c29.71-31.26,70.7-42.72,107.65-61.28h0c13.57-21.63,27.42-43.1,40.68-64.93,73-120.3,73.31-121.56,206.47-86.2,56.6,15,110.38,41.76,167.42,53.72,99.78,20.91,121.26,88.3,127.6,177.21,14.79,207.71-44.21,379.06-226.3,494.95-69.73,44.38-80.55,39.39-87.3-40.33-10.61-125.37-63.67-229.86-150.75-318.65ZM2859,4384c2.74,35.71,7.54,71.4,7.82,107.12.79,101.05,17.15,190.72,138,214.17,3.63.7,5.09,2.17,8.4,3.74,17.4,8.24,27.28,12.92,31.93,22.13,1.62,3.2,4,9.68,1.83,20.08-68.5-21.88-122.87-15.64-150.35-10.34-62.67,12.08-108.79,43-132.92,59.58-42.12,28.86-48.94,45.19-92.3,71.29a376.66,376.66,0,0,1-95.07,40.49c46.94-74.44,107.78-104.31,164.21-168.74a373.78,373.78,0,0,1-108.1,56.42,365,365,0,0,1-40.08,10.6c56.64-50.59,103.69-80.15,139-94.9,55.05-23,78.72-59.64,77.6-117.93-1.38-71.73.3-143.53.67-215.29-109.75-7.11-212.14-48.1-318.84-69.21h-.05l0,0q-39.53,124.07-79.06,248.22c-23.94,75.44-16.17,140.72,56.06,188.56,18.17,12,38.33,26.5,41.52,52.15-11,11.08-24.89,12.27-34.18,2.71-70.16-72.13-152.23-54.4-236.48-35.75-83.17,18.4-165.38,45.51-256.55,30l200.36-81.34c-57.09-11.87-112.25,12.22-180.37-7.13,69.15-36.75,133.69-35.52,194.69-35.42,70.56.12,108.26-29.7,130.69-93.12,35-98.81,73.53-196.35,110.57-294.43h0c-173.67-86.56-347.12-173.44-500.7-294.26-56.38-44.36-157-132.93-257.94-274a1393.33,1393.33,0,0,1-76.49-119.18c-164.28-246.9-208.65-523.48-191.89-811.9C1424.26,2561,1470.91,2338,1525.29,2117c-3.75-70.21,23-110.69,92.42-143.54,270.19-127.77,350.61-319.48,288.45-655.95-3.8-20.52-7.19-37.58-9.92-49.44,20.07,9.52,49.13,24.18,82.72,44.44,88,53.1,142.91,108,249.14,215.73C2446.72,1749.89,2459,1793,2495,1834.45c34.19,39.28,65.18,79.15,51.11,136.36-6.89,28,11.66,44.27,26.41,62.29-17.75,4.1-35.73,8-53.2,11.83-45.85,10-93.26,20.34-138.9,34.48-68.91,21.35-135.56,43.49-193.48,79.46-66.12,41.07-109.77,94.28-133.47,162.68-76.29,220.21-91.13,450.4-44.11,684.15,29.31,145.66,90.1,287.76,185.72,434.08,2,3,4,6.1,6,9.15l.51.77.63.67c52.73,55.75,105.46,114.21,156.73,173.75,17.06,19.82,32.89,38.52,46.86,55,33.33,39.36,59.65,70.45,80.31,90.42,17.83,17.23,38.58,33.76,57.36,25.64,16.34-7.06,23.52-28.75,22.36-69.1q2,2,3.84,4c14.53,15.21,27.08,28.35,39.24,41.59l6,6.58c54.39,59.24,110.64,120.49,176.53,169.86,38.12,28.57,66.73,37.72,95.67,30.61,35.59-8.74,56.22-41.2,65.35-59.77l.26-.58c1.84-4.37,3.64-8.8,5.35-13.17,1.54-3.91,2.79-7.22,4.24-11.12,8.26,8.31,46.43,43.14,111.64,102.36,15.53,14.1,29,26.36,31.27,28.47,2.36,2.74,4.72,5.4,7.07,8q3.11,3.86,6.75,8.17a988.6,988.6,0,0,0,92.32,112.45A1013.33,1013.33,0,0,0,3341.54,4269C3187.06,4333.59,3029.15,4384,2859,4384ZM4471.07,4737.4c-15,15.85-39.62,3.8-67.91-12.32l-3.91-2.22c-13.3-7.52-26.68-14.92-39.63-22.07-50.51-27.9-98.21-54.25-149.22-91.9-11.37-8.4-22.83-17-34-25.61l-27.4-21,10.74,32.81a46.29,46.29,0,0,1,1.71,23.78c-3,14.74-13.86,27.5-31.48,36.92-34.33,18.33-81.79-3.28-99.66-11.41-169.66-77.24-273.69-125.25-303.4-142.05-121.81-68.91-235-148.46-367.55-246.7q-3.78-2.8-7.49-5.6a990.49,990.49,0,0,1-124.94-111.19q-18.51-19.38-36.07-40h0c.83.45,1.65.88,2.48,1.31q2.32,1.2,4.64,2.3c23.55,11.17,45.5,14,63.75,8.24,22.64-7.16,40.94-28.1,53.61-61a355.13,355.13,0,0,0,53.5,60.16c28.95,25.87,52.71,37.88,62.86,43,1.08.54,2,1,2.71,1.38,23.46,12.39,43,18.5,59.63,18.5a56.26,56.26,0,0,0,25.51-5.77c17.87-8.9,25.41-27.17,34.95-50.31l1.27-3.1a207.26,207.26,0,0,0,7.93-22.91,156.55,156.55,0,0,0,13.26,10c22.54,15.23,45.4,19.66,65.56,23.57,6.32,1.22,12.29,2.38,17.9,3.8,78,19.77,136.09,13.87,172.54-17.52,27.69-23.85,42.47-62,44.19-113.79h0c79.18,145.49,189.92,259.54,280,344.4,123.6,116.37,215.94,219,290.59,323,2.6,3.62,5.37,7.23,8.3,11C4476.65,4702,4488,4719.53,4471.07,4737.4Z"/><path d="M1626.44,1305.8a46.91,46.91,0,0,0-45.69-46c-.75,0-1.5,0-2.24,0a47,47,0,0,0-45.81,43.71c1.85,2.13,4.9,5.41,9.25,9.81a25.49,25.49,0,1,1,8.34,8.25c2.55,2.47,5.34,5.15,8.42,8,6.37,3.12,35.91,1.58,56.27-10.64C1618.47,1316.86,1626.56,1311.4,1626.44,1305.8Z"/></g></svg>