<svg id="Layer_1" data-name="Layer 1" xmlns="http://www.w3.org/2000/svg" viewBox="0 0 4954.33 5358.99"><title>Quail-Soldermask</title><g id="Gold"><path d="M3211.42,4153.59a988.6,988.6,0,0,1-92.32-112.45q-3.64-4.32-6.75-8.17c-2.35-2.62-4.71-5.28-7.07-8-2.25-2.11-15.74-14.37-31.27-28.47-65.21-59.22-103.38-94.05-111.64-102.36-1.45,3.9-2.7,7.21-4.24,11.12-1.71,4.37-3.51,8.8-5.35,13.17l-.26.58c-9.13,18.57-29.76,51-65.35,59.77-28.94,7.11-57.55-2-95.67-30.61-65.89-49.37-122.14-110.62-176.53-169.86l-6-6.58c-12.16-13.24-24.71-26.38-39.24-41.59q-1.89-2-3.84-4c1.16,40.35-6,62-22.36,69.1-18.78,8.12-39.53-8.41-57.36-25.64-20.66-20-47-51.06-80.31-90.42-14-16.5-29.8-35.2-46.86-55-51.27-59.54-104-118-156.73-173.75l-.63-.67-.51-.77c-2-3-4-6.1-6-9.15-42.76-13.4-64.88-58-110.07-85.48,8.9,103.13,87.94,152.59,141.89,225.06-125-3.45-206.41-73.68-283.08-164.56-34.48,126.77,27,205.41,92.74,292.37-122.82-26.86-178.75-111.39-234.09-205.4-15.85,53.24,13.18,93.91,3.61,145.51-92.36-69.06-142.83-161-201.69-253a508.22,508.22,0,0,0-1.46,206,1393.33,1393.33,0,0,0,76.49,119.18c101,141,201.56,229.59,257.94,274,153.58,120.82,327,207.7,500.7,294.26h0c21.54.36,38.22,10.71,52.72,25.55h.05c106.7,21.11,209.09,62.1,318.84,69.21h0L2859,4384h0c170.14,0,328-50.4,482.53-115A1013.33,1013.33,0,0,1,3211.42,4153.59Z"/><path d="M1578.62,884.46c-9.91,2.43-20.16,3.95-29.69,7.44-52.73,19.29-101.75,43.89-94.92,111.79,6.54,65,64.09,57.31,106.18,65.29,286.87,54.41,523.84,194.8,719,409.92,93.69,103.26,177,214.77,267.13,340.09,9.41-126.82-8-234.45-53.75-334.31-168-366.77-474.79-538.63-857.51-600.48l-56.45.26Z"/><path d="M1436.1,1439.92l0,0c23.18-21.78,52.48-44.2-9.09-51.57-13.55-1.62-39.7-11.39-62.15-24-16.7-9.41-38.61-21.76-47.9-46.65-7-18.83-3.76-36.61-1.19-46.05h0c-37,18.56-77.94,30-107.65,61.28h0a274.28,274.28,0,0,0-65.11,60.55c-12.81,16.58-31.56,41.37-41.16,78.81a188.16,188.16,0,0,0-5.13,29.78q27.18,1.6,55.54,2.14a1385.61,1385.61,0,0,0,241.33-16.79h0l42.52-47.46Z"/><path d="M2386.76,2099.82c-143.33,44.4-265.81,92.26-313.08,228.72-75,216.57-89.61,443-43.35,672.94,29.3,145.69,90.83,287.95,188.07,434.88,52.74,55.79,105.47,114.26,156.76,173.82,17.11,19.88,33,38.62,47,55.15,32.94,38.9,59,69.63,78.85,88.86,23.29,22.51,31.56,22.46,34,21.39,1.5-.64,14.38-8.29,7.57-77.21l-3.07-31L2561,3690c8.78,9.26,16.76,17.61,24.18,25.39,14.6,15.29,27.22,28.5,39.52,41.9l6,6.58c53.73,58.52,109.29,119,173.59,167.21,40.69,30.48,61.42,31,77.76,27,27-6.64,43.58-32.89,51.13-48.16,1.73-4.13,3.42-8.3,5-12.42,2.11-5.38,3.69-9.64,6.08-16.08,1.57-4.23,2.86-7.76,3.78-10.29l5.75-15.81,23.35,23.49c5.12,5.6,74.1,68.24,111.18,101.92l13.64,12.39,10.47,9.52,1.28,1.17.3.27,1,.93.07.07,2,1.79.07.07.75.68,0,0,.67.61h0l.85.8.19.17.65.62h0c.11.11.21.2.29.29l.06.05.19.2h0l.07.08,0,0v0l.07.08h0l.08.09c1.36,1.59,2.72,3.14,4.08,4.68h0q1.74,2,3.46,3.87l.21.24,0,0q11.45,12.66,22.68,23.28a1.59,1.59,0,0,1,.13.13q2.16,2,4.31,4l.21.19q2.13,1.94,4.24,3.8l.24.21q2.1,1.85,4.19,3.62l.24.2q2.1,1.77,4.18,3.47l.19.15q2.12,1.71,4.21,3.35l.08.06q8.59,6.69,16.84,12l.16.1c1.31.84,2.61,1.64,3.9,2.42l.29.17c1.27.76,2.52,1.49,3.77,2.2l.36.2c1.23.69,2.46,1.35,3.67,2l.4.2c1.21.63,2.41,1.24,3.6,1.82l.39.18c1.19.58,2.38,1.13,3.56,1.65l.35.15c1.19.52,2.38,1,3.55,1.49l.26.1c1.21.47,2.4.92,3.59,1.34l.12,0c2.44.86,4.83,1.6,7.19,2.2l.14,0c1.13.29,2.24.55,3.34.78l.3.07q1.61.32,3.18.57l.38.06c1,.15,2,.28,3,.38l.43.05c1,.09,2,.16,2.94.2l.44,0c1,0,1.92,0,2.86,0h.43c.94,0,1.88-.08,2.8-.16l.38,0c.93-.08,1.86-.2,2.77-.34l.3-.05c.93-.15,1.85-.33,2.76-.55l.18,0c.94-.23,1.88-.48,2.79-.77.74-.23,1.46-.49,2.18-.77l.69-.28,1.43-.61.79-.37c.44-.21.87-.43,1.3-.65l.78-.42,1.28-.74c.24-.14.49-.28.72-.43.48-.3,1-.61,1.41-.92l.53-.35c.63-.45,1.26-.9,1.87-1.38l.41-.32c.48-.38.95-.76,1.42-1.16l.64-.56,1.14-1,.68-.65c.36-.34.71-.68,1.06-1l.67-.67,1.05-1.13c.2-.22.4-.43.6-.66.42-.46.83-.94,1.23-1.42.13-.14.25-.28.37-.43.52-.62,1-1.25,1.52-1.89l.54-.7,1-1.29c.21-.28.41-.57.62-.86s.56-.79.83-1.19l.63-.93.78-1.2c.21-.31.41-.63.61-.95s.52-.84.78-1.26.38-.62.56-.93c.33-.54.64-1.09.95-1.64l.77-1.36.75-1.38c.2-.37.4-.75.59-1.13s.41-.77.6-1.16.41-.8.61-1.2l.54-1.12.6-1.25.5-1.07.6-1.31c.14-.33.29-.65.43-1,.76-1.72,1.49-3.46,2.18-5.2l.3-.75c.21-.52.41-1,.61-1.57.1-.27.2-.54.31-.81l.58-1.57c.1-.27.19-.53.29-.79l.58-1.62c.07-.21.14-.42.22-.64.2-.59.41-1.18.6-1.76h0q.84-2.51,1.6-5l.15-.47q.76-2.52,1.47-5h0l.54-1.91,6.48-23.67,12.91,20.87q3.93,6.34,8.1,12.47c.12.16.23.33.34.5,1.26,1.84,2.54,3.68,3.83,5.5h0q5.47,7.7,11.31,15l0,0q2.9,3.63,5.88,7.17l.18.21q2.88,3.42,5.85,6.75c.08.09.15.18.23.26q2.89,3.26,5.89,6.43l.87.92q2.8,3,5.68,5.85c.12.12.24.25.37.37,1.95,2,3.94,3.89,5.94,5.79l1.34,1.27q3,2.85,6.1,5.61c26.86,24,48.87,35.12,58.27,39.87,1.21.62,2.23,1.13,3,1.56,29.63,15.65,51.1,19.73,65.63,12.5,10.7-5.33,16.28-18.85,24.72-39.33l1.28-3.11a186.51,186.51,0,0,0,11-37.36l3.32-18,.55-3,14.49,15.7a134.66,134.66,0,0,0,23.53,20.26c18.92,12.79,38.62,16.61,57.66,20.3,6.63,1.28,12.88,2.5,19.08,4.07,70.88,17.95,122.47,13.58,153.34-13,.86-.73,1.7-1.49,2.52-2.27l.78-.74c.56-.55,1.12-1.1,1.67-1.66.29-.29.58-.58.86-.88.53-.55,1-1.12,1.57-1.69l.78-.87c.63-.71,1.24-1.44,1.85-2.18l.38-.45q1.07-1.32,2.1-2.7l.69-.95c.46-.63.91-1.26,1.35-1.9l.78-1.16c.41-.6.8-1.21,1.2-1.83.25-.4.51-.8.75-1.21.43-.68.84-1.38,1.25-2.09.2-.34.4-.67.59-1,.57-1,1.12-2,1.66-3l.66-1.32c.33-.65.66-1.3,1-2,.25-.51.49-1,.73-1.55s.56-1.23.83-1.85.48-1.09.71-1.64.53-1.28.79-1.92.44-1.09.65-1.64c.42-1.1.83-2.21,1.23-3.34.22-.62.42-1.25.63-1.88s.41-1.22.61-1.84.43-1.36.63-2,.35-1.16.53-1.75.41-1.44.6-2.16c.16-.57.31-1.14.46-1.71.19-.76.39-1.52.58-2.29.1-.4.19-.82.29-1.22q.57-2.48,1.1-5l.3-1.49c.17-.87.33-1.74.48-2.62.1-.53.19-1.06.28-1.59.16-.9.3-1.8.44-2.71.08-.5.16-1,.23-1.52.14-1,.28-1.92.41-2.9,0-.23.06-.47.09-.7q.43-3.36.77-6.81l.09-.87c.1-1.05.18-2.12.27-3.19,0-.49.08-1,.11-1.46.08-1.05.15-2.12.22-3.19,0-.48,0-1,.08-1.44.06-1.12.12-2.25.17-3.38,0-.25,0-.5,0-.75q.16-4.1.21-8.34v0c0-3.23,0-6.54-.08-9.9,0-.37,0-.74,0-1.1-.05-1.85-.11-3.71-.18-5.6-.28-6.69-.75-13.59-1.42-20.74-.25-.43-.49-.87-.73-1.31h0c-155.45-277.11-268.61-532.4-345.88-780.3-50.56-162.18-105.2-304.11-167.06-433.92-71.75-150.53-177.31-278.77-322.72-392l-.57-.49c-7.72-6.93-15.35-14.15-22.74-21.14-15.68-14.83-31.9-30.18-49.16-43-109.84-81.37-231.82-157.84-362.63-227.33-19.62,4.59-39.54,8.94-58.85,13.15C2478.47,2075.72,2431.52,2086,2386.76,2099.82Z"/><path d="M1620.76,1352c24.75-11,38.15-27.64,37.73-46.87a78.91,78.91,0,0,0-76.93-77.37c-1.24,0-2.51,0-3.75,0a79,79,0,0,0-77.26,80.79h0c.15,6.91,3.88,12,14.3,22.89,5.7,6,13.61,13.74,22.29,21.91,7.44,7,19.34,9.71,32.37,9.71C1587.35,1363,1607.3,1358,1620.76,1352Zm-88.16-44.15h0Zm26.11,21.77c-3.08-2.9-5.87-5.58-8.42-8a25.78,25.78,0,0,1-8.34-8.25c-4.35-4.4-7.4-7.68-9.25-9.81a47,47,0,0,1,45.81-43.71c.74,0,1.49,0,2.24,0a46.91,46.91,0,0,1,45.69,46c.12,5.6-8,11.06-11.46,13.16C1594.62,1331.18,1565.08,1332.72,1558.71,1329.6Z"/></g></svg>